<svg width="26" height="26" viewBox="0 0 26 26" fill="none" xmlns="http://www.w3.org/2000/svg">
<g clip-path="url(#clip0)">
<path d="M19.0632 25.346L17.0079 18.3397C17.0078 18.3393 17.0077 18.3389 17.0076 18.3385L16.2741 15.8384C16.2741 15.8381 16.274 15.8379 16.2739 15.8377L15.2604 12.3829C15.2602 12.3822 15.2601 12.3816 15.2599 12.3809L13.6474 6.88418C14.3572 6.62048 14.8643 5.9364 14.8643 5.13594C14.8643 4.10792 14.028 3.27161 13 3.27161C11.972 3.27161 11.1357 4.10797 11.1357 5.13594C11.1357 5.9364 11.6428 6.62053 12.3527 6.88418L8.99246 18.3386C8.99236 18.339 8.9922 18.3394 8.9921 18.3398L6.93678 25.346C6.85746 25.6164 7.01234 25.8999 7.2827 25.9793C7.55342 26.0585 7.83657 25.9037 7.91595 25.6333L8.22845 24.568L13.0001 21.4162L17.7717 24.568L18.0842 25.6333C18.1494 25.8558 18.3529 26 18.5736 26C18.6211 26 18.6695 25.9933 18.7174 25.9793C18.9877 25.8999 19.1426 25.6164 19.0632 25.346ZM12.1561 5.13584C12.1561 4.67053 12.5347 4.29195 13 4.29195C13.4653 4.29195 13.8438 4.67053 13.8438 5.13584C13.8438 5.60115 13.4653 5.97972 13 5.97972C12.5347 5.97972 12.1561 5.6012 12.1561 5.13584ZM13 8.30261L14.0914 12.0231H11.9085L13 8.30261ZM11.6092 13.0435H14.3908L15.1053 15.4794H10.8946L11.6092 13.0435ZM8.6734 23.051L9.77748 19.2875L12.0743 20.8046L8.6734 23.051ZM10.078 18.263L10.5953 16.4999H15.4047L15.922 18.263L13 20.1931L10.078 18.263ZM13.9257 20.8046L16.2225 19.2876L17.3266 23.0511L13.9257 20.8046Z" fill="white"/>
<path d="M10.5747 2.71036C10.774 2.51109 10.774 2.18802 10.5747 1.9888C10.3754 1.78954 10.0524 1.78954 9.85311 1.9888C8.11797 3.7241 8.11797 6.54769 9.85316 8.28299C9.95279 8.38262 10.0834 8.43244 10.214 8.43244C10.3445 8.43244 10.4751 8.38257 10.5747 8.28299C10.774 8.08372 10.774 7.76065 10.5747 7.56144C9.23723 6.22401 9.23723 4.04778 10.5747 2.71036Z" fill="white"/>
<path d="M16.1474 1.9888C15.9482 1.78954 15.6252 1.78954 15.4258 1.9888C15.2266 2.18807 15.2266 2.51114 15.4258 2.71035C16.7632 4.04778 16.7632 6.22401 15.4258 7.56143C15.2266 7.7606 15.2266 8.08372 15.4259 8.28293C15.5255 8.38257 15.6561 8.43238 15.7867 8.43238C15.9173 8.43238 16.0478 8.38251 16.1475 8.28293C17.8827 6.54764 17.8827 3.72405 16.1474 1.9888Z" fill="white"/>
<path d="M8.73527 0.871C8.93453 0.671734 8.93453 0.348664 8.73527 0.149449C8.536 -0.0498164 8.21298 -0.0498164 8.01367 0.149449C6.68178 1.48139 5.94824 3.25223 5.94824 5.13591C5.94824 7.01954 6.68178 8.79044 8.01367 10.1224C8.11335 10.222 8.24386 10.2718 8.37452 10.2718C8.50518 10.2718 8.63564 10.222 8.73532 10.1224C8.93458 9.92311 8.93458 9.60004 8.73532 9.40083C6.38354 7.0491 6.38354 3.22268 8.73527 0.871Z" fill="white"/>
<path d="M19.0081 1.4412C18.8603 1.20131 18.546 1.12656 18.3061 1.27433C18.0662 1.42216 17.9915 1.73644 18.1392 1.97633C19.6094 4.36275 19.2497 7.41582 17.2647 9.40075C17.0654 9.60002 17.0654 9.92309 17.2647 10.1224C17.3643 10.222 17.4949 10.2718 17.6255 10.2718C17.756 10.2718 17.8866 10.222 17.9863 10.1224C19.1147 8.99385 19.8329 7.50047 20.0085 5.91737C20.1814 4.35879 19.8261 2.76908 19.0081 1.4412Z" fill="white"/>
<path d="M17.6257 0C16.9691 0 16.968 1.02045 17.6257 1.02045C18.2823 1.02045 18.2833 0 17.6257 0Z" fill="white"/>
</g>
<defs>
<clipPath id="clip0">
<rect width="26" height="26" fill="white"/>
</clipPath>
</defs>
</svg>
