<svg width="65" height="74" viewBox="0 0 65 74" fill="none" xmlns="http://www.w3.org/2000/svg">
<g clip-path="url(#clip0)">
<path fill-rule="evenodd" clip-rule="evenodd" d="M3.42973 48.26V25.92C2.70044 25.6736 2.03932 25.2591 1.49973 24.71V24.71C1.02383 24.237 0.646157 23.6745 0.388439 23.055C0.130722 22.4354 -0.00195312 21.7711 -0.00195312 21.1C-0.00195312 20.429 0.130722 19.7647 0.388439 19.1451C0.646157 18.5256 1.02383 17.9631 1.49973 17.49V17.49C1.97274 17.0149 2.53546 16.6385 3.15519 16.3827C3.77492 16.1269 4.4393 15.9969 5.10973 16C6.35815 15.9983 7.56403 16.4536 8.49973 17.28L27.3097 6.41005C27.0803 5.54695 27.0824 4.6386 27.3159 3.77658C27.5494 2.91456 28.006 2.12933 28.6397 1.50005C29.3549 0.790149 30.2639 0.307526 31.2526 0.112863C32.2413 -0.0817996 33.2654 0.0201875 34.1963 0.406001C35.1272 0.791815 35.9232 1.44423 36.4843 2.28122C37.0454 3.11821 37.3465 4.1024 37.3497 5.11005C37.3488 5.50747 37.3018 5.90343 37.2097 6.29005L56.2097 17.29C57.1828 16.4248 58.45 15.9646 59.7515 16.0036C61.053 16.0427 62.2903 16.5781 63.2097 17.5V17.5C63.6856 17.9731 64.0633 18.5356 64.321 19.1551C64.5787 19.7747 64.7114 20.439 64.7114 21.11C64.7114 21.7811 64.5787 22.4454 64.321 23.065C64.0633 23.6845 63.6856 24.247 63.2097 24.72C62.6669 25.2651 62.0068 25.679 61.2797 25.93V48.26C62.003 48.519 62.6615 48.9318 63.2097 49.4701C64.1019 50.4394 64.5852 51.7158 64.5588 53.0329C64.5324 54.35 63.9984 55.6061 63.0682 56.5389C62.1379 57.4717 60.8834 58.0092 59.5663 58.0393C58.2493 58.0693 56.9715 57.5895 55.9997 56.7001V56.7001L37.2397 67.51C37.312 67.8655 37.3488 68.2273 37.3497 68.59C37.3516 69.2612 37.22 69.926 36.9624 70.5458C36.7049 71.1655 36.3267 71.7279 35.8497 72.2V72.2C35.1351 72.9134 34.2252 73.399 33.2348 73.5956C32.2445 73.7922 31.218 73.691 30.2851 73.3048C29.3522 72.9186 28.5546 72.2647 27.993 71.4255C27.4314 70.5864 27.131 69.5997 27.1297 68.59C27.1291 68.182 27.1794 67.7755 27.2797 67.38L8.73973 56.67C7.7804 57.6239 6.48256 58.1593 5.12973 58.1593C3.77691 58.1593 2.47906 57.6239 1.51973 56.67V56.67C1.04413 56.1979 0.666671 55.6362 0.409087 55.0175C0.151503 54.3988 0.0188909 53.7352 0.0188909 53.065C0.0188909 52.3949 0.151503 51.7313 0.409087 51.1126C0.666671 50.4939 1.04413 49.9322 1.51973 49.46V49.46C2.06635 48.9198 2.72531 48.5067 3.44973 48.25L3.42973 48.26ZM39.7397 43.87V48.7901C40.5642 48.3438 41.3386 47.8108 42.0497 47.2001V43C42.0217 42.4513 41.8262 41.9244 41.4897 41.4901C41.2009 41.0602 40.7848 40.7314 40.2997 40.55V40.55C35.4783 39.1099 30.3411 39.1099 25.5197 40.55V40.55C25.0326 40.7278 24.6154 41.0573 24.3297 41.4901V41.4901C23.9932 41.9244 23.7978 42.4513 23.7697 43V43V46.78C24.4718 47.4437 25.2429 48.0304 26.0697 48.53V43.87H28.5297V49.68C30.0118 50.2124 31.575 50.4831 33.1497 50.48C34.5504 50.4813 35.9431 50.2689 37.2797 49.85V43.85L39.7397 43.87ZM39.4097 32.78V33.1101V33.3601V33.44V33.6V33.68V33.76V33.84V33.92V34V34.0801V34.16V34.2401V34.32V34.4001V34.4701V34.55V34.6301V34.7001V34.78V34.8601V34.93L38.9997 35V35.07V35.14V35.2201V35.2901V35.3601V35.43V35.5V35.57V35.64V35.71V35.78V35.85V35.92V35.98V36.0401V36.1101V36.18V36.2401V36.3101L38.9497 36.37V36.44V36.5V36.57V36.6301V36.69V36.75L38.8997 36.8101V36.87L38.8497 36.92V36.9701V37.03L38.7997 37.09V37.14V37.2001C39.9822 37.3919 41.1513 37.6591 42.2997 38C42.8489 38.5616 43.2538 39.2478 43.4797 40C44.1078 40.8575 44.4569 41.8874 44.4797 42.9501V42.9501V44.43C45.8427 42.407 46.6394 40.056 46.7873 37.6211C46.9352 35.1862 46.4289 32.7561 45.3209 30.5829C44.2128 28.4097 42.5434 26.5726 40.4859 25.2622C38.4284 23.9518 36.0577 23.2158 33.6199 23.1306C31.182 23.0454 28.7657 23.6141 26.6218 24.7777C24.4778 25.9413 22.6843 27.6574 21.4272 29.748C20.1702 31.8385 19.4955 34.2274 19.4731 36.6666C19.4506 39.1059 20.0813 41.5067 21.2997 43.62V43C21.3225 41.9374 21.6716 40.9075 22.2997 40.05V40.05C22.9059 39.1892 23.7714 38.5445 24.7697 38.21V38.21C25.9182 37.8691 27.0872 37.6019 28.2697 37.41L28.2097 37.35L28.1597 37.3H28.1097V37.2401L28.0597 37.18L27.9997 37L27.9497 36.94V36.8801L27.8997 36.82L27.8497 36.76V36.7001L27.7997 36.64L27.7497 36.57V36.51V36.4501V36.3801V36.32V36.26V36.19V36.1301V36.07V36V35.93V35.8601V35.7901V35.7201V35.6501V35.5801V35.51V35.44V35.3601V35.2901V35.2201V35.14V35.07V34.9901V34.92V34.84V34.7701V34.69V34.6101V34.5401V34.46V34.3801V34.3V34.2201V34.14V34.0601V33.9901V33.92V33.84V33.76V33.6V33.5201V33.44V33.19V33.1101V32.78C27.7497 31.0579 28.4332 29.4061 29.65 28.1874C30.8668 26.9687 32.5176 26.2827 34.2397 26.28C35.9609 26.2807 37.6116 26.964 38.8297 28.18V28.18C39.4358 28.7829 39.9165 29.4997 40.2444 30.2892C40.5722 31.0787 40.7405 31.9252 40.7397 32.78H39.4097ZM35.7697 35.6301C36.1492 35.2577 36.4506 34.8134 36.6564 34.3232C36.8622 33.833 36.9681 33.3067 36.9681 32.7751C36.9681 32.2434 36.8622 31.7171 36.6564 31.2269C36.4506 30.7367 36.1492 30.2924 35.7697 29.92V29.92C35.3953 29.5433 34.9495 29.2449 34.4584 29.0423C33.9674 28.8397 33.4409 28.737 32.9097 28.74C32.3802 28.7383 31.8556 28.8417 31.3664 29.0443C30.8772 29.2468 30.433 29.5445 30.0597 29.92C29.6848 30.295 29.3874 30.7401 29.1845 31.2299C28.9816 31.7198 28.8772 32.2448 28.8772 32.7751C28.8772 33.8459 29.3025 34.8729 30.0597 35.6301C30.8169 36.3872 31.8439 36.8126 32.9147 36.8126C33.9856 36.8126 35.0125 36.3872 35.7697 35.6301ZM49.2897 36.8101C49.2918 39.3917 48.6745 41.9363 47.4897 44.23L56.2397 49.23C56.97 48.5725 57.8778 48.1447 58.8497 48V26.15C57.7701 25.9875 56.7711 25.4827 55.9997 24.71V24.71L47.5797 29.58C48.7172 31.8307 49.3065 34.3183 49.2997 36.84L49.2897 36.8101ZM46.1997 46.3101C45.7083 46.9861 45.1632 47.6215 44.5697 48.21C41.6519 51.1473 37.709 52.8392 33.5697 52.93V63.67C34.4313 63.9103 35.2165 64.3683 35.8497 65V65C35.9497 65.1 36.0497 65.21 36.1397 65.32L54.7397 54.57C54.5946 54.0867 54.5205 53.5848 54.5197 53.0801C54.5218 52.4717 54.6336 51.8687 54.8497 51.3L46.1997 46.3V46.3101ZM31.1397 52.8101C28.8252 52.5125 26.6021 51.7188 24.6225 50.4831C22.643 49.2474 20.9535 47.5988 19.6697 45.6501L9.88973 51.3C10.1037 51.869 10.2122 52.4722 10.2097 53.0801C10.217 53.5846 10.1462 54.0872 9.99973 54.57L28.4197 65.21C28.488 65.1318 28.5615 65.0583 28.6397 64.99C29.3212 64.2968 30.19 63.8172 31.1397 63.6101V52.8101ZM18.4797 43.51C17.5361 41.4308 17.0421 39.1758 17.03 36.8925C17.018 34.6092 17.4881 32.3491 18.4097 30.26L8.73973 24.68C7.97367 25.449 6.98226 25.9534 5.90973 26.12V48C6.87782 48.1637 7.77758 48.6049 8.49973 49.2701L18.4997 43.51H18.4797ZM19.5697 28.11C20.2011 27.1312 20.9352 26.2227 21.7597 25.4C24.2877 22.8661 27.5884 21.2474 31.1397 20.8V10.09C30.19 9.88285 29.3212 9.40329 28.6397 8.71005V8.71005L28.4897 8.56005L9.88973 19.31C10.1034 19.8826 10.2118 20.489 10.2097 21.1C10.2115 21.6009 10.1408 22.0994 9.99973 22.58L19.5697 28.11V28.11ZM33.5697 20.68C36.0669 20.7452 38.5145 21.3909 40.7188 22.566C42.9232 23.741 44.8237 25.4132 46.2697 27.45L54.7097 22.57C54.3809 21.5016 54.4197 20.3539 54.8197 19.31L36.0797 8.47005L35.8597 8.71005C35.2266 9.32289 34.4494 9.76652 33.5997 10V20.68H33.5697ZM61.4997 55C61.7477 54.7539 61.9443 54.461 62.0782 54.1382C62.2121 53.8155 62.2806 53.4694 62.2797 53.12C62.2782 52.4199 62.0017 51.7483 61.5097 51.25V51.25C61.0101 50.7572 60.3365 50.4809 59.6347 50.4809C58.9329 50.4809 58.2594 50.7572 57.7597 51.25C57.2669 51.7497 56.9906 52.4233 56.9906 53.125C56.9906 53.8268 57.2669 54.5004 57.7597 55V55C58.0039 55.2473 58.2952 55.4428 58.6165 55.5751C58.9377 55.7074 59.2823 55.7737 59.6297 55.7701C59.9768 55.7714 60.3208 55.7041 60.6417 55.572C60.9626 55.4398 61.2543 55.2454 61.4997 55V55ZM6.99973 55C7.24736 54.7546 7.44391 54.4625 7.57805 54.1407C7.71218 53.8189 7.78125 53.4737 7.78125 53.125C7.78125 52.7764 7.71218 52.4312 7.57805 52.1094C7.44391 51.7876 7.24736 51.4955 6.99973 51.25V51.25C6.5001 50.7572 5.82653 50.4809 5.12473 50.4809C4.42294 50.4809 3.74936 50.7572 3.24973 51.25V51.25C2.7569 51.7497 2.48059 52.4233 2.48059 53.125C2.48059 53.8268 2.7569 54.5004 3.24973 55V55C3.74936 55.4929 4.42294 55.7692 5.12473 55.7692C5.82653 55.7692 6.5001 55.4929 6.99973 55ZM34.1197 70.47C34.6126 69.9704 34.8889 69.2968 34.8889 68.595C34.8889 67.8933 34.6126 67.2197 34.1197 66.72V66.72C33.7492 66.351 33.2777 66.0998 32.7646 65.9982C32.2516 65.8966 31.7199 65.949 31.2366 66.149C30.7534 66.3489 30.3401 66.6874 30.0488 67.1218C29.7575 67.5562 29.6012 68.067 29.5997 68.59C29.5997 69.2935 29.8763 69.9687 30.3697 70.47C30.8694 70.9629 31.5429 71.2392 32.2447 71.2392C32.9465 71.2392 33.6201 70.9629 34.1197 70.47V70.47ZM34.1197 7.00005C34.6126 6.50042 34.8889 5.82684 34.8889 5.12505C34.8889 4.42325 34.6126 3.74968 34.1197 3.25005C33.6225 2.75277 32.948 2.4734 32.2447 2.4734C31.5415 2.4734 30.867 2.75277 30.3697 3.25005C29.8725 3.74733 29.5931 4.42179 29.5931 5.12505C29.5931 5.82831 29.8725 6.50277 30.3697 7.00005V7.00005C30.8694 7.49288 31.5429 7.76919 32.2447 7.76919C32.9465 7.76919 33.6201 7.49288 34.1197 7.00005V7.00005ZM61.4997 23C61.7459 22.7548 61.9411 22.4633 62.0744 22.1424C62.2076 21.8216 62.2762 21.4775 62.2762 21.13C62.2762 20.7826 62.2076 20.4385 62.0744 20.1176C61.9411 19.7968 61.7459 19.5053 61.4997 19.26V19.26C60.9977 18.7932 60.3343 18.5392 59.6489 18.5512C58.9634 18.5632 58.3093 18.8403 57.8239 19.3244C57.3385 19.8085 57.0596 20.4619 57.0458 21.1473C57.032 21.8327 57.2843 22.4968 57.7497 23V23C57.995 23.2462 58.2864 23.4414 58.6073 23.5747C58.9282 23.7079 59.2723 23.7765 59.6197 23.7765C59.9672 23.7765 60.3112 23.7079 60.6321 23.5747C60.953 23.4414 61.2445 23.2462 61.4897 23H61.4997ZM6.99973 23C7.24649 22.7551 7.44242 22.4638 7.57627 22.1429C7.71013 21.8219 7.77927 21.4778 7.77973 21.13C7.78556 20.777 7.7194 20.4264 7.5853 20.0998C7.45119 19.7731 7.25196 19.4772 6.99973 19.23V19.23C6.75429 18.9824 6.46223 18.7859 6.14041 18.6517C5.81859 18.5176 5.47339 18.4485 5.12473 18.4485C4.77608 18.4485 4.43088 18.5176 4.10906 18.6517C3.78724 18.7859 3.49518 18.9824 3.24973 19.23V19.23C2.75752 19.728 2.48148 20.3999 2.48148 21.1C2.48148 21.8002 2.75752 22.4721 3.24973 22.97V22.97C3.49319 23.2196 3.78368 23.4185 4.10442 23.5553C4.42517 23.692 4.76982 23.7638 5.11848 23.7666C5.46714 23.7694 5.81289 23.7031 6.13579 23.5715C6.45868 23.4399 6.75231 23.2457 6.99973 23V23Z" fill="white"/>
</g>
<defs>
<clipPath id="clip0">
<rect width="64.74" height="73.7" fill="white"/>
</clipPath>
</defs>
</svg>
