<svg width="946" height="590" viewBox="0 0 946 590" fill="none" xmlns="http://www.w3.org/2000/svg">
<g clip-path="url(#clip0)">
<path d="M439.999 171.243L443.372 170.973L445.658 174.422L448.562 172.605L452.428 171.436L453.044 174.707L459.7 173.765L461.966 174.6L464.304 174.563L465.521 173.617L470.133 174.556L468.886 167.437L473.483 166.656L474.916 168.001L478.045 168.779L481.131 170.72L482.169 169.351L481.529 168.679L482.004 167.488L482.916 168.003L485.111 164.802L484.732 163.82L483.388 163.487L482.599 161.221L485.631 160.857L486.187 158.936L487.002 158.297L489.332 158.283L490.293 154.298L492.505 152.982L492.677 151.659L496.428 149.515L494.38 147.754L495.557 147.828L494.091 144.557L496.868 141.154L495.411 139.637L496.115 139.298L495.984 137.833L495.452 136.698L493.993 136.785L493.912 134.288L491.568 134.434L490.724 133.169L489.527 132.946L489.264 131.784L487.461 129.825L487.953 128.763L489.381 128.223L489.3 127.34L490.244 126.389L490.878 126.943L491.339 125.58L490.333 125.787L490.019 124.033L493.087 123.686L493.478 123.063L492.086 120.927L493.705 120.817L493.764 119.926L495.826 119.786L496.071 120.82L498.968 120.192L498.651 118.416L500.715 118.287L500.989 119.764L502.329 119.836L502.702 120.7L503.599 120.801L504.427 123.574L505.917 123.777L506.369 122.121L505.18 122.039L504.594 120.442L505.458 120.233L505.596 118.436L506.785 118.518L507.136 117.455L508.142 117.247L508.803 116.303L513.323 115.739L513.759 117.357L514.958 117.59L515.697 121.117L515.355 122.321L516.111 122.574L516.482 121.813L519.149 122.1L520.548 121.281L521.002 123.179L520.178 123.819L520.541 124.695L519.676 124.894L519.907 125.908L519.364 126.541L523.409 125.859L524.385 125.208L527.07 128.165L527.613 129.768L529.595 129.214L528.853 126.746L530.694 126.202L530.786 123.234L539.523 121.746L539.841 124.841L543.281 124.965L543.593 125.553L545.434 125.315L547.056 123.46L548.324 123.095L548.82 121.596L550.943 121.35L551.001 122.683L555.969 126.756L554.985 130.658L555.906 132.392L554.666 133.178L554.854 134.351L556.487 136.65L562.653 136.551L567.515 135.481L568.127 132.799L572.008 131.345L573.012 132.053L574.81 130.817L577.051 130.478L577.588 129.421L578.284 129.257L579.247 132.828L580.264 133.698L581.711 139.763L584.211 138.254L588.472 139.711L591.283 139.248L591.733 140.58L593.272 140.286L595.161 142.93L603.28 142.391L603.429 142.981L604.542 142.987L608.043 164.257L608.613 165.125L607.377 165.551L604.242 169.124L605.027 175.436L608.566 173.026L609.97 175.325L612.448 175.203L614.643 176.081L612.478 178.339L610.278 178.04L606.08 181.72L606.106 184.137L604.238 187.106L600.53 186.552L599.478 188.816L598.628 187.126L598.091 187.41L598.508 187.972L596.877 188.694L596.18 187.844L595.236 188.414L595.128 190.119L596.094 190.397L597.78 193.069L597.662 193.773L598.484 194.191L599.258 191.65L603.223 192.484L600.553 195.872L595.293 198.438L596.283 200.119L593.447 201.262L592.806 202.814L589.25 201.867L588.347 204.263L587.55 204.561L588.11 205.67L586.942 207.504L583.965 208.111L583.993 209.23L583.182 208.963L582.263 210.097L582.96 210.783L581.642 212.333L584.113 213.542L582.52 214.684L579.92 213.482L579.279 214.881L577.813 215.612L578.711 218.647L577.377 219.229L577.807 220.193L574.931 218.583L570.637 219.659L570.273 220.78L568.919 220.535L570.441 217.582L569.846 216.075L570.349 215.087L569.375 214.135L570.525 212.02L567.88 210.268L566.399 210.587L565.959 209.482L564.625 210.217L564.183 209.254L563.246 209.561L563.407 210.389L560.485 212.155L560.34 215.36L558.852 215.548L558.365 216.959L556.477 217.019L555.043 218.596L555.624 219.538L553.15 221.851L550.097 223.069L550.798 229.949L548.932 227.541L544.74 230.185L546.497 233.284L546.019 234.682L543.766 235.317L539.489 238.67L538.113 238.189L537.87 235.857L539.337 232.902L538.758 231.969L537.831 232.428L536.941 230.678L530.742 233.464L527.008 234.342L527.13 231.587L525.908 231.651L524.151 229.25L523.136 230.55L522.494 228.787L519.892 230.726L520.968 233.016L519.411 234.338L517.758 233.743L518.343 236.877L516.817 236.417L514.346 238.206L511.41 236.866L510.189 236.941L509.728 236.145L508.138 236.926L507.241 235.745L508.491 233.877L508.785 229.714L509.501 228.151L508.646 225.426L509.564 224.674L508.822 217.353L502.405 218.447L501.932 219.725L499.529 220.992L495.5 225.019L493.328 223.767L489.217 224.753L490.872 226.437L491.278 228.223L489.076 230.454L480.193 232.911L475.74 236.715L472.145 232.567L474.259 230.872L472.424 227.686L470.547 227.287L465.62 229.511L459.807 228.327L457.994 227.374L455.516 228.422L453.822 224.235L452.336 225.209L451.569 224.718L450.634 225.351L450.502 224.105L449.867 224.86L449.312 222.245L445.099 220.508L444.404 224.914L440.336 225.97L439.305 224.382L439.758 217.731L434.728 214.071L435.753 212.846L433.639 210.768L436.225 207.709L435.134 207.089L436.165 201.741L433.718 198.086L431.102 198.314L429.545 194.86L433.206 194.701L438.259 191.129L438.74 181.748L440.981 179.261L439.999 171.243Z" fill="white" stroke="#686877" stroke-opacity="0.2"/>
<path d="M322.976 395.359L318.303 398.147L316.844 401.854L316.54 406.325L315.697 406.913L315.247 409.048L278.508 426.365L272.414 404.797L269.81 399.876L267.627 396.772L267.833 395.456L264.939 392.638L264.122 388.719L246.948 385.655L239.831 380.261L237.827 375.42L234.175 371.946L234.139 354.22L232.388 352.014L231.11 346.296L227.359 343.13L227.705 340.181L224.867 334.149L224.849 329.091L225.39 328.524L224.584 323.524L220.809 323.731L220.611 322.407L218.891 321.495L218.37 322.746L216.964 322.585L217.163 327.224L208.506 327.043L209.039 324.809L207.866 322.914L208.207 321.012L205.728 313.893L204.602 313.791L204.004 316.34L202.643 315.889L202.834 315.001L200.15 314.214L198.29 312.929L197.678 309.995L198.385 305.129L197.422 303.564L198.805 304.023L199.344 301.744L200.742 300.074L202.774 299.797L202.928 298.194L207.304 297.847L209.173 296.35L208.567 295.531L210.028 292.304L212.325 291.978L210.897 290.665L212.397 286.865L212.851 283.911L212.353 282.324L209.654 280.885L209.256 275.838L207.388 273.889L209.267 271.224L208.783 270.343L210.959 266.851L210.573 266.437L211.639 266.58L213.577 263.253L211.245 257.716L211.914 254.819L214.411 254.825L215.731 256.143L216.575 254.792L217.86 254.479L218.072 253.129L218.897 252.565L220.076 253.271L219.551 255.799L220.432 256.634L226.44 260.581L229.092 259.835L229.661 260.779L233.864 262.594L234.538 261.125L239.145 257.943L242.109 255.015L241.79 252.53L242.485 249.204L246.02 249.467L246.554 247.385L248.16 246.95L247.547 244.082L248.129 243.193L251.483 246.022L253.532 246.332L253.793 245.171L252.972 242.834L255.092 242.414L256.721 243.143L257.741 242.268L259.197 242.847L262.327 240.943L263.328 242.546L264.925 243.203L266.55 245.906L270.103 247.137L270.129 245.781L271.733 244.715L272.792 244.575L273.506 245.543L274.328 245.034L273.994 238.135L275.274 237.627L276.568 238.687L277.617 238.015L278.111 238.73L279.339 238.938L280.956 237.269L281.517 238.771L283.128 238.914L283.807 237.629L283.523 236.699L285.003 235.53L285.749 235.718L287.033 238.012L289.802 237.555L291.132 238.021L292.17 239.575L291.712 241.962L292.915 245.609L294.087 245.803L296.616 244.812L297.073 246.885L298.602 247.366L299.928 248.879L306.443 248.71L307.864 249.435L308.297 248.949L310.141 249.124L311.905 248.492L313.475 250.113L313.065 250.836L313.686 253.071L319.614 249.909L322.029 241.41L323.206 240.022L325.643 240.375L326.153 242.135L329.134 244.941L332.553 245.231L339.891 244.487L343.504 243.135L351.689 238.367L352.319 236.969L352.899 223.049L354.557 222.215L356.031 222.693L357.463 221.803L358.163 220.047L359.934 222.086L361.928 227.474L363.71 227.898L365.09 225.718L368.429 227.132L368.611 228.415L367.933 228.63L367.579 231.134L371.835 234.25L369.716 236.219L370.661 239.967L373.438 238.647L376.711 248.063L380.076 252.047L380.729 253.655L386.205 259.772L386.847 261.382L386.342 265.052L382.668 262.813L379.772 266.222L379.957 269.685L376.96 272.149L378.156 275.742L378.965 276.609L376.399 276.11L374.961 278.658L380.917 285.623L380.307 286.244L379.844 285.895L376.806 286.837L376.482 288.399L379.14 287.772L381.353 292.704L387.955 297.614L392.096 294.531L394.526 296.149L394.824 297.329L393.706 299.362L394.877 301.934L401.976 303.273L403.375 304.46L406.944 305.263L410.642 307.139L416.33 315.057L421.076 321.179L423.087 321.756L419.201 327.486L397.137 348.078L395.649 348.802L394.556 347.626L388.452 347.542L389.055 345.341L382.296 338.86L379.756 339.624L373.281 331.762L361.075 336.456L356.635 356.593L347.847 357.107L348.181 363.777L341.887 365.202L334.622 374.158L322.976 395.359Z" fill="white" stroke="#686877" stroke-opacity="0.2"/>
<path d="M720.931 300.678L724.847 303.014L727.498 302.878L728.882 305.343L737.977 302.998L745.789 311.215L755.183 306.363L759.877 307.574L760.094 309.724L774.156 314.363L780.632 313.61L782.048 315.22L784.083 314.125L785.692 316.252L786.436 314.806L787.046 314.73L786.439 316.059L787.155 316.111L788.689 316.482L789.675 315.056L789.439 316.158L788.502 317.087L789.719 317.056L789.119 318.134L797.143 325.231L799.637 331.148L803.522 334.338L804.012 340.572L804.864 341.127L806.903 340.053L810.172 341.902L814.217 342.529L815.072 344.567L814.816 348.453L813.075 352.014L808.906 349.431L807.756 349.31L801.899 352.517L800.506 351.144L798.879 351.505L797.825 348.601L795.534 347.126L794.273 347.686L791.674 350.42L790.673 350.737L790.147 350.255L789.286 351.336L788.362 351.118L787.816 351.806L786.38 352.053L785.296 353.253L784.044 353.18L783.598 354.573L781.064 355.15L779.956 356.409L776.421 355.611L775.899 356.776L774.142 357.831L771.291 358.017L769.745 360.417L768.148 359.989L766.436 361.289L763.529 361.155L763.712 362.296L763.077 362.277L759.179 366.46L761.712 366.494L762.577 368.214L763.486 368.554L768.488 366.701L768.794 367.4L769.839 367.088L770.469 367.991L773.138 369.216L773.354 369.971L770.942 371.795L772.022 373.038L771.276 376.928L774.263 386.864L777.591 395.051L783.789 405.111L782.686 409.717L784.722 409.777L786.034 412.885L785.688 413.828L781.941 414.849L778.069 418.058L778.603 419.52L780.421 420.582L782.26 420.791L782.797 421.663L780.997 422.191L779.109 424.017L776.209 424.395L775.88 427.997L775.093 430.06L776.323 432.438L777.859 433.125L776.676 434.852L777.484 437.867L778.555 438.425L778.429 439.304L779.029 439.928L778.993 440.98L778.365 441.472L777.32 441.326L775.787 442.273L775.554 440.398L774.606 438.94L772.294 437.926L771.17 436.373L769.918 436.463L769.518 437.022L769.117 436.424L765.289 436.017L764.384 436.865L762.165 437.048L758.497 433.773L755.343 432.355L754.276 430.979L753.972 428.83L752.412 429.433L751.988 430.365L750.837 429.47L748.845 429.796L744.34 428.842L743.61 429.229L742.91 428.521L740.714 428.33L739.294 427.462L737.595 428.466L736.898 428.314L736.153 429.292L732.877 429.014L732.544 429.738L731.481 429.703L730.58 430.572L729.685 429.87L728.654 430.517L727.89 429.895L725.339 429.962L724.619 429.344L717.573 429.611L713.72 430.8L711.794 429.742L706.582 429.804L704.865 430.069L703.13 431.361L702.62 432.611L698.239 432.839L697.76 433.768L694.99 434.836L693.141 433.549L688.349 434.5L685.927 433.557L683.666 434.52L683.153 433.59L682.14 434.213L680.883 433.649L678.906 434.158L678.606 433.732L679.751 433.199L680.147 431.987L673.907 430.558L673.128 428.597L672.276 428.358L672.391 427.087L671.534 426.729L671.427 424.28L673.709 420.543L672.783 419.388L669.728 420.213L669.897 419.175L668.064 419.772L664.385 419.039L664.114 417.202L668.781 411.754L669.084 410.348L668.311 408.353L669.374 405.858L668.773 402.301L666.406 401.131L665.005 399.705L663.686 399.706L661.082 398.166L656.373 398.32L651.872 395.086L651.049 394.123L651.504 390.482L649.031 387.332L641.702 383.604L640.167 381.532L639.49 377.985L633.646 378.66L632.499 373.25L638.835 372.822L637.281 370L634.839 359.222L636.344 355.607L638.885 348.465L649.587 334.376L660.49 325.865L665.578 326.159L671.758 324.084L679.019 324.332L679.121 325.212L680.363 325.363L681.547 323.483L682.371 325.144L682.901 324.273L684.889 324.69L685.323 323.058L692.042 324.331L689.478 322.382L690.882 321.911L693.231 322.723L695.253 322.143L697.481 322.95L698.413 324.607L699.94 324.151L699.638 322.253L705.831 320.656L702.712 305.09L703.13 303.962L708.663 304.4L711.224 300.548L714.268 302.963L717.009 298.224L720.931 300.678Z" fill="white" stroke="#686877" stroke-opacity="0.2"/>
<path d="M131.374 415.768L130.9 415.89L129.84 414.557L128.426 411.42L129.926 411.546L131.115 412.555L131.655 413.831L131.374 415.768ZM198.29 312.929L200.141 314.226L202.823 315.002L202.635 315.901L203.985 316.354L204.583 313.805L205.709 313.907L208.188 321.026L207.847 322.928L209.009 324.824L208.486 327.057L217.143 327.238L216.944 322.599L218.351 322.76L218.861 321.51L220.592 322.421L220.779 323.747L224.554 323.539L225.36 328.54L224.817 329.096L224.836 334.153L227.673 340.185L227.328 343.135L231.078 346.301L232.356 352.019L234.107 354.225L234.143 371.951L237.797 375.435L239.801 380.277L246.917 385.659L264.092 388.735L264.908 392.654L267.802 395.461L267.595 396.777L269.768 399.883L267.752 399.034L266.144 399.382L265.043 398.611L263.716 399.551L261.421 399.2L260.64 397.609L259.664 397.333L258.709 398.21L255.949 397.499L255.571 394.903L254.551 392.855L253.516 392.86L252.137 394.124L250.672 393.481L247.657 390.276L243.451 395.823L241.109 395.827L233.024 397.844L229.269 399.957L226.139 400.476L220.319 402.707L219.999 403.45L216.738 403.508L217.214 404.793L216.396 407.101L212.172 411.286L214.533 412.261L211.447 415.326L206.374 418.29L203.108 418.316L202.68 420.067L194.938 419.811L196.019 419.364L195.189 419.198L194.997 418.222L195.454 417.295L197.034 416.908L195.919 416.117L196.97 415.456L195.304 413.62L196.586 412.664L194.114 411.062L195.209 410.329L193.974 409.61L194.045 408.804L195.494 408.261L194.799 407.127L195.862 405.701L196.346 406.123L196.303 405.278L195.63 404.992L196.157 402.322L197.794 400.487L197.151 400.186L197.895 399.819L195.901 398.356L195.57 395.633L196.242 394.764L195.376 394.57L194.948 392.395L193.406 392.745L193.929 392.049L192.759 391.484L192.846 389.869L192.277 389.851L190.963 391.498L190.253 393.256L189.663 391.094L188.44 391.463L188.513 390.362L186.965 389.589L187.813 388.88L186.798 387.486L183.806 388.52L182.681 389.814L181.445 389.007L181.243 391.664L180.455 392.332L167.565 390.275L167.857 391.411L169.345 392.454L169.123 394.579L168.676 392.734L167.155 391.609L166.386 389.798L164.334 391.626L165.288 390.586L165.703 388.281L164.187 389.968L164.463 388.685L163.083 387.485L157.527 387.268L154.788 389.401L154.739 390.204L149.847 390.373L149.1 391.406L148.407 391.438L147.228 393.961L146.603 393.864L146.548 392.628L145.982 392.709L144.946 394.088L144.391 397.099L143.746 396.776L143.713 395.614L142.787 396.312L141.796 394.392L140.582 397.366L140.185 396.179L139.411 396.638L137.984 400.798L137.276 398.336L135.529 400.546L134.235 403.957L132.062 404.232L131.424 405.653L131.674 406.653L130.665 407.995L129.094 407.444L129.41 408.904L130.529 409.574L129.52 409.684L130.833 411.025L128.354 410.373L127.934 411.337L126.995 411.165L126.948 412.993L125.39 411.61L126.925 414.522L123.045 412.749L122.67 413.184L121.446 411.231L122.307 410.923L121.167 409.493L119.585 409.401L122.991 414.142L122.187 415.16L121.477 414.759L119.961 411.059L117.892 409.76L116.955 409.915L117.581 410.873L118.438 410.773L119.178 412.304L117.664 411.461L118.179 412.402L117.714 412.664L116.923 410.693L115.989 410.564L117.763 413.235L109.598 410.607L108.327 408.944L106.079 408.456L105.175 407.155L103.522 407.411L103.055 406.343L101.698 406.153L102.017 403.786L103.285 402.352L104.868 402.215L107.179 404.451L108.221 404.423L110.532 403.812L112.107 401.31L111.101 399.359L106.415 394.592L105.096 392.434L102.517 387.685L101.076 382.818L96.2807 382.897L91.1063 375.986L88.0446 373.758L80.5574 375.375L74.4715 374.033L74.4237 378.391L70.3694 376.697L68.3907 374.883L69.2599 374.095L65.5555 369.484L68.2288 367.197L68.998 367.164L69.1452 366.511L66.7316 366.013L66.5063 362.959L64.4186 361.684L67.7081 362.287L70.1259 361.814L99.529 361.424L105.506 362.225L116.248 364.815L115.633 361.63L122.147 361.068L123.15 359.988L126.655 359.579L130.254 354.664L140.579 345.384L141.878 345.167L143.561 343.043L144.476 343.349L146.222 341.903L146.863 338.115L151.116 337.208L153.423 335.725L162.42 336L163.137 337.054L162.492 337.658L162.695 340.246L169.566 340.822L170.119 339.414L171.009 339.157L175.937 341.098L178.162 340.728L179.501 339.634L178.812 338.161L179.388 331.831L181.883 331.369L180.481 323.77L182.433 324.323L183.264 321.261L184.634 321.699L191.847 320.689L194.919 319.218L194.194 318.023L198.29 312.929Z" fill="white" stroke="#686877" stroke-opacity="0.2"/>
<path d="M604.238 187.106L611.764 188.691L612.192 191.095L613.298 192.366L612.669 197.853L613.245 201.076L612.17 201.49L611.77 202.746L612.865 204.009L611.532 205.68L615.064 208.615L620.974 206.71L622.452 205.061L622.854 205.899L626.345 206.08L627.691 207.351L626.626 208.45L628.505 211.794L629.442 207.943L632.787 210.631L633.991 210.516L635.985 213.047L635.319 213.577L636.113 215.111L638.641 215.724L639.166 216.969L638.504 217.368L638.898 217.923L634.908 219.764L635.039 220.454L633.84 221.529L634.902 223.876L636.229 223.622L636.75 224.454L638.745 223.539L642.597 219.798L643.41 218.309L649.529 217.65L650.347 216.04L651.287 215.515L652.345 216.368L659.357 213.325L662.274 214.526L663.224 214.152L663.819 211.429L664.351 211.724L665.853 210.552L668.156 209.964L670.682 211.024L671.268 209.545L670.688 206.367L671.251 201.031L673.093 198.644L676.952 197.04L681.179 200.411L685.541 199.968L689.27 201.675L691.118 205.874L689.784 208.385L692.419 209.757L692.208 211.652L689.513 214.628L688.2 217.137L684.625 219.671L682.741 219.993L682.514 222.544L683.277 223.395L683.072 225.409L683.824 226.796L682.198 231.705L672.504 237.515L672.453 239.387L674.39 241.065L674.488 242.142L676.322 242.471L679.807 244.606L680.145 246.608L684.265 249.154L682.397 250.28L681.884 249.731L680.28 250.874L680.445 254.198L682.322 256.91L690.629 254.305L691.844 256.729L691.661 261.596L688.393 266.072L685.678 265.987L684.74 267.134L685.205 268.726L683.631 269.461L684.624 270.934L686.537 271.514L687.019 272.842L691.28 272.456L690.987 273.621L689.171 273.955L688.853 275.635L691.869 277.695L693.941 277.238L695.582 278.205L691.914 280.164L693.406 281.773L691.986 281.985L692.157 284.578L691.126 284.681L689.861 292.144L690.963 293.46L693.167 299.56L691.158 298.994L689.236 299.582L689.674 301.908L689.093 304.193L687.546 305.045L689.541 305.744L690.881 307.43L693.112 308.641L696.363 309.358L696.975 306.447L698.155 305.462L700.771 306.313L702.712 305.09L705.831 320.656L699.638 322.253L699.939 324.151L698.413 324.607L697.481 322.95L695.252 322.143L693.231 322.723L690.882 321.911L689.477 322.382L692.042 324.331L685.323 323.058L684.889 324.69L682.901 324.273L682.37 325.144L681.547 323.483L680.363 325.363L679.121 325.212L679.018 324.332L671.758 324.084L665.578 326.159L660.49 325.865L649.587 334.376L638.885 348.465L637.494 351.726L603.12 356.189L583.341 359.741L533.638 367.007L494.275 371.947L493.535 369.108L492.489 368.951L484.316 370.577L456.168 367.049L452.029 365.454L447.642 361.713L443.261 361.951L432.027 357.806L429.881 358.044L418.887 355.446L417.849 354.655L416.016 356.18L409.373 353.598L406.647 354.202L400.408 350.549L392.054 353.356L397.137 348.079L419.201 327.486L423.087 321.756L421.076 321.179L416.33 315.057L421.44 308.892L419.76 305.336L427.263 302.528L425.382 300.712L425.935 299.456L424.887 297.674L429.313 297.222L429.242 289.021L445.633 289.405L447.049 288.321L448.584 288.311L450.827 287.143L451.726 283.559L458.156 282.408L463.421 274.641L466.531 273.819L467.207 268.892L469.97 268.784L470.691 265.869L473.454 262.523L477.471 259.337L487.037 243.839L485.786 242.01L486.283 241.285L485.356 239.977L485.965 238.964L489.363 238.025L492.946 235.849L494.22 234.382L495.662 231.245L495.188 230.439L492.766 229.495L492.573 228.825L491.278 228.223L490.872 226.438L489.217 224.753L493.328 223.767L495.499 225.019L499.528 220.992L501.932 219.725L502.405 218.447L508.822 217.354L509.564 224.675L508.646 225.426L509.5 228.151L508.784 229.714L508.491 233.877L507.241 235.745L508.138 236.926L509.728 236.145L510.189 236.941L511.41 236.866L514.346 238.206L516.817 236.417L518.343 236.877L517.758 233.743L519.411 234.338L520.968 233.016L519.891 230.726L522.494 228.787L523.136 230.55L524.151 229.25L525.908 231.651L527.13 231.587L527.008 234.342L530.742 233.464L536.941 230.678L537.831 232.428L538.758 231.969L539.337 232.902L537.87 235.857L538.113 238.189L539.489 238.671L543.766 235.317L546.019 234.682L546.497 233.284L544.739 230.185L548.932 227.541L550.798 229.949L550.097 223.069L553.15 221.852L555.624 219.539L555.043 218.596L556.477 217.019L558.364 216.959L558.851 215.548L560.34 215.36L560.485 212.155L563.407 210.389L563.246 209.561L564.183 209.254L564.625 210.217L565.959 209.482L566.399 210.587L567.88 210.268L570.525 212.02L569.375 214.135L570.349 215.087L569.846 216.075L570.441 217.583L568.919 220.535L570.272 220.78L570.637 219.659L574.931 218.583L577.807 220.193L577.377 219.229L578.711 218.647L577.813 215.612L579.279 214.881L579.92 213.482L582.52 214.684L584.113 213.542L581.642 212.333L582.96 210.783L582.263 210.097L583.182 208.963L583.993 209.23L583.965 208.111L586.942 207.504L588.11 205.67L587.55 204.561L588.347 204.263L589.25 201.867L592.806 202.814L593.447 201.262L596.282 200.119L595.293 198.438L600.553 195.872L603.223 192.484L599.258 191.65L598.484 194.191L597.662 193.773L597.78 193.069L596.094 190.397L595.128 190.119L595.236 188.414L596.179 187.844L596.877 188.694L598.508 187.972L598.091 187.41L598.628 187.126L599.478 188.816L600.53 186.552L604.238 187.106Z" fill="white" stroke="#686877" stroke-opacity="0.2"/>
<path d="M427.647 94.3912L429.948 93.4003L432.119 97.8801L431.642 98.82L434.923 104.985L431.139 106.972L435.409 108.875L436.881 108.808L438.439 111.652L431.055 116.383L434.211 123.046L436.789 122.092L437.628 127.71L435.424 130.999L436.716 133.585L440.274 133.463L441.798 142.691L445.206 144.204L445.009 146.587L441.873 146.377L440.669 147.649L438.458 147.809L437.696 149.051L438.925 152.345L439.96 152.264L440.585 155.447L440.143 155.477L440.837 159.38L438.707 160.271L439.999 171.243L440.981 179.261L438.74 181.748L438.259 191.129L433.206 194.701L429.545 194.86L431.102 198.314L433.718 198.086L436.165 201.741L435.134 207.089L436.225 207.709L433.639 210.768L435.753 212.846L434.728 214.071L439.758 217.731L439.305 224.382L440.336 225.97L444.404 224.914L445.099 220.508L449.312 222.245L449.867 224.86L450.502 224.105L450.634 225.351L451.569 224.717L452.336 225.209L453.822 224.235L455.516 228.422L457.994 227.374L459.807 228.327L465.62 229.511L470.547 227.287L472.424 227.686L474.259 230.872L472.145 232.567L475.74 236.715L480.193 232.911L489.076 230.454L491.278 228.223L492.573 228.825L492.766 229.495L495.188 230.439L495.662 231.244L494.22 234.382L492.946 235.849L489.363 238.025L485.965 238.964L485.357 239.977L486.283 241.285L485.786 242.01L487.037 243.839L477.471 259.337L473.454 262.523L470.691 265.869L469.97 268.784L467.207 268.892L466.531 273.819L463.421 274.64L458.156 282.408L451.726 283.559L450.827 287.143L448.584 288.311L447.049 288.321L445.633 289.405L429.242 289.021L429.313 297.222L424.887 297.674L425.935 299.456L425.383 300.712L427.264 302.528L419.76 305.335L421.44 308.892L416.33 315.057L410.642 307.139L406.944 305.263L403.375 304.46L401.976 303.273L394.877 301.934L393.706 299.362L394.824 297.329L394.526 296.149L392.096 294.531L387.955 297.614L381.353 292.704L379.14 287.772L376.482 288.399L376.806 286.838L379.844 285.895L380.307 286.244L380.917 285.623L374.961 278.658L376.399 276.11L378.965 276.609L378.156 275.742L376.961 272.149L379.958 269.685L379.772 266.222L382.668 262.813L386.342 265.052L386.847 261.382L386.205 259.772L380.729 253.655L380.076 252.047L376.711 248.063L373.438 238.647L370.661 239.967L369.716 236.219L371.835 234.25L367.579 231.134L367.933 228.631L368.611 228.415L368.429 227.132L365.09 225.718L363.71 227.898L361.928 227.474L359.934 222.086L358.163 220.047L357.463 221.803L356.031 222.693L354.557 222.215L351.752 220.028L349.899 217.335L349.211 217.247L347.296 218.652L343.502 217.259L339.766 217.504L337.869 215.112L337.35 212.907L331.029 213.682L328.35 213.232L325.974 211.54L328.102 208.709L328.17 207.805L325.707 207.652L320.653 205.282L320.889 206.568L320.006 206.638L317.891 204.713L317.857 202.701L322.019 201.381L326.132 195.87L330.609 194.778L331.826 192.446L335.129 190.528L337.055 188.042L334.557 184.252L334.229 182.706L331.577 182.602L330.917 179.173L328.13 178.347L327.957 174.969L330.449 173.864L331.096 172.202L334.325 168.451L332.982 166.275L334.92 166.339L337.12 163.868L340.128 165.024L341.721 163.108L344.056 163.748L345.842 165.043L347.203 163.651L349.552 163.384L350.492 162.706L353.494 164.363L355.913 162.124L354.815 158.375L350.924 158.446L348.147 157.771L344.967 155.015L344.199 156.367L342.055 156.769L340.874 156.587L339.252 155.29L336.059 155.524L334.707 154.908L333.74 151.85L335.103 149.847L335.238 147.494L337.777 147.494L338.272 148.373L339.34 148.527L341.92 146.657L341.991 145.775L341.072 144.127L339.889 143.706L338.075 144.05L336.993 145.261L332.831 145.501L331.571 144.611L327.596 144.552L327.412 142.79L329.065 142.458L330.06 143.331L329.916 141.312L331.143 140.506L332.976 137.368L332.564 136.15L330.86 134.658L327.744 134.51L327.766 133.285L328.433 132.373L330.897 131.763L331.693 133.002L333.167 133.022L333.286 130.781L332.456 129.688L332.586 128.917L333.426 127.381L335.174 126.566L336.578 126.553L337.616 128.729L339.52 129.32L340.378 130.682L341.03 128.518L342.588 127.665L343.935 129.099L344.988 127.216L345.028 128.039L346.22 127.914L345.736 129.498L348.069 129.888L349.273 129.39L348.095 126.918L349.413 125.761L352.273 126.174L356.97 124.713L358.182 125.577L356.765 126.879L357.646 128.87L360.083 129.844L360.557 126.724L364.34 122.731L364.508 121.454L370.874 120.847L371.623 120.054L371.286 117.91L372.351 117.192L376.47 116.958L384.325 112.781L387.44 112.46L387.997 111.084L388.861 112.03L389.684 110.605L391.926 110.658L394.042 109.519L396.99 109.167L397.673 107.838L398.807 107.918L400.543 106.243L402.997 105.569L403.488 107.19L407.433 104.341L410.973 106.784L413.261 106.395L413.494 105.424L412.024 102.59L411.892 99.9586L414.855 97.489L417.471 97.4131L416.577 95.9476L416.824 94.9203L420.259 94.6302L422.988 95.5088L423.841 94.4502L424.285 92.0429L426.378 91.0486L426.975 91.4113L426.93 93.9474L427.647 94.3912Z" fill="white" stroke="#686877" stroke-opacity="0.2"/>
<path d="M652.779 71.482L654.197 71.4884L654.897 73.3522L654.378 74.4616L654.674 76.0881L653.12 77.813L653.101 78.9933L651.317 80.4781L650.194 79.394L646.384 79.6607L646.664 80.9406L648.305 82.6056L649.762 85.5072L654.831 89.206L673.504 100.4L681.571 106.423L695.177 122.925L708.055 140.916L713.881 148.041L719.043 156.099L717.509 156.501L717.415 159.841L714.346 161.104L715.159 162.843L712.85 165.852L712.175 165.239L708.105 166.437L708.482 168.411L709.525 168.078L709.81 171.015L708.678 170.794L704.808 174.1L702.297 175.296L701.674 174.282L700.483 175.029L700.385 176.264L698.311 177.779L697.775 177.462L696.246 179.435L699.245 182.685L700.28 185.919L701.93 186.176L704.973 188.58L711.163 191.346L711.445 198.732L713.49 199.01L714.688 203.158L713.476 204.835L710.826 211.829L708.148 213.55L704.665 213.192L695.217 210.735L693.682 208.749L692.419 209.757L689.784 208.385L691.117 205.874L689.27 201.675L685.541 199.968L681.179 200.411L676.952 197.04L673.092 198.644L671.251 201.031L670.687 206.367L671.268 209.545L670.682 211.024L668.156 209.964L665.853 210.552L664.351 211.724L663.819 211.429L663.224 214.152L662.274 214.526L659.357 213.325L652.345 216.368L651.287 215.515L650.347 216.04L649.529 217.65L643.41 218.309L642.597 219.798L638.745 223.539L636.749 224.454L636.229 223.623L634.902 223.876L633.84 221.529L635.039 220.454L634.908 219.764L638.898 217.923L638.504 217.368L639.166 216.969L638.641 215.724L636.113 215.111L635.319 213.577L635.985 213.047L633.991 210.516L632.787 210.632L629.442 207.943L628.505 211.794L626.626 208.451L627.691 207.351L626.345 206.08L622.854 205.899L622.452 205.061L620.974 206.71L615.064 208.615L611.532 205.68L612.865 204.009L611.77 202.746L612.17 201.49L613.245 201.076L612.669 197.853L613.298 192.367L612.192 191.095L611.764 188.691L604.238 187.106L606.106 184.138L606.08 181.72L610.278 178.04L612.478 178.339L614.643 176.081L612.448 175.203L609.97 175.325L608.566 173.026L605.027 175.436L604.242 169.124L607.376 165.551L608.613 165.125L608.043 164.257L604.542 142.987L603.429 142.981L603.28 142.391L602.972 141.061L599.053 141.321L597.598 138.67L597.846 137.337L598.995 138.527L600.544 138.537L601.7 140.314L602.664 139.73L601.909 136.479L603.158 135.757L602.7 133.979L603.677 133.262L602.066 130.273L600.116 131.28L599.123 131.115L598.351 134.671L595.547 135.111L594.635 132.438L595.864 130.497L594.976 129.151L592.907 131.09L592.331 130.638L593.426 129.447L594.872 125.414L594.559 124.205L596.489 121.979L595.302 120.599L594.325 121.479L593.881 120.724L592.757 121.33L592.788 122.089L590.186 125.107L589.235 122.09L589.251 118.74L591.125 119.348L591.8 118.423L588.287 113.697L590.605 110.675L590.737 109.065L591.843 109.181L592.046 106.84L593.523 106.806L595.524 107.7L596.66 105.326L600.32 105.625L600.449 108.072L602.289 107.985L602.418 106.124L603.959 106.233L605.301 109.784L607.968 110.377L609.059 106.002L608.088 105.605L608.27 102.428L611.867 102.507L612.353 99.2436L614.111 98.8856L614.645 96.6509L618.194 96.3885L619.075 97.2997L627.216 89.5279L627.598 87.9908L625.478 85.7175L628.033 83.9054L629.814 84.2422L641.718 76.4938L641.103 75.3814L641.446 73.5663L646.196 74.017L648.21 72.9249L650.16 72.6924L651.534 69.9244L655.397 67.9598L655.604 69.032L652.779 71.482Z" fill="white" stroke="#686877" stroke-opacity="0.2"/>
<path d="M489.637 57.7429L490.624 59.0207L494.087 57.3855L496.62 57.9538L500.318 57.3648L504.603 58.6882L506.709 61.6288L509.065 61.8732L511.39 63.5178L512.796 63.3624L514.02 61.7714L516.157 60.4657L517.285 57.2745L520.659 57.6256L522.029 56.2975L524.44 55.6182L525.484 57.9894L529.622 63.2047L530.398 67.8384L530.158 69.9116L531.474 71.5136L532.056 73.8521L534.013 75.974L536.151 76.2166L537.689 77.3074L537.914 78.7368L535.917 80.1863L536.262 83.3108L537.574 86.887L537.323 89.4962L533.347 89.4374L533.745 91.0931L535.542 91.7765L535.138 94.0038L536.472 94.9599L537.523 96.9921L538.547 96.9888L540.251 94.3267L541.154 94.0026L544.346 94.5322L544.861 96.1712L546.275 95.6876L547.808 95.9721L549.521 94.4429L548.815 92.6127L549.397 90.4911L554.837 90.6587L556.609 92.1635L556.64 92.8461L558.362 93.3874L558.572 91.4821L556.051 90.2252L556.663 88.0013L554.474 85.8576L556.501 85.3198L559.317 86.5023L559.905 88.7309L560.952 89.2041L560.914 91.0088L564.976 92.2221L565.182 93.2179L563.872 93.1199L562.595 93.8023L562.549 94.3977L563.974 95.9953L563.523 99.1233L565.876 100.349L567.006 97.3216L570.689 98.2396L569.02 94.9973L566.027 95.4101L566.205 93.1276L567.258 92.0953L575.311 92.242L575.469 93.8226L576.845 93.8458L577.658 95.5845L582.423 96.4475L584.74 96.0322L584.74 94.8L587.377 95.8769L586.775 93.9339L589.074 92.3108L588.955 91.1609L591.482 91.5338L591.209 98.4641L586.419 98.4225L585.908 99.8144L586.58 100.864L584.437 101.822L584.573 105.63L583.154 106.071L583.831 107.316L583.433 109.892L586.82 110.873L586.651 112.838L588.287 113.697L591.801 118.423L591.125 119.347L589.252 118.74L589.236 122.09L590.186 125.107L592.789 122.089L592.757 121.33L593.881 120.724L594.326 121.479L595.302 120.599L596.489 121.979L594.559 124.205L594.872 125.414L593.427 129.447L592.331 130.638L592.908 131.09L594.976 129.151L595.864 130.497L594.635 132.438L595.548 135.111L598.352 134.671L599.123 131.115L600.117 131.28L602.067 130.273L603.678 133.262L602.7 133.979L603.159 135.756L601.91 136.479L602.664 139.73L601.701 140.314L600.545 138.537L598.996 138.527L597.846 137.337L597.599 138.67L599.053 141.321L602.973 141.061L603.281 142.391L595.162 142.93L593.272 140.286L591.734 140.58L591.284 139.248L588.472 139.711L584.211 138.254L581.712 139.763L580.264 133.698L579.247 132.828L578.284 129.257L577.588 129.421L577.051 130.478L574.81 130.817L573.013 132.053L572.008 131.345L568.127 132.799L567.515 135.481L562.653 136.551L556.488 136.65L554.855 134.351L554.667 133.178L555.907 132.392L554.986 130.658L555.97 126.756L551.001 122.684L550.943 121.35L548.82 121.597L548.324 123.095L547.057 123.46L545.434 125.315L543.593 125.553L543.281 124.965L539.842 124.841L539.523 121.746L530.786 123.234L530.694 126.202L528.853 126.746L529.595 129.215L527.614 129.768L527.071 128.165L524.385 125.209L523.409 125.859L519.364 126.541L519.907 125.908L519.676 124.894L520.542 124.695L520.178 123.82L521.003 123.179L520.549 121.281L519.15 122.1L516.483 121.813L516.111 122.574L515.356 122.321L515.698 121.117L514.959 117.59L513.759 117.357L513.323 115.739L508.804 116.303L508.142 117.247L507.136 117.455L506.785 118.519L505.597 118.436L505.459 120.233L504.595 120.443L505.18 122.039L506.369 122.121L505.917 123.778L504.428 123.574L503.599 120.802L502.702 120.7L502.329 119.836L500.99 119.764L500.715 118.287L498.652 118.416L498.969 120.192L496.071 120.821L495.827 119.786L493.765 119.926L493.706 120.817L492.087 120.927L493.479 123.063L493.088 123.686L490.02 124.033L490.334 125.788L491.339 125.58L490.879 126.943L490.244 126.389L489.3 127.341L489.382 128.223L487.954 128.763L487.461 129.825L489.264 131.784L489.527 132.946L490.725 133.169L491.569 134.435L493.913 134.288L493.994 136.785L495.453 136.698L495.984 137.833L496.115 139.298L495.411 139.637L496.868 141.154L494.092 144.557L495.557 147.828L494.381 147.754L496.428 149.515L492.678 151.66L492.505 152.982L490.294 154.298L489.332 158.283L487.002 158.297L486.188 158.936L485.632 160.857L482.599 161.221L483.388 163.487L484.732 163.82L485.111 164.802L482.916 168.003L482.004 167.489L481.53 168.679L482.17 169.352L481.132 170.72L478.046 168.78L474.916 168.001L473.484 166.656L468.886 167.437L470.134 174.556L465.522 173.617L464.304 174.563L461.966 174.6L459.701 173.765L453.045 174.707L452.429 171.436L448.562 172.605L445.659 174.422L443.372 170.973L439.999 171.243L438.708 160.271L440.837 159.381L440.143 155.477L440.586 155.447L439.961 152.264L438.926 152.345L437.697 149.051L438.458 147.809L440.67 147.649L441.874 146.377L445.009 146.588L445.206 144.204L441.799 142.691L440.274 133.464L436.717 133.585L435.424 130.999L437.629 127.71L436.79 122.093L434.211 123.046L431.056 116.383L438.44 111.652L436.882 108.809L435.409 108.875L431.14 106.972L434.924 104.986L431.642 98.8201L432.12 97.8802L429.949 93.4004L434.768 90.7225L441.017 88.213L442.684 88.2824L443.771 86.6455L448.93 85.5988L449.647 84.5813L453.502 83.2505L453.962 81.4951L459.054 81.8211L460.742 81.0476L463.186 79.6003L463.513 77.373L464.875 75.9044L468.274 76.6663L471.895 75.6084L471.928 73.2265L473.112 71.3469L471.065 69.5104L470.231 67.393L472.528 66.686L473.709 67.2495L474.543 66.4444L478.467 65.6816L479.335 66.0386L479.637 63.7059L480.664 62.4918L480.78 60.2291L481.539 59.4346L486.646 61.3287L486.468 59.3801L485.787 58.8005L484.757 58.99L484.447 57.4962L484.976 56.2327L487.243 56.3807L489.637 57.7429Z" fill="white" stroke="#686877" stroke-opacity="0.2"/>
<path d="M724.399 164.206L738.503 184.848L737.882 181.849L738.435 182.371L740.517 182.065L740.323 179.617L741.284 178.783L743.849 178.115L744.772 176.708L745.582 176.583L745.28 173.06L744.189 171.666L743.916 169.044L747.683 168.478L747.587 166.496L748.224 164.988L753.285 166.016L753.501 166.694L756.652 167.786L757.53 166.44L758.024 166.545L758.721 168.387L757.813 172.212L757.928 175.336L759.946 175.116L763.171 173.34L764.595 173.16L765.85 175.556L765.487 176.229L767.147 178.251L766.886 180.644L767.527 180.706L773.35 179.423L773.389 178L773.86 178.555L775.173 177.519L777.823 177.525L781.288 179.063L782.425 178.782L783.617 177.501L789.267 177.377L792.307 174.526L792.358 170.964L793.158 170.61L797.472 171.134L799.535 168.388L799.682 166.808L800.92 167.08L801.916 168.117L802.755 167.267L805.846 167.157L806.359 166.626L806.225 167.605L809.741 167.957L812.66 169.409L814.851 169.491L818.471 172.425L819.355 174.742L825.734 180.545L825.541 182.645L826.958 185.574L826.755 187.445L828.96 189.707L830.757 189.539L832.015 188.423L833.934 189.733L839.533 191.176L840.111 192.337L842.168 192.242L843.695 193.171L844.685 194.776L843.767 195.145L843.958 197.572L844.815 198.388L846.731 198.684L849.526 203.414L849.74 205.848L851.623 207.293L854.69 207.71L855.239 206.738L857.224 206.053L859.988 207.178L861.56 206.508L863.179 207.009L865.075 206.545L865.619 206.849L865.652 208.317L866.632 208.538L867.633 207.524L869.101 207.196L870.676 208.772L871.311 208.028L870.942 207.034L871.558 204.689L875.207 202.362L878.448 198.087L878.339 196.543L882.272 195.997L881.807 198.026L882.273 199.007L880.686 200.42L880.039 200.315L879.233 201.705L879.77 203.57L883.411 204.276L883.138 204.882L884.033 205.431L884.073 207.257L886.209 208.1L886.356 210.14L887.401 211.519L888.645 211.528L889.588 212.725L892.779 212.557L894.879 213.688L895.996 216.878L892.081 215.785L888.866 217.865L886.794 217.7L886.195 219.857L884.369 221.74L884.824 224.413L886.811 226.902L885.733 228.145L886.321 230.602L885.045 233.215L884.039 233.804L883.461 236.492L880.459 238.466L879.483 238.113L878.037 238.601L876.179 240.947L871.984 241.105L868.455 242.357L866.463 244.525L864.883 251.379L865.237 253.652L864.414 258.305L867.505 268.281L867.523 271.026L870.295 275.138L870.705 279.572L868.39 281.154L867.982 285.279L861.649 286.35L861.167 287.869L858.994 290.456L857.119 291.299L857.024 292.632L853.979 294.448L851.626 294.378L853.213 292.037L850.727 289.412L847.134 290.75L845.382 289.995L840.983 290.945L837.466 292.511L836.065 291.772L827.579 291.032L824.72 289.158L823.746 289.59L822.327 288.188L820.097 288.373L818.449 287.199L815.528 287.973L815.43 292.817L814.421 294.312L814.052 298.563L812.876 302.644L812.242 310.793L809.768 318.951L809.843 326.486L807.083 336.32L806.903 340.053L804.864 341.127L804.012 340.572L803.522 334.338L799.637 331.148L797.143 325.231L789.119 318.134L789.719 317.056L788.503 317.087L789.439 316.158L789.675 315.056L788.689 316.482L787.155 316.111L786.439 316.059L787.046 314.73L786.436 314.806L785.693 316.252L784.084 314.125L782.048 315.22L780.632 313.61L774.156 314.363L760.094 309.724L759.877 307.574L755.183 306.363L745.789 311.215L737.978 302.998L728.882 305.343L727.498 302.878L724.847 303.014L720.931 300.678L717.009 298.224L714.269 302.963L711.224 300.548L708.663 304.4L703.13 303.962L702.712 305.09L700.771 306.313L698.155 305.462L696.976 306.447L696.363 309.358L693.112 308.641L690.881 307.43L689.542 305.744L687.546 305.045L689.093 304.193L689.674 301.908L689.236 299.582L691.158 298.994L693.167 299.56L690.963 293.46L689.861 292.144L691.126 284.681L692.158 284.578L691.987 281.985L693.406 281.773L691.914 280.164L695.582 278.205L693.941 277.238L691.87 277.695L688.854 275.635L689.172 273.955L690.988 273.621L691.281 272.456L687.02 272.842L686.537 271.514L684.624 270.934L683.631 269.461L685.205 268.726L684.74 267.134L685.679 265.987L688.393 266.072L691.661 261.596L691.844 256.729L690.629 254.305L682.323 256.91L680.446 254.198L680.28 250.874L681.884 249.731L682.398 250.28L684.265 249.154L680.145 246.608L679.807 244.606L676.322 242.471L674.488 242.142L674.391 241.065L672.453 239.387L672.504 237.516L682.198 231.705L683.825 226.796L683.072 225.409L683.278 223.395L682.514 222.544L682.742 219.993L684.625 219.671L688.201 217.137L689.513 214.629L692.208 211.652L692.42 209.757L693.683 208.749L695.217 210.735L704.665 213.192L708.149 213.549L710.826 211.829L713.476 204.835L714.688 203.158L713.49 199.01L711.446 198.732L711.163 191.346L704.974 188.58L701.93 186.176L700.281 185.919L699.246 182.685L696.246 179.435L697.776 177.462L698.311 177.779L700.385 176.264L700.483 175.029L701.674 174.282L702.297 175.296L704.809 174.1L708.678 170.794L709.811 171.015L709.526 168.078L708.483 168.411L708.105 166.437L712.175 165.239L712.85 165.852L715.16 162.843L714.347 161.104L717.416 159.841L717.51 156.501L719.044 156.099L724.399 164.206Z" fill="white" stroke="#686877" stroke-opacity="0.2"/>
<path d="M494.275 371.947L533.638 367.007L538.269 372.622L544.862 385.319L548.999 396.063L550.424 397.585L556.92 418.529L556.215 419.163L556.19 421.685L555.067 424.145L555.193 427.497L553.646 434.968L551.414 439.373L553.703 439.834L553.253 440.814L554.544 443.466L556.071 442.781L555.983 443.851L557.393 443.423L559.821 444.715L560.238 443.042L560.714 443.018L561.358 444.639L563.252 444.545L563.871 445.221L564.567 444.828L565.171 445.397L564.974 446.7L566.177 447.577L566.874 446.955L567.465 447.285L566.905 448.717L568.346 449.352L567.888 449.963L568.734 450.857L569.044 454.586L569.521 455.031L569.199 456.451L571.569 457.489L573.085 457.187L573.453 458.095L574.747 458.381L574.994 459.283L575.693 459.37L576.768 460.799L577.93 460.852L579.69 463.122L581.284 462.449L581.529 464.181L582.433 464.097L583.85 465.641L583.956 467.774L585.301 467.726L583.473 469.827L582.514 469.516L581.921 470.254L580.453 472.665L579.843 475.826L578.363 475.534L577.896 474.161L574.846 472.859L574.627 474.242L573.397 475.79L573.8 477.402L572.055 478.63L570.769 481.549L568.9 482.98L568.586 484.148L567.484 483.672L566.901 485.717L565.663 486.438L564.487 485.983L560.335 488.293L558.523 491.352L556.719 492.622L556.469 493.246L557.194 494.365L552.594 495.049L550.872 497.277L550.54 498.633L549.377 498.732L548.13 503.085L546.592 504.535L544.261 509.936L542.918 510.998L542.58 510.304L543.305 509.646L542.024 509.609L541.703 508.956L540.739 509.769L538.331 509.696L538.423 510.271L540.063 510.148L540.546 510.712L540.905 515.634L545.058 520.182L543.233 521.226L542.143 521.304L541.851 521.858L539.57 521.526L539.743 520.978L538.789 520.394L537.976 520.738L535.916 519.426L534.133 519.068L532.263 517.49L528.319 516.184L527.55 515.376L527.736 514.303L529.554 513.981L529.18 511.645L529.749 510.889L528.909 509.426L530.524 508.282L529.189 507.784L526.918 509.065L523.038 506.365L515.012 507.566L499.418 508.346L495.337 490.756L484.327 490.974L483.202 479.018L486.585 479.204L493.74 469.315L496.911 470.698L501.92 463.969L506.56 459.332L511.814 456.495L520.064 450.485L520.016 449.532L518.597 450.136L517.524 448.326L517.672 446.756L516.472 446.981L516.515 445.666L515.473 446.468L516.059 448.217L515.249 448.888L514.241 446.228L516.259 445.32L516.049 441.992L517.738 439.681L517.089 435.171L519.393 436.666L520.219 436.112L520.018 433L518.66 430.946L520.756 428.97L521.648 429.498L522.906 427.837L516.624 424.572L513.831 422.012L513.64 421.047L511.068 420.048L509.865 420.632L507.348 418.786L507.672 416.308L504.653 395.908L501.152 394.964L496.747 392.251L497.473 381.832L498.892 378.458L497.975 376.527L494.337 374.458L494.275 371.947Z" fill="white" stroke="#686877" stroke-opacity="0.2"/>
<path d="M129.105 240.012L131.839 239.461L132.734 239.934L136.883 238.605L137.597 239.409L138.956 239.544L139.292 240.838L139.229 242.471L137.002 243.136L137.958 244.887L141.225 245.024L142.962 243.818L143.698 242.013L144.242 242.852L145.095 242.72L145.572 243.318L145.157 244.544L145.852 244.838L148.62 242.603L147.499 240.461L149.158 237.085L151.099 236.941L152.83 237.623L154.477 237.248L155.437 236.098L155.547 234.949L157.372 234.756L158.52 232.936L159.295 233.251L160.18 236.419L163.208 239.72L163.591 240.963L164.505 241.412L164.559 242.331L165.589 241.836L165.639 242.418L166.309 242.378L166.027 241.927L166.653 241.958L166.79 241.077L167.542 242.083L167.299 241.442L168.639 241.056L168.43 240.344L168.959 240.541L169.004 239.63L169.956 240.422L171.578 240.029L171.208 241.03L172.297 240.102L173.01 241.287L173.404 240.381L174.031 240.576L175.337 239.562L177.156 239.632L176.665 238.545L177.576 238.056L177.73 238.831L179.172 238.779L179.614 239.436L181.495 238.254L184.313 240.374L186.031 240.502L187.382 241.652L187.416 242.279L186.83 242.449L187.498 243.086L187.224 244.466L189.028 246.893L190.644 247.449L191.826 246.944L192.783 247.55L193.684 247.062L196.711 247.964L197.374 248.797L199.166 249.372L199.468 251.271L199.831 250.761L200.542 251.544L200.121 252.269L200.552 253.004L203.475 256.33L206.558 256.319L208.111 256.895L207.291 264.503L209.44 266.979L210.573 266.437L210.959 266.851L208.783 270.343L209.267 271.224L207.389 273.889L209.256 275.838L209.654 280.885L212.354 282.324L212.851 283.911L212.397 286.865L210.897 290.665L212.326 291.978L210.028 292.304L208.567 295.531L209.174 296.35L207.304 297.847L202.928 298.194L202.774 299.797L200.742 300.074L199.344 301.744L198.806 304.023L197.422 303.564L198.385 305.129L197.679 309.995L198.29 312.929L194.219 318.041L194.944 319.236L191.872 320.707L184.658 321.718L183.288 321.279L182.468 324.339L180.506 323.799L181.908 331.387L179.423 331.848L178.835 338.168L179.523 339.641L178.185 340.736L175.96 341.105L171.031 339.164L170.14 339.41L169.587 340.819L162.716 340.243L162.513 337.655L163.158 337.051L162.442 335.997L153.444 335.722L151.137 337.205L146.884 338.112L146.233 341.901L144.487 343.348L143.571 343.041L141.899 345.164L140.6 345.381L130.275 354.661L126.677 359.576L123.171 359.985L122.17 361.076L115.656 361.638L116.27 364.822L105.539 362.231L99.5517 361.432L70.1486 361.821L67.7308 362.295L64.4413 361.692L62.1627 359.299L59.6507 359.338L52.7233 357.288L56.4661 340.924L59.4769 338.404L61.0534 334.452L61.1376 332.968L60.2998 331.669L54.7869 328.447L54.5466 321.208L55.1377 319.456L54.9857 311.222L59.9685 308.39L62.7499 302.479L60.7743 299.302L61.9436 297.708L61.3612 297.212L61.3839 294.832L63.1746 294.317L63.0219 293.084L64.7451 290.245L65.5909 289.907L67.1987 290.486L69.9713 292.057L70.6535 293.258L71.6865 293.395L74.8843 296.661L76.121 298.776L78.5853 300.324L79.7126 303.36L81.9148 305.829L82.1012 306.991L84.0669 306.865L86.0292 308.332L86.6852 308.501L86.7261 307.481L92.5738 303.753L95.0929 300.223L94.2741 298.288L92.152 297.771L92.3363 295.455L90.1991 292.137L87.7043 284.137L87.8627 283.101L85.6006 280.902L87.0832 280.212L88.666 281.308L91.3468 281.692L93.4386 279.454L96.0672 274.928L102.311 271.536L102.157 270.292L99.8472 267.217L100.72 265.142L100.379 263.816L101.241 262.593L103.072 263.053L104.866 262.254L107.85 262.159L111.405 257.631L119.894 252.853L118.984 251.51L119.669 250.573L119.084 249.827L121.352 249.299L121.25 248.114L122.243 247.973L121.545 244.735L122.618 242.228L125.772 242.261L124.982 244.303L127.193 243.292L127.198 240.936L125.932 240.232L125.672 237.63L128.271 238.123L129.105 240.012Z" fill="white" stroke="#686877" stroke-opacity="0.2"/>
<path d="M325.811 407.684L327.01 405.682L329.917 406.361L330.789 409.749L330.406 411.581L331.899 414.433L333.456 415.347L334.066 417.038L322.71 411.034L323.086 408.07L325.811 407.684ZM342.594 404.523L340.382 404.836L340 401.062L345.131 399.66L347.823 399.584L348.492 400.613L352.678 400.467L353.05 400.938L347.526 401.72L344.807 403.762L342.594 404.523ZM377.564 336.608L379.735 339.627L382.264 338.865L389.023 345.345L388.42 347.546L394.525 347.642L395.618 348.817L397.117 348.092L392.036 353.381L400.388 350.563L406.618 354.228L409.355 353.622L415.996 356.193L417.829 354.669L418.867 355.46L429.863 358.069L432.007 357.82L443.242 361.965L447.622 361.727L452.009 365.467L456.146 367.052L484.306 370.578L493.514 369.111L494.315 374.461L497.954 376.53L498.87 378.461L497.462 381.834L496.725 392.254L501.131 394.967L504.632 395.911L507.651 416.311L507.335 418.777L509.854 420.634L511.057 420.049L513.629 421.048L513.819 422.003L516.611 424.563L522.883 427.829L521.625 429.491L520.731 428.952L518.635 430.928L519.995 432.993L520.186 436.106L519.359 436.659L517.055 435.165L517.705 439.674L516.014 441.975L516.215 445.316L514.195 446.212L515.203 448.872L516.013 448.201L515.429 446.463L516.48 445.649L516.439 446.974L517.638 446.75L517.49 448.319L518.564 450.13L519.982 449.526L520.03 450.479L511.78 456.488L506.526 459.326L501.887 463.974L496.879 470.702L493.707 469.319L486.554 479.219L484.686 479.037L482.138 462.19L476.872 465.64L471.474 453.842L463.095 448.005L459.729 442.703L458.445 441.947L456.321 442.498L446.706 448.712L422.938 449.95L395.658 459.254L394.453 458.672L374.319 440.477L372.878 437.453L362.161 431.806L363.649 430.308L364.074 425.995L361.996 421.099L361.03 420.2L359.755 420.282L357.309 416.626L356.885 410.165L356.157 408.491L355.082 407.902L355.542 403.148L354.323 400.158L353.151 399.19L352.706 397.126L353.672 396.248L354.271 391.398L357.117 390.253L357.857 387.782L359.537 385.712L361.662 385.019L362.965 383.45L366.666 380.952L367.655 378.544L367.166 373.172L366.348 373.167L365.335 374.249L359.212 374.647L356.805 372.425L356.553 367.335L353.849 366.322L351.013 366.844L351.041 367.887L354.819 369.096L355.013 370.465L353.604 372.06L352.541 372.789L349.409 372.065L349.878 375.379L349.186 376.033L348.501 372.194L347.773 371.13L346.626 370.267L345.194 370.47L340.928 374.28L340.235 375.545L340.409 377.701L342.675 380.543L344.218 380.968L349.982 379.116L350.716 380.146L353.061 381.003L356.029 378.26L356.49 380.125L358.525 382.65L358.565 386.395L356.541 388.11L352.696 389.2L348.727 387.341L343.667 387.163L341.179 389.838L339.74 390.14L339.012 389.85L339.109 387.765L338.061 384.206L337.094 383.307L332.316 383.732L331.664 383.977L331.882 385.135L335.378 389.58L335.191 391.035L336.193 394.644L335.714 397.187L334.306 397.332L333.793 400.022L333.113 400.762L332.146 400.549L328.782 401.571L328.513 398.599L330.461 394.572L329.495 394.066L328.405 393.675L326.608 395.609L325.318 395.889L322.946 395.375L334.601 374.162L341.866 365.205L348.16 363.78L347.826 357.11L356.624 356.595L361.053 336.459L373.258 331.755L377.564 336.608Z" fill="white" stroke="#686877" stroke-opacity="0.2"/>
<path d="M153.226 454.647L154.137 454.463L152.911 456.196L152.525 453.546L153.226 454.647ZM154.263 450.738L155.052 449.841L155.697 450.469L155.913 452.227L156.921 452.575L155.037 453.049L155.405 452.332L154.808 452.198L154.928 451.276L153.193 450.409L153.592 449.611L153.435 450.201L154.263 450.738ZM140.796 449.144L142.064 449.553L140.995 449.857L140.579 450.614L141.282 453.034L142.038 453.144L141.895 453.983L142.513 454.648L143.84 455.092L145.069 454.536L144.874 455.622L142.144 455.049L141.149 453.87L140.123 451.627L140.796 449.144ZM146.292 447.93L147.145 447.951L147.743 450.025L146.175 453.955L145.592 451.147L144.485 449.33L146.292 447.93ZM192.469 427.925L193.216 427.656L193.997 429.093L194.599 431.342L193.869 431.652L194.02 432.024L193.051 431.877L190.909 429.454L191.95 428.184L191.527 427.502L192.469 427.925ZM194.966 419.774L202.708 420.031L203.136 418.28L206.401 418.254L211.474 415.289L214.561 412.224L212.2 411.25L216.424 407.064L217.242 404.757L216.766 403.472L220.027 403.414L220.347 402.67L226.167 400.44L229.297 399.92L233.052 397.807L241.137 395.79L243.479 395.786L247.685 390.24L250.7 393.444L252.164 394.087L253.544 392.823L254.579 392.819L255.599 394.866L255.977 397.462L258.737 398.173L259.692 397.296L260.668 397.572L261.449 399.163L263.744 399.514L265.071 398.574L266.172 399.345L267.779 398.997L269.796 399.846L272.41 404.765L278.494 426.334L264.476 433.248L279.306 537.61L276.534 537.894L275.489 539.285L274.517 538.888L272.562 539.547L271.49 540.909L270.477 539.831L269.98 540.861L268.393 540.355L262.944 535.892L258.518 529.573L255.634 526.829L255.379 524.336L252.414 521.56L237.746 514.564L232.885 515.405L225.44 517.702L214.573 523.624L203.786 535.729L204.251 531.618L202.069 526.987L202.07 524.762L204.267 520.187L205.593 512.923L204.522 510.751L202.318 508.653L202.629 507.999L202.942 509.056L205.095 510.714L205.982 512.366L206.59 510.96L206.099 508.031L204.198 507.537L203.525 507.937L203.141 506.225L200.158 505.786L197.662 506.248L196.531 507.652L195.123 505.943L194 505.556L191.749 505.973L188.574 507.568L184.797 502.443L182.083 500.515L181.675 498.403L173.939 500.338L173.842 492.729L172.765 489.665L170.934 487.427L169.678 487.18L166.254 482.703L164.878 478.601L162.013 476.531L161.904 474.606L160.514 471.717L156.946 470.15L151.399 470.226L148.409 469.047L147.497 467.758L146.403 462.417L147.407 463.431L148.004 460.337L151.081 460.512L153.851 459.836L154.696 460.338L156.88 460.214L158.369 459.109L160.374 459.567L161.58 460.846L162.633 460.817L162.776 461.909L164.817 462.929L167.035 462.658L168.536 460.483L170.264 459.759L170.471 460.602L171.351 461.044L171.962 460.282L173.792 460.273L173.639 459.575L171.442 458.687L168.079 459.414L168.221 458.26L167.629 458.616L167.531 457.616L165.383 454.997L161.145 452.849L160.708 453.533L158.953 453.378L158.496 451.382L160.094 448.582L162.022 448.036L164.136 445.567L165.683 445.795L165.198 441.6L166.169 438.605L167.8 436.27L168.877 436.641L171.296 436.026L173.507 434.241L174.22 432.733L178.673 433.706L180.785 432.84L185.579 432.292L188.844 430.957L191.652 431.007L193.361 432.531L194.569 432.131L196.738 432.522L195.195 431.781L195.511 431.322L194.421 429.546L194.451 428.451L197.847 429.421L199.962 430.888L197.756 428.55L196.648 428.653L194.759 427.622L195.359 426.316L197.561 425.634L196.927 424.382L194.922 426.389L194.58 425.281L193.927 425.287L194.933 423.465L196.912 423.97L194.395 421.895L195.244 421.196L194.752 420.721L196.387 420.108L194.966 419.774Z" fill="white" stroke="#686877" stroke-opacity="0.2"/>
<path d="M637.494 351.726L636.343 355.607L634.839 359.222L637.28 370L638.835 372.822L632.498 373.25L633.646 378.66L639.49 377.985L640.166 381.532L641.702 383.604L649.03 387.332L651.503 390.482L651.049 394.123L651.872 395.086L656.373 398.32L661.081 398.166L663.686 399.706L665.004 399.704L666.405 401.131L668.772 402.301L669.374 405.858L668.31 408.353L669.083 410.348L668.781 411.754L664.114 417.202L664.385 419.039L668.063 419.772L669.897 419.175L669.728 420.213L672.783 419.388L673.709 420.543L671.426 424.279L671.533 426.729L672.39 427.087L672.276 428.357L673.127 428.597L673.906 430.558L680.146 431.987L679.751 433.199L678.606 433.732L678.906 434.158L680.883 433.649L682.14 434.213L683.152 433.589L683.665 434.52L683.16 437.34L682.185 438.612L679.963 438.239L676.102 438.753L673.775 438.101L671.345 438.871L666.872 436.68L665.149 436.444L664.765 435.735L663.134 435.3L661.171 435.905L658.011 432.678L655.619 431.948L655.123 431.288L652.068 431.109L650.942 430.32L648.358 430.697L648.335 432.227L646.242 433.297L644.075 432.623L643.141 435.492L640.767 435.501L636.548 438.574L636.739 439.463L635.804 442.016L636.374 445.501L635.341 450.14L636.112 453.357L637.957 455.145L637.603 456.035L634.519 455.959L633.684 455.445L633.212 453.887L629.132 453.625L625.073 454.211L622.935 453.576L621.209 451.781L618.187 450.987L615.94 451.207L611.147 449.759L607.883 450.876L602.178 448.914L597.556 451.52L595.103 450.591L592.512 451.307L592.09 451.945L590.228 452.11L589.551 454.714L588.533 455.458L588.591 457.249L586.058 457.913L585.488 458.583L587.546 460.723L586.968 461.645L585.508 460.957L585.207 461.294L583.85 465.641L582.433 464.097L581.529 464.181L581.284 462.449L579.69 463.122L577.93 460.852L576.767 460.799L575.693 459.37L574.994 459.283L574.747 458.38L573.453 458.095L573.085 457.187L571.569 457.489L569.199 456.451L569.521 455.031L569.044 454.586L568.734 450.857L567.888 449.963L568.346 449.352L566.905 448.717L567.465 447.285L566.873 446.955L566.177 447.577L564.974 446.7L565.171 445.397L564.567 444.828L563.871 445.221L563.252 444.545L561.358 444.639L560.714 443.018L560.238 443.042L559.821 444.714L557.393 443.423L555.982 443.851L556.071 442.781L554.544 443.466L553.253 440.814L553.703 439.834L551.414 439.373L553.646 434.968L555.193 427.497L555.067 424.145L556.19 421.685L556.214 419.163L556.92 418.529L550.424 397.585L548.999 396.063L544.862 385.319L538.269 372.622L533.638 367.007L583.341 359.741L603.12 356.189L637.494 351.726Z" fill="white" stroke="#686877" stroke-opacity="0.2"/>
<path d="M356.573 367.321L356.684 370.566L356.825 372.411L359.232 374.633L365.355 374.235L366.369 373.154L367.187 373.158L367.675 378.53L366.686 380.938L362.985 383.436L361.682 385.005L359.557 385.699L357.877 387.768L357.137 390.24L355.54 390.815L354.291 391.384L354.192 392.456L353.692 396.234L352.726 397.112L352.953 398.018L353.171 399.176L354.343 400.144L355.022 401.782L355.562 403.134L355.187 406.796L355.093 407.9L356.168 408.489L356.895 410.164L357.32 416.625L359.766 420.28L361.041 420.198L362.007 421.097L364.084 425.994L363.66 430.307L362.172 431.804L334.108 417.021L334.088 417.035L333.478 415.344L331.921 414.43L330.427 411.577L330.811 409.746L329.939 406.358L327.031 405.679L325.832 407.681L323.119 408.065L322.743 411.03L317.078 408.048L315.27 409.056L315.718 406.91L316.572 406.32L316.866 401.851L318.325 398.144L322.967 395.372L322.998 395.356L325.34 395.886L326.629 395.605L327.013 395.159L328.437 393.67L329.528 394.061L330.493 394.568L329.493 396.585L328.992 397.594L328.546 398.595L328.814 401.566L332.178 400.545L333.146 400.757L333.826 400.017L334.099 398.79L334.339 397.327L335.746 397.183L336.225 394.64L335.223 391.03L335.41 389.575L331.914 385.13L331.696 383.973L332.348 383.728L337.126 383.302L338.093 384.201L339.142 387.76L339.045 389.846L339.772 390.135L341.212 389.833L343.699 387.159L348.759 387.336L352.728 389.195L356.573 388.106L358.598 386.391L358.558 382.645L356.522 380.12L356.062 378.255L354.528 379.661L353.083 380.999L350.738 380.143L350.004 379.113L344.239 380.965L342.697 380.54L340.431 377.698L340.256 375.542L340.949 374.277L345.216 370.467L346.648 370.264L347.794 371.127L348.522 372.191L349.208 376.03L349.9 375.376L349.431 372.062L352.563 372.785L353.626 372.057L355.035 370.462L354.839 369.083L352.273 368.279L351.05 367.874L351.022 366.831L352.833 366.455L353.858 366.31L356.573 367.321ZM344.807 403.762L347.526 401.72L353.05 400.938L352.678 400.467L348.492 400.612L347.823 399.584L345.131 399.66L343.389 400.059L340 401.062L340.145 402.623L340.384 404.846L342.595 404.533L344.807 403.762Z" fill="white" stroke="#686877" stroke-opacity="0.2"/>
<g clip-path="url(#clip1)">
<path d="M600 425C595.969 425 592.688 428.339 592.688 432.443C592.688 434.739 593.85 437.525 596.14 440.725C597.815 443.067 599.467 444.737 599.536 444.807C599.664 444.936 599.832 445 600 445C600.164 445 600.327 444.939 600.454 444.817C600.524 444.75 602.179 443.148 603.858 440.838C606.15 437.686 607.312 434.861 607.312 432.443C607.312 428.339 604.032 425 600 425ZM600 435.657C598.029 435.657 596.426 434.053 596.426 432.082C596.426 430.111 598.029 428.507 600 428.507C601.971 428.507 603.575 430.111 603.575 432.082C603.575 434.053 601.971 435.657 600 435.657Z" fill="#00236A"/>
</g>
<g clip-path="url(#clip2)">
<path d="M650 405C645.969 405 642.688 408.339 642.688 412.443C642.688 414.739 643.85 417.526 646.14 420.725C647.815 423.067 649.467 424.737 649.536 424.807C649.664 424.936 649.832 425 650 425C650.164 425 650.327 424.939 650.454 424.817C650.524 424.75 652.179 423.148 653.858 420.838C656.15 417.686 657.312 414.862 657.312 412.443C657.312 408.339 654.032 405 650 405ZM650 415.657C648.029 415.657 646.426 414.053 646.426 412.082C646.426 410.111 648.029 408.507 650 408.507C651.971 408.507 653.575 410.111 653.575 412.082C653.575 414.053 651.971 415.657 650 415.657Z" fill="#C81920"/>
</g>
<g clip-path="url(#clip3)">
<path d="M580 280C575.969 280 572.688 283.339 572.688 287.443C572.688 289.739 573.85 292.525 576.14 295.725C577.815 298.067 579.467 299.737 579.536 299.807C579.664 299.936 579.832 300 580 300C580.164 300 580.327 299.939 580.454 299.817C580.524 299.75 582.179 298.148 583.858 295.838C586.15 292.686 587.312 289.861 587.312 287.443C587.312 283.339 584.032 280 580 280ZM580 290.657C578.029 290.657 576.426 289.053 576.426 287.082C576.426 285.111 578.029 283.507 580 283.507C581.971 283.507 583.575 285.111 583.575 287.082C583.575 289.053 581.971 290.657 580 290.657Z" fill="#00236A"/>
</g>
<g clip-path="url(#clip4)">
<path d="M630 159C625.969 159 622.688 162.339 622.688 166.443C622.688 168.739 623.85 171.525 626.14 174.725C627.815 177.067 629.467 178.737 629.536 178.807C629.664 178.936 629.832 179 630 179C630.164 179 630.327 178.939 630.454 178.817C630.524 178.75 632.179 177.148 633.858 174.838C636.15 171.686 637.312 168.861 637.312 166.443C637.312 162.339 634.032 159 630 159ZM630 169.657C628.029 169.657 626.426 168.053 626.426 166.082C626.426 164.111 628.029 162.507 630 162.507C631.971 162.507 633.575 164.111 633.575 166.082C633.575 168.053 631.971 169.657 630 169.657Z" fill="#00236A"/>
</g>
<g clip-path="url(#clip5)">
<path d="M540 113C535.969 113 532.688 116.339 532.688 120.443C532.688 122.739 533.85 125.525 536.14 128.725C537.815 131.067 539.467 132.737 539.536 132.807C539.664 132.936 539.832 133 540 133C540.164 133 540.327 132.939 540.454 132.817C540.524 132.75 542.179 131.148 543.858 128.838C546.15 125.686 547.312 122.861 547.312 120.443C547.312 116.339 544.032 113 540 113ZM540 123.657C538.029 123.657 536.426 122.053 536.426 120.082C536.426 118.111 538.029 116.507 540 116.507C541.971 116.507 543.575 118.111 543.575 120.082C543.575 122.053 541.971 123.657 540 123.657Z" fill="#00236A"/>
</g>
<g clip-path="url(#clip6)">
<path d="M271 276C266.969 276 263.688 279.339 263.688 283.443C263.688 285.739 264.85 288.525 267.14 291.725C268.815 294.067 270.467 295.737 270.536 295.807C270.664 295.936 270.832 296 271 296C271.164 296 271.327 295.939 271.454 295.817C271.524 295.75 273.179 294.148 274.858 291.838C277.15 288.686 278.312 285.861 278.312 283.443C278.312 279.339 275.032 276 271 276ZM271 286.657C269.029 286.657 267.426 285.053 267.426 283.082C267.426 281.111 269.029 279.507 271 279.507C272.971 279.507 274.575 281.111 274.575 283.082C274.575 285.053 272.971 286.657 271 286.657Z" fill="#00236A"/>
</g>
<g clip-path="url(#clip7)">
<path d="M268 381C263.969 381 260.688 384.339 260.688 388.443C260.688 390.739 261.85 393.526 264.14 396.725C265.815 399.067 267.467 400.737 267.536 400.807C267.664 400.936 267.832 401 268 401C268.164 401 268.327 400.939 268.454 400.817C268.524 400.75 270.179 399.148 271.858 396.838C274.15 393.686 275.312 390.862 275.312 388.443C275.312 384.339 272.032 381 268 381ZM268 391.657C266.029 391.657 264.426 390.053 264.426 388.082C264.426 386.111 266.029 384.507 268 384.507C269.971 384.507 271.575 386.111 271.575 388.082C271.575 390.053 269.971 391.657 268 391.657Z" fill="#00236A"/>
</g>
<g clip-path="url(#clip8)">
<path d="M119 361C114.969 361 111.688 364.339 111.688 368.443C111.688 370.739 112.85 373.525 115.14 376.725C116.815 379.067 118.467 380.737 118.536 380.807C118.664 380.936 118.832 381 119 381C119.164 381 119.327 380.939 119.454 380.817C119.524 380.75 121.179 379.148 122.858 376.838C125.15 373.686 126.312 370.861 126.312 368.443C126.312 364.339 123.032 361 119 361ZM119 371.657C117.029 371.657 115.426 370.053 115.426 368.082C115.426 366.111 117.029 364.507 119 364.507C120.971 364.507 122.575 366.111 122.575 368.082C122.575 370.053 120.971 371.657 119 371.657Z" fill="#00236A"/>
</g>
</g>
<defs>
<clipPath id="clip0">
<rect width="894" height="469" fill="white" transform="translate(0 125.318) rotate(-8.05809)"/>
</clipPath>
<clipPath id="clip1">
<rect width="20" height="20" fill="white" transform="translate(590 425)"/>
</clipPath>
<clipPath id="clip2">
<rect width="20" height="20" fill="white" transform="translate(640 405)"/>
</clipPath>
<clipPath id="clip3">
<rect width="20" height="20" fill="white" transform="translate(570 280)"/>
</clipPath>
<clipPath id="clip4">
<rect width="20" height="20" fill="white" transform="translate(620 159)"/>
</clipPath>
<clipPath id="clip5">
<rect width="20" height="20" fill="white" transform="translate(530 113)"/>
</clipPath>
<clipPath id="clip6">
<rect width="20" height="20" fill="white" transform="translate(261 276)"/>
</clipPath>
<clipPath id="clip7">
<rect width="20" height="20" fill="white" transform="translate(258 381)"/>
</clipPath>
<clipPath id="clip8">
<rect width="20" height="20" fill="white" transform="translate(109 361)"/>
</clipPath>
</defs>
</svg>
