<svg width="82" height="26" viewBox="0 0 82 26" fill="none" xmlns="http://www.w3.org/2000/svg">
<path d="M1.72656 9V0.46875H4.71484C5.75 0.46875 6.53516 0.667969 7.07031 1.06641C7.60547 1.46094 7.87305 2.04102 7.87305 2.80664C7.87305 3.22461 7.76562 3.59375 7.55078 3.91406C7.33594 4.23047 7.03711 4.46289 6.6543 4.61133C7.0918 4.7207 7.43555 4.94141 7.68555 5.27344C7.93945 5.60547 8.06641 6.01172 8.06641 6.49219C8.06641 7.3125 7.80469 7.93359 7.28125 8.35547C6.75781 8.77734 6.01172 8.99219 5.04297 9H1.72656ZM3.48438 5.28516V7.58789H4.99023C5.4043 7.58789 5.72656 7.49023 5.95703 7.29492C6.19141 7.0957 6.30859 6.82227 6.30859 6.47461C6.30859 5.69336 5.9043 5.29688 5.0957 5.28516H3.48438ZM3.48438 4.04297H4.78516C5.67188 4.02734 6.11523 3.67383 6.11523 2.98242C6.11523 2.5957 6.00195 2.31836 5.77539 2.15039C5.55273 1.97852 5.19922 1.89258 4.71484 1.89258H3.48438V4.04297ZM12.5488 5.87695H11.1484V9H9.39062V0.46875H12.5605C13.5684 0.46875 14.3457 0.693359 14.8926 1.14258C15.4395 1.5918 15.7129 2.22656 15.7129 3.04688C15.7129 3.62891 15.5859 4.11523 15.332 4.50586C15.082 4.89258 14.7012 5.20117 14.1895 5.43164L16.0352 8.91797V9H14.1484L12.5488 5.87695ZM11.1484 4.45312H12.5664C13.0078 4.45312 13.3496 4.3418 13.5918 4.11914C13.834 3.89258 13.9551 3.58203 13.9551 3.1875C13.9551 2.78516 13.8398 2.46875 13.6094 2.23828C13.3828 2.00781 13.0332 1.89258 12.5605 1.89258H11.1484V4.45312ZM21.8711 7.24219H18.7891L18.2031 9H16.334L19.5098 0.46875H21.1387L24.332 9H22.4629L21.8711 7.24219ZM19.2637 5.81836H21.3965L20.3242 2.625L19.2637 5.81836ZM32.0664 9H30.3086L26.8867 3.38672V9H25.1289V0.46875H26.8867L30.3145 6.09375V0.46875H32.0664V9ZM33.6016 9V0.46875H36.2266C36.9766 0.46875 37.6465 0.638672 38.2363 0.978516C38.8301 1.31445 39.293 1.79492 39.625 2.41992C39.957 3.04102 40.123 3.74805 40.123 4.54102V4.93359C40.123 5.72656 39.959 6.43164 39.6309 7.04883C39.3066 7.66602 38.8477 8.14453 38.2539 8.48438C37.6602 8.82422 36.9902 8.99609 36.2441 9H33.6016ZM35.3594 1.89258V7.58789H36.209C36.8965 7.58789 37.4219 7.36328 37.7852 6.91406C38.1484 6.46484 38.334 5.82227 38.3418 4.98633V4.53516C38.3418 3.66797 38.1621 3.01172 37.8027 2.56641C37.4434 2.11719 36.918 1.89258 36.2266 1.89258H35.3594ZM46.5508 6.90234C46.5508 6.42969 46.3848 6.05664 46.0527 5.7832C45.7207 5.50586 45.1133 5.24414 44.2305 4.99805C43.3477 4.74805 42.7031 4.47656 42.2969 4.18359C41.7188 3.76953 41.4297 3.22656 41.4297 2.55469C41.4297 1.90234 41.6973 1.37305 42.2324 0.966797C42.7715 0.556641 43.459 0.351562 44.2949 0.351562C44.8613 0.351562 45.3672 0.460938 45.8125 0.679688C46.2617 0.898437 46.6094 1.20312 46.8555 1.59375C47.1016 1.98438 47.2246 2.41992 47.2246 2.90039H46.498C46.498 2.31836 46.2988 1.85156 45.9004 1.5C45.502 1.14453 44.9668 0.966797 44.2949 0.966797C43.6426 0.966797 43.123 1.11328 42.7363 1.40625C42.3496 1.69531 42.1562 2.07422 42.1562 2.54297C42.1562 2.97656 42.3301 3.33008 42.6777 3.60352C43.0254 3.87695 43.582 4.11914 44.3477 4.33008C45.1133 4.53711 45.6934 4.75391 46.0879 4.98047C46.4824 5.20312 46.7793 5.4707 46.9785 5.7832C47.1777 6.0957 47.2773 6.46484 47.2773 6.89062C47.2773 7.5625 47.0078 8.10156 46.4688 8.50781C45.9336 8.91406 45.2266 9.11719 44.3477 9.11719C43.7461 9.11719 43.1934 9.00977 42.6895 8.79492C42.1895 8.58008 41.8086 8.2793 41.5469 7.89258C41.2891 7.50586 41.1602 7.0625 41.1602 6.5625H41.8809C41.8809 7.16406 42.1055 7.63867 42.5547 7.98633C43.0039 8.33398 43.6016 8.50781 44.3477 8.50781C45.0117 8.50781 45.5449 8.36133 45.9473 8.06836C46.3496 7.77539 46.5508 7.38672 46.5508 6.90234ZM54.625 1.08398H51.7012V9H50.9805V1.08398H48.0625V0.46875H54.625V1.08398ZM61.8848 0.46875V6.29297C61.8809 6.86719 61.7539 7.36719 61.5039 7.79297C61.2539 8.21875 60.9004 8.54688 60.4434 8.77734C59.9902 9.00391 59.4688 9.11719 58.8789 9.11719C57.9805 9.11719 57.2598 8.87305 56.7168 8.38477C56.1777 7.89258 55.8984 7.21289 55.8789 6.3457V0.46875H56.5938V6.24023C56.5938 6.95898 56.7988 7.51758 57.209 7.91602C57.6191 8.31055 58.1758 8.50781 58.8789 8.50781C59.582 8.50781 60.1367 8.30859 60.543 7.91016C60.9531 7.51172 61.1582 6.95703 61.1582 6.24609V0.46875H61.8848ZM63.8945 9V0.46875H66.2793C66.9785 0.46875 67.6055 0.628906 68.1602 0.949219C68.7148 1.26562 69.1465 1.7207 69.4551 2.31445C69.7676 2.9082 69.9238 3.58398 69.9238 4.3418V5.12695C69.9238 5.88867 69.7695 6.56445 69.4609 7.1543C69.1523 7.74414 68.7168 8.19922 68.1543 8.51953C67.5957 8.83984 66.9531 9 66.2266 9H63.8945ZM64.6152 1.08398V8.39062H66.2324C67.1309 8.39062 67.8516 8.09375 68.3945 7.5C68.9375 6.90234 69.209 6.0957 69.209 5.08008V4.33008C69.209 3.34961 68.9414 2.56445 68.4062 1.97461C67.8711 1.38477 67.166 1.08789 66.291 1.08398H64.6152ZM72.6367 9H71.916V0.46875H72.6367V9ZM81.2617 5.19727C81.2617 5.98242 81.125 6.67188 80.8516 7.26562C80.582 7.85938 80.1953 8.31641 79.6914 8.63672C79.1875 8.95703 78.6055 9.11719 77.9453 9.11719C76.9492 9.11719 76.1445 8.76172 75.5312 8.05078C74.918 7.33594 74.6113 6.37305 74.6113 5.16211V4.2832C74.6113 3.50586 74.748 2.81836 75.0215 2.2207C75.2988 1.61914 75.6895 1.1582 76.1934 0.837891C76.6973 0.513672 77.2773 0.351562 77.9336 0.351562C78.5898 0.351562 79.168 0.509766 79.668 0.826172C80.1719 1.14258 80.5605 1.58984 80.834 2.16797C81.1074 2.74609 81.25 3.41602 81.2617 4.17773V5.19727ZM80.541 4.27148C80.541 3.24414 80.3086 2.43945 79.8438 1.85742C79.3789 1.27539 78.7422 0.984375 77.9336 0.984375C77.1406 0.984375 76.5078 1.27734 76.0352 1.86328C75.5664 2.44531 75.332 3.25977 75.332 4.30664V5.19727C75.332 6.20898 75.5664 7.01172 76.0352 7.60547C76.5039 8.19531 77.1406 8.49023 77.9453 8.49023C78.7617 8.49023 79.3984 8.19922 79.8555 7.61719C80.3125 7.03125 80.541 6.2168 80.541 5.17383V4.27148ZM3.36719 22.5254C3.85547 22.5254 4.26367 22.3887 4.5918 22.1152C4.92383 21.8379 5.10352 21.4805 5.13086 21.043H5.80469C5.78516 21.4297 5.66406 21.7832 5.44141 22.1035C5.21875 22.4199 4.92188 22.668 4.55078 22.8477C4.18359 23.0273 3.78906 23.1172 3.36719 23.1172C2.53516 23.1172 1.875 22.8281 1.38672 22.25C0.902344 21.6719 0.660156 20.8945 0.660156 19.918V19.707C0.660156 19.082 0.769531 18.5293 0.988281 18.0488C1.20703 17.5684 1.51953 17.1973 1.92578 16.9355C2.33594 16.6738 2.81445 16.543 3.36133 16.543C4.05664 16.543 4.62891 16.75 5.07812 17.1641C5.53125 17.5781 5.77344 18.123 5.80469 18.7988H5.13086C5.09961 18.3027 4.91992 17.9023 4.5918 17.5977C4.26758 17.293 3.85742 17.1406 3.36133 17.1406C2.72852 17.1406 2.23633 17.3691 1.88477 17.8262C1.53711 18.2832 1.36328 18.9238 1.36328 19.748V19.9531C1.36328 20.7617 1.53711 21.3926 1.88477 21.8457C2.23633 22.2988 2.73047 22.5254 3.36719 22.5254ZM10.1406 17.2578C9.99219 17.2305 9.83398 17.2168 9.66602 17.2168C9.22852 17.2168 8.85742 17.3398 8.55273 17.5859C8.25195 17.8281 8.03711 18.1816 7.9082 18.6465V23H7.21094V16.6602H7.89648L7.9082 17.668C8.2793 16.918 8.875 16.543 9.69531 16.543C9.89062 16.543 10.0449 16.5684 10.1582 16.6191L10.1406 17.2578ZM13.5918 23.1172C13.0527 23.1172 12.5645 22.9844 12.127 22.7188C11.6934 22.4531 11.3555 22.084 11.1133 21.6113C10.8711 21.1348 10.75 20.6016 10.75 20.0117V19.7598C10.75 19.1504 10.8672 18.6016 11.1016 18.1133C11.3398 17.625 11.6699 17.2422 12.0918 16.9648C12.5137 16.6836 12.9707 16.543 13.4629 16.543C14.2324 16.543 14.8418 16.8066 15.291 17.334C15.7441 17.8574 15.9707 18.5742 15.9707 19.4844V19.877H11.4473V20.0117C11.4473 20.7305 11.6523 21.3301 12.0625 21.8105C12.4766 22.2871 12.9961 22.5254 13.6211 22.5254C13.9961 22.5254 14.3262 22.457 14.6113 22.3203C14.9004 22.1836 15.1621 21.9648 15.3965 21.6641L15.8359 21.998C15.3203 22.7441 14.5723 23.1172 13.5918 23.1172ZM13.4629 17.1406C12.9355 17.1406 12.4902 17.334 12.127 17.7207C11.7676 18.1074 11.5488 18.627 11.4707 19.2793H15.2734V19.2031C15.2539 18.5938 15.0801 18.0977 14.752 17.7148C14.4238 17.332 13.9941 17.1406 13.4629 17.1406ZM21.3379 23C21.2676 22.8008 21.2227 22.5059 21.2031 22.1152C20.957 22.4355 20.6426 22.6836 20.2598 22.8594C19.8809 23.0312 19.4785 23.1172 19.0527 23.1172C18.4434 23.1172 17.9492 22.9473 17.5703 22.6074C17.1953 22.2676 17.0078 21.8379 17.0078 21.3184C17.0078 20.7012 17.2637 20.2129 17.7754 19.8535C18.291 19.4941 19.0078 19.3145 19.9258 19.3145H21.1973V18.5938C21.1973 18.1406 21.0566 17.7852 20.7754 17.5273C20.498 17.2656 20.0918 17.1348 19.5566 17.1348C19.0684 17.1348 18.6641 17.2598 18.3438 17.5098C18.0234 17.7598 17.8633 18.0605 17.8633 18.4121L17.1602 18.4062C17.1602 17.9023 17.3945 17.4668 17.8633 17.0996C18.332 16.7285 18.9082 16.543 19.5918 16.543C20.2988 16.543 20.8555 16.7207 21.2617 17.0762C21.6719 17.4277 21.8828 17.9199 21.8945 18.5527V21.5527C21.8945 22.166 21.959 22.625 22.0879 22.9297V23H21.3379ZM19.1348 22.4961C19.6035 22.4961 20.0215 22.3828 20.3887 22.1562C20.7598 21.9297 21.0293 21.627 21.1973 21.248V19.8535H19.9434C19.2441 19.8613 18.6973 19.9902 18.3027 20.2402C17.9082 20.4863 17.7109 20.8262 17.7109 21.2598C17.7109 21.6152 17.8418 21.9102 18.1035 22.1445C18.3691 22.3789 18.7129 22.4961 19.1348 22.4961ZM24.8594 15.0371V16.6602H26.1719V17.2344H24.8594V21.459C24.8594 21.8105 24.9219 22.0723 25.0469 22.2441C25.1758 22.416 25.3887 22.502 25.6855 22.502C25.8027 22.502 25.9922 22.4824 26.2539 22.4434L26.2832 23.0176C26.0996 23.084 25.8496 23.1172 25.5332 23.1172C25.0527 23.1172 24.7031 22.9785 24.4844 22.7012C24.2656 22.4199 24.1562 22.0078 24.1562 21.4648V17.2344H22.9902V16.6602H24.1562V15.0371H24.8594ZM28.4102 23H27.707V16.6602H28.4102V23ZM27.584 14.8262C27.584 14.6934 27.627 14.582 27.7129 14.4922C27.7988 14.3984 27.916 14.3516 28.0645 14.3516C28.2129 14.3516 28.3301 14.3984 28.416 14.4922C28.5059 14.582 28.5508 14.6934 28.5508 14.8262C28.5508 14.959 28.5059 15.0703 28.416 15.1602C28.3301 15.25 28.2129 15.2949 28.0645 15.2949C27.916 15.2949 27.7988 15.25 27.7129 15.1602C27.627 15.0703 27.584 14.959 27.584 14.8262ZM32.2949 22.0332L34.2227 16.6602H34.9434L32.5762 23H32.0078L29.6289 16.6602H30.3496L32.2949 22.0332ZM38.4707 23.1172C37.9316 23.1172 37.4434 22.9844 37.0059 22.7188C36.5723 22.4531 36.2344 22.084 35.9922 21.6113C35.75 21.1348 35.6289 20.6016 35.6289 20.0117V19.7598C35.6289 19.1504 35.7461 18.6016 35.9805 18.1133C36.2188 17.625 36.5488 17.2422 36.9707 16.9648C37.3926 16.6836 37.8496 16.543 38.3418 16.543C39.1113 16.543 39.7207 16.8066 40.1699 17.334C40.623 17.8574 40.8496 18.5742 40.8496 19.4844V19.877H36.3262V20.0117C36.3262 20.7305 36.5312 21.3301 36.9414 21.8105C37.3555 22.2871 37.875 22.5254 38.5 22.5254C38.875 22.5254 39.2051 22.457 39.4902 22.3203C39.7793 22.1836 40.041 21.9648 40.2754 21.6641L40.7148 21.998C40.1992 22.7441 39.4512 23.1172 38.4707 23.1172ZM38.3418 17.1406C37.8145 17.1406 37.3691 17.334 37.0059 17.7207C36.6465 18.1074 36.4277 18.627 36.3496 19.2793H40.1523V19.2031C40.1328 18.5938 39.959 18.0977 39.6309 17.7148C39.3027 17.332 38.873 17.1406 38.3418 17.1406ZM49.1348 23C49.0645 22.8008 49.0195 22.5059 49 22.1152C48.7539 22.4355 48.4395 22.6836 48.0566 22.8594C47.6777 23.0312 47.2754 23.1172 46.8496 23.1172C46.2402 23.1172 45.7461 22.9473 45.3672 22.6074C44.9922 22.2676 44.8047 21.8379 44.8047 21.3184C44.8047 20.7012 45.0605 20.2129 45.5723 19.8535C46.0879 19.4941 46.8047 19.3145 47.7227 19.3145H48.9941V18.5938C48.9941 18.1406 48.8535 17.7852 48.5723 17.5273C48.2949 17.2656 47.8887 17.1348 47.3535 17.1348C46.8652 17.1348 46.4609 17.2598 46.1406 17.5098C45.8203 17.7598 45.6602 18.0605 45.6602 18.4121L44.957 18.4062C44.957 17.9023 45.1914 17.4668 45.6602 17.0996C46.1289 16.7285 46.7051 16.543 47.3887 16.543C48.0957 16.543 48.6523 16.7207 49.0586 17.0762C49.4688 17.4277 49.6797 17.9199 49.6914 18.5527V21.5527C49.6914 22.166 49.7559 22.625 49.8848 22.9297V23H49.1348ZM46.9316 22.4961C47.4004 22.4961 47.8184 22.3828 48.1855 22.1562C48.5566 21.9297 48.8262 21.627 48.9941 21.248V19.8535H47.7402C47.041 19.8613 46.4941 19.9902 46.0996 20.2402C45.7051 20.4863 45.5078 20.8262 45.5078 21.2598C45.5078 21.6152 45.6387 21.9102 45.9004 22.1445C46.166 22.3789 46.5098 22.4961 46.9316 22.4961ZM51.2852 19.7715C51.2852 18.7793 51.5039 17.9941 51.9414 17.416C52.3828 16.834 52.9805 16.543 53.7344 16.543C54.5977 16.543 55.2539 16.8867 55.7031 17.5742L55.7383 16.6602H56.3945V22.8711C56.3945 23.6875 56.166 24.334 55.709 24.8105C55.252 25.2871 54.6328 25.5254 53.8516 25.5254C53.4102 25.5254 52.9883 25.4258 52.5859 25.2266C52.1875 25.0312 51.873 24.7695 51.6426 24.4414L52.0352 24.0195C52.5312 24.6289 53.1211 24.9336 53.8047 24.9336C54.3906 24.9336 54.8477 24.7598 55.1758 24.4121C55.5039 24.0684 55.6738 23.5898 55.6855 22.9766V22.1797C55.2363 22.8047 54.582 23.1172 53.7227 23.1172C52.9883 23.1172 52.3984 22.8242 51.9531 22.2383C51.5078 21.6523 51.2852 20.8613 51.2852 19.8652V19.7715ZM51.9941 19.8945C51.9941 20.7031 52.1562 21.3418 52.4805 21.8105C52.8047 22.2754 53.2617 22.5078 53.8516 22.5078C54.7148 22.5078 55.3262 22.1211 55.6855 21.3477V18.4004C55.5215 17.9941 55.2852 17.6855 54.9766 17.4746C54.668 17.2598 54.2969 17.1523 53.8633 17.1523C53.2734 17.1523 52.8145 17.3848 52.4863 17.8496C52.1582 18.3105 51.9941 18.9922 51.9941 19.8945ZM60.6777 23.1172C60.1387 23.1172 59.6504 22.9844 59.2129 22.7188C58.7793 22.4531 58.4414 22.084 58.1992 21.6113C57.957 21.1348 57.8359 20.6016 57.8359 20.0117V19.7598C57.8359 19.1504 57.9531 18.6016 58.1875 18.1133C58.4258 17.625 58.7559 17.2422 59.1777 16.9648C59.5996 16.6836 60.0566 16.543 60.5488 16.543C61.3184 16.543 61.9277 16.8066 62.377 17.334C62.8301 17.8574 63.0566 18.5742 63.0566 19.4844V19.877H58.5332V20.0117C58.5332 20.7305 58.7383 21.3301 59.1484 21.8105C59.5625 22.2871 60.082 22.5254 60.707 22.5254C61.082 22.5254 61.4121 22.457 61.6973 22.3203C61.9863 22.1836 62.248 21.9648 62.4824 21.6641L62.9219 21.998C62.4062 22.7441 61.6582 23.1172 60.6777 23.1172ZM60.5488 17.1406C60.0215 17.1406 59.5762 17.334 59.2129 17.7207C58.8535 18.1074 58.6348 18.627 58.5566 19.2793H62.3594V19.2031C62.3398 18.5938 62.166 18.0977 61.8379 17.7148C61.5098 17.332 61.0801 17.1406 60.5488 17.1406ZM65.0898 16.6602L65.1133 17.7441C65.3516 17.3535 65.6484 17.0566 66.0039 16.8535C66.3594 16.6465 66.752 16.543 67.1816 16.543C67.8613 16.543 68.3672 16.7344 68.6992 17.1172C69.0312 17.5 69.1992 18.0742 69.2031 18.8398V23H68.5059V18.834C68.502 18.2676 68.3809 17.8457 68.1426 17.5684C67.9082 17.291 67.5312 17.1523 67.0117 17.1523C66.5781 17.1523 66.1934 17.2891 65.8574 17.5625C65.5254 17.832 65.2793 18.1973 65.1191 18.6582V23H64.4219V16.6602H65.0898ZM73.3633 22.5254C73.8516 22.5254 74.2598 22.3887 74.5879 22.1152C74.9199 21.8379 75.0996 21.4805 75.127 21.043H75.8008C75.7812 21.4297 75.6602 21.7832 75.4375 22.1035C75.2148 22.4199 74.918 22.668 74.5469 22.8477C74.1797 23.0273 73.7852 23.1172 73.3633 23.1172C72.5312 23.1172 71.8711 22.8281 71.3828 22.25C70.8984 21.6719 70.6562 20.8945 70.6562 19.918V19.707C70.6562 19.082 70.7656 18.5293 70.9844 18.0488C71.2031 17.5684 71.5156 17.1973 71.9219 16.9355C72.332 16.6738 72.8105 16.543 73.3574 16.543C74.0527 16.543 74.625 16.75 75.0742 17.1641C75.5273 17.5781 75.7695 18.123 75.8008 18.7988H75.127C75.0957 18.3027 74.916 17.9023 74.5879 17.5977C74.2637 17.293 73.8535 17.1406 73.3574 17.1406C72.7246 17.1406 72.2324 17.3691 71.8809 17.8262C71.5332 18.2832 71.3594 18.9238 71.3594 19.748V19.9531C71.3594 20.7617 71.5332 21.3926 71.8809 21.8457C72.2324 22.2988 72.7266 22.5254 73.3633 22.5254ZM79.2168 21.9922L81.0684 16.6602H81.8242L79.1172 24.0781L78.9766 24.4062C78.6289 25.1758 78.0918 25.5605 77.3652 25.5605C77.1973 25.5605 77.0176 25.5332 76.8262 25.4785L76.8203 24.8984L77.1836 24.9336C77.5273 24.9336 77.8047 24.8477 78.0156 24.6758C78.2305 24.5078 78.4121 24.2168 78.5605 23.8027L78.8711 22.9473L76.4805 16.6602H77.248L79.2168 21.9922Z" fill="white"/>
</svg>
