<svg width="15" height="15" viewBox="0 0 15 15" fill="none" xmlns="http://www.w3.org/2000/svg">
<g clip-path="url(#clip0)">
<path d="M14.9963 14.9996V14.999H15V9.49777C15 6.80652 14.4207 4.7334 11.2744 4.7334C9.76192 4.7334 8.74692 5.5634 8.33254 6.35027H8.28879V4.98465H5.30566V14.999H8.41192V10.0403C8.41192 8.73465 8.65942 7.47215 10.2763 7.47215C11.8694 7.47215 11.8932 8.96215 11.8932 10.124V14.9996H14.9963Z" fill="#C6C6C6"/>
<path d="M0.248047 4.98584H3.35805V15.0002H0.248047V4.98584Z" fill="#C6C6C6"/>
<path d="M1.80125 0C0.806875 0 0 0.806875 0 1.80125C0 2.79562 0.806875 3.61937 1.80125 3.61937C2.79562 3.61937 3.6025 2.79562 3.6025 1.80125C3.60188 0.806875 2.795 0 1.80125 0V0Z" fill="#C6C6C6"/>
</g>
<defs>
<clipPath id="clip0">
<rect width="15" height="15" fill="white"/>
</clipPath>
</defs>
</svg>
