<svg xmlns="http://www.w3.org/2000/svg" viewBox="0 0 476.49 125"><defs><style>.cls-1{fill:#2b255c;}.cls-2{fill:#c00d0d;}</style></defs><g id="Layer_2" data-name="Layer 2"><g id="Layer_1-2" data-name="Layer 1"><path class="cls-1" d="M207,107.47a3.2,3.2,0,0,0,1.1-.51,2.29,2.29,0,0,0,.73-.85,2.48,2.48,0,0,0,.26-1.16,2,2,0,0,0-.17-.9,2.12,2.12,0,0,0-.45-.68,2.66,2.66,0,0,0-.66-.48l-.2-.1h0a2.22,2.22,0,0,0,.51-.46,2.33,2.33,0,0,0,.36-.66,2.3,2.3,0,0,0,.14-.87,2.19,2.19,0,0,0-.64-1.6,3,3,0,0,0-1.05-.64,4.52,4.52,0,0,0-1.43-.22h-4l0,9.32h4.17A4.89,4.89,0,0,0,207,107.47Zm.08-3.46a1,1,0,0,1,.46.88v0a1.06,1.06,0,0,1-.46.93,2.45,2.45,0,0,1-1.42.36H203v-2.53h2.49A2.9,2.9,0,0,1,207.06,104Zm0-3.06a1.07,1.07,0,0,1-.45,1,2.2,2.2,0,0,1-1.3.35H203V99.77h2.39a2,2,0,0,1,1.27.34,1,1,0,0,1,.39.82h.27Z"/><path class="cls-1" d="M214.34,98.27l-4.28,9.38h1.62l1-2.32h4.41l1,2.32h1.68l-4.21-9.38Zm2.17,5.62h-3.14l1.59-3.51Z"/><polygon class="cls-1" points="223.14 98.33 221.6 98.33 221.56 107.64 223.1 107.64 223.14 98.33"/><polygon class="cls-1" points="227.32 98.33 225.78 98.33 225.74 107.64 232.21 107.64 232.22 106.18 227.29 106.18 227.32 98.33"/><path class="cls-1" d="M238.72,98.27h-1.29l-4.28,9.38h1.63l1.05-2.32h4.4l1,2.32h1.67Zm.88,5.62h-3.13l1.59-3.51Z"/><polygon class="cls-1" points="251.02 104.83 245.94 98.33 244.61 98.33 244.57 107.64 246.09 107.64 246.11 100.98 251.33 107.64 252.53 107.64 252.57 98.33 251.05 98.33 251.02 104.83"/><polygon class="cls-1" points="257.82 107.64 259.37 107.64 259.39 103.98 263.31 98.33 261.48 98.33 258.63 102.5 255.84 98.33 253.97 98.33 257.83 103.99 257.82 107.64"/><path class="cls-1" d="M268.8,106a2,2,0,0,1-1.25.36A3.73,3.73,0,0,1,266,106a4.93,4.93,0,0,1-1.31-.88l-.21-.19-1,1.15.2.18a5.84,5.84,0,0,0,1.73,1.11,5.51,5.51,0,0,0,2,.36,4.09,4.09,0,0,0,1.28-.19,3.13,3.13,0,0,0,1-.55,2.54,2.54,0,0,0,.69-.87,2.58,2.58,0,0,0,.26-1.17,2.2,2.2,0,0,0-.78-1.79,5.35,5.35,0,0,0-2.28-1,8.28,8.28,0,0,1-1.15-.31,2.3,2.3,0,0,1-.65-.33.83.83,0,0,1-.27-.34,1.24,1.24,0,0,1-.08-.47,1,1,0,0,1,.4-.8,1.91,1.91,0,0,1,1.19-.34,3.44,3.44,0,0,1,1.2.21,4.08,4.08,0,0,1,1.15.68l.22.18.92-1.21-.21-.17a5.5,5.5,0,0,0-1.47-.85,5.12,5.12,0,0,0-1.78-.28,3.84,3.84,0,0,0-1.24.19,3.22,3.22,0,0,0-1,.55,2.64,2.64,0,0,0-.68.85,2.47,2.47,0,0,0-.24,1.1,2.66,2.66,0,0,0,.19,1,2.22,2.22,0,0,0,.61.8,3.53,3.53,0,0,0,1,.56,9,9,0,0,0,1.34.39,7.89,7.89,0,0,1,1.1.3,2,2,0,0,1,.61.32.82.82,0,0,1,.27.33,1.26,1.26,0,0,1,.08.46A1.07,1.07,0,0,1,268.8,106Z"/><polygon class="cls-1" points="275 107.64 276.54 107.64 276.57 99.8 279.53 99.8 279.53 98.33 272.08 98.33 272.08 99.8 275.03 99.8 275 107.64"/><polygon class="cls-1" points="284.92 102.5 282.13 98.33 280.25 98.33 284.12 103.99 284.11 107.64 285.66 107.64 285.68 103.98 289.59 98.33 287.77 98.33 284.92 102.5"/><polygon class="cls-1" points="297.34 96.63 295.75 95.9 294 98.14 295.47 98.14 297.34 96.63"/><polygon class="cls-1" points="297.41 104.83 292.33 98.33 290.99 98.33 290.95 107.64 292.47 107.64 292.5 100.98 297.71 107.64 298.91 107.64 298.95 98.33 297.43 98.33 297.41 104.83"/><polygon class="cls-1" points="314.13 98.33 312.06 98.33 307.4 103.15 307.42 98.33 305.88 98.33 305.84 107.64 307.38 107.64 307.39 105.13 308.97 103.54 312.2 107.64 314.15 107.64 310.05 102.46 314.13 98.33"/><polygon class="cls-1" points="322.42 106.19 317.01 106.19 317.02 103.68 321.8 103.68 321.81 102.22 317.03 102.22 317.04 99.79 322.38 99.79 322.39 98.33 315.5 98.33 315.46 107.64 322.41 107.64 322.42 106.19"/><path class="cls-1" d="M329,107.58a3.13,3.13,0,0,0,1-.55,2.66,2.66,0,0,0,.69-.87A2.58,2.58,0,0,0,331,105a2.2,2.2,0,0,0-.79-1.79,5.3,5.3,0,0,0-2.27-1,8.28,8.28,0,0,1-1.15-.31,2.3,2.3,0,0,1-.65-.33.86.86,0,0,1-.28-.34,1.26,1.26,0,0,1-.07-.47,1,1,0,0,1,.4-.8,1.89,1.89,0,0,1,1.19-.34,3.44,3.44,0,0,1,1.2.21,4.08,4.08,0,0,1,1.15.68l.22.18.92-1.21-.22-.17a5.44,5.44,0,0,0-1.46-.85,5.12,5.12,0,0,0-1.78-.28,3.79,3.79,0,0,0-1.24.19,3.22,3.22,0,0,0-1,.55,2.51,2.51,0,0,0-.68.85,2.47,2.47,0,0,0-.25,1.1,2.66,2.66,0,0,0,.2,1,2.22,2.22,0,0,0,.61.8,3.39,3.39,0,0,0,1,.56,8.67,8.67,0,0,0,1.34.39,8.76,8.76,0,0,1,1.1.3,2.14,2.14,0,0,1,.61.32.82.82,0,0,1,.27.33,1.27,1.27,0,0,1,.07.46,1,1,0,0,1-.43.86,2,2,0,0,1-1.25.36,3.68,3.68,0,0,1-1.5-.29,4.93,4.93,0,0,1-1.31-.88l-.21-.19-1,1.15.2.18a5.88,5.88,0,0,0,1.74,1.11,5.5,5.5,0,0,0,2,.36A4.15,4.15,0,0,0,329,107.58Z"/><polygon class="cls-1" points="339.15 107.64 340.69 107.64 340.73 98.33 339.19 98.33 339.17 102.22 334.67 102.22 334.69 98.33 333.14 98.33 333.1 107.64 334.65 107.64 334.66 103.7 339.16 103.7 339.15 107.64"/><polygon class="cls-1" points="350.19 106.19 344.79 106.19 344.8 103.68 349.58 103.68 349.58 102.22 344.8 102.22 344.81 99.79 350.16 99.79 350.16 98.33 343.28 98.33 343.24 107.64 350.19 107.64 350.19 106.19"/><polygon class="cls-1" points="353.79 100.98 359.01 107.64 360.21 107.64 360.25 98.33 358.73 98.33 358.7 104.83 353.62 98.33 352.29 98.33 352.25 107.64 353.76 107.64 353.79 100.98"/><path class="cls-1" d="M370.66,104.82A4.84,4.84,0,0,0,371,103a4.6,4.6,0,0,0-.36-1.83,4.33,4.33,0,0,0-1-1.48,4.92,4.92,0,0,0-1.57-1,5.49,5.49,0,0,0-2-.35H362.8l0,9.32h3.32a5.32,5.32,0,0,0,2-.36,4.92,4.92,0,0,0,1.57-1A4.42,4.42,0,0,0,370.66,104.82Zm-4.58,1.36h-1.77l0-6.38h1.78a3.71,3.71,0,0,1,1.4.25,2.89,2.89,0,0,1,1,.68,2.82,2.82,0,0,1,.66,1,3.32,3.32,0,0,1,.24,1.28,3.49,3.49,0,0,1-.25,1.26,3,3,0,0,1-.66,1,3.08,3.08,0,0,1-1.06.66A3.68,3.68,0,0,1,366.08,106.18Z"/><polygon class="cls-1" points="374.84 98.33 373.3 98.33 373.26 107.64 374.8 107.64 374.84 98.33"/><path class="cls-1" d="M385.31,102.24a8.28,8.28,0,0,1-1.15-.31,2.3,2.3,0,0,1-.65-.33.83.83,0,0,1-.27-.34,1.07,1.07,0,0,1-.08-.47,1,1,0,0,1,.4-.8,1.91,1.91,0,0,1,1.19-.34,3.44,3.44,0,0,1,1.2.21,4.08,4.08,0,0,1,1.15.68l.22.18.92-1.21-.21-.17a5.5,5.5,0,0,0-1.47-.85,5.12,5.12,0,0,0-1.78-.28,3.84,3.84,0,0,0-1.24.19,3.22,3.22,0,0,0-1,.55,2.64,2.64,0,0,0-.68.85,2.8,2.8,0,0,0-.05,2.15,2.22,2.22,0,0,0,.61.8,3.53,3.53,0,0,0,1,.56,8.67,8.67,0,0,0,1.34.39,7.89,7.89,0,0,1,1.1.3,2,2,0,0,1,.61.32.82.82,0,0,1,.27.33,1.26,1.26,0,0,1,.08.46,1.07,1.07,0,0,1-.43.86,2,2,0,0,1-1.25.36,3.73,3.73,0,0,1-1.51-.29,4.93,4.93,0,0,1-1.31-.88l-.21-.19-1,1.15.2.18a5.84,5.84,0,0,0,1.73,1.11,5.5,5.5,0,0,0,2,.36,4.11,4.11,0,0,0,1.29-.19,3.13,3.13,0,0,0,1-.55,2.54,2.54,0,0,0,.69-.87,2.58,2.58,0,0,0,.26-1.17,2.2,2.2,0,0,0-.78-1.79A5.4,5.4,0,0,0,385.31,102.24Z"/><polygon class="cls-1" points="396.49 107.64 398.03 107.64 398.07 98.33 396.53 98.33 396.51 102.22 392.01 102.22 392.03 98.33 390.49 98.33 390.45 107.64 391.99 107.64 392 103.7 396.51 103.7 396.49 107.64"/><polygon class="cls-1" points="407.54 106.19 402.13 106.19 402.14 103.68 406.92 103.68 406.93 102.22 402.15 102.22 402.16 99.79 407.5 99.79 407.5 98.33 400.62 98.33 400.58 107.64 407.53 107.64 407.54 106.19"/><path class="cls-1" d="M414.16,106a2,2,0,0,1-1.25.36,3.68,3.68,0,0,1-1.5-.29,4.93,4.93,0,0,1-1.31-.88l-.21-.19-1,1.15.2.18a5.88,5.88,0,0,0,1.74,1.11,5.5,5.5,0,0,0,2,.36,4.15,4.15,0,0,0,1.29-.19,3.13,3.13,0,0,0,1-.55,2.66,2.66,0,0,0,.69-.87,2.58,2.58,0,0,0,.26-1.17,2.2,2.2,0,0,0-.79-1.79,5.3,5.3,0,0,0-2.27-1,8.28,8.28,0,0,1-1.15-.31,2.3,2.3,0,0,1-.65-.33.86.86,0,0,1-.28-.34,1.26,1.26,0,0,1-.07-.47,1,1,0,0,1,.4-.8,1.89,1.89,0,0,1,1.19-.34,3.44,3.44,0,0,1,1.2.21,4.08,4.08,0,0,1,1.15.68l.22.18.92-1.21-.22-.17a5.44,5.44,0,0,0-1.46-.85,5.12,5.12,0,0,0-1.78-.28,3.79,3.79,0,0,0-1.24.19,3.22,3.22,0,0,0-1,.55,2.51,2.51,0,0,0-.68.85,2.47,2.47,0,0,0-.25,1.1,2.66,2.66,0,0,0,.2,1,2.22,2.22,0,0,0,.61.8,3.39,3.39,0,0,0,1,.56,8.67,8.67,0,0,0,1.34.39,8.76,8.76,0,0,1,1.1.3,2.14,2.14,0,0,1,.61.32.82.82,0,0,1,.27.33,1.27,1.27,0,0,1,.07.46A1,1,0,0,1,414.16,106Z"/><polygon class="cls-1" points="419.78 103.7 424.28 103.7 424.27 107.64 425.81 107.64 425.85 98.33 424.31 98.33 424.29 102.22 419.79 102.22 419.8 98.33 418.26 98.33 418.22 107.64 419.76 107.64 419.78 103.7"/><polygon class="cls-1" points="428.45 107.64 429.99 107.64 430.03 98.33 428.49 98.33 428.45 107.64"/><polygon class="cls-1" points="473.26 107.64 474.8 107.64 474.84 98.33 473.3 98.33 473.26 107.64"/><polygon class="cls-1" points="437.11 102.89 434.09 98.33 432.66 98.33 432.63 107.64 434.14 107.64 434.17 101.18 436.84 105.12 436.97 105.24 437.26 105.24 440.05 101.17 440.02 107.64 441.56 107.64 441.6 98.33 440.17 98.33 437.11 102.89"/><path class="cls-1" d="M451,99.66a4.87,4.87,0,0,0-1.56-1,5.53,5.53,0,0,0-2-.35h-3.32l0,9.32h3.32a5.38,5.38,0,0,0,2-.36,4.87,4.87,0,0,0,1.56-1,4.29,4.29,0,0,0,1-1.49,4.66,4.66,0,0,0,.37-1.85,4.77,4.77,0,0,0-.35-1.83A4.36,4.36,0,0,0,451,99.66Zm-3.58,6.52h-1.77l0-6.38h1.77a3.71,3.71,0,0,1,1.4.25,3,3,0,0,1,1.05.68,3.11,3.11,0,0,1,.66,1,3.51,3.51,0,0,1,.23,1.28,3.29,3.29,0,0,1-.24,1.26,3,3,0,0,1-.67,1,3.13,3.13,0,0,1-1.05.66A3.73,3.73,0,0,1,447.43,106.18Z"/><polygon class="cls-1" points="456.08 103.68 460.86 103.68 460.87 102.22 456.09 102.22 456.1 99.79 461.44 99.79 461.44 98.33 454.56 98.33 454.52 107.64 461.47 107.64 461.48 106.19 456.07 106.19 456.08 103.68"/><path class="cls-1" d="M468.86,104a6,6,0,0,0,.59-.22,3.16,3.16,0,0,0,.83-.58,2.57,2.57,0,0,0,.56-.85,2.89,2.89,0,0,0,.2-1.11,2.81,2.81,0,0,0-.19-1.06,2.51,2.51,0,0,0-.56-.86,3.12,3.12,0,0,0-1.14-.71,4.6,4.6,0,0,0-1.54-.25h-4l0,9.32h1.54l0-3.41h2.08l2.53,3.41h1.91ZM465.1,99.8h2.43a2.35,2.35,0,0,1,1.48.4,1.26,1.26,0,0,1,.48,1.07,1.39,1.39,0,0,1-.14.63,1.31,1.31,0,0,1-.4.47,1.87,1.87,0,0,1-.63.32,2.94,2.94,0,0,1-.81.11h-2.42Z"/><polygon class="cls-1" points="209.65 115.54 207.58 115.54 202.93 120.36 202.95 115.54 201.41 115.54 201.37 124.85 202.91 124.85 202.92 122.33 204.49 120.75 207.73 124.85 209.68 124.85 205.58 119.66 209.65 115.54"/><path class="cls-1" d="M218.22,116.82a4.67,4.67,0,0,0-1.49-1,5.07,5.07,0,0,0-3.88,0,4.7,4.7,0,0,0-2.48,2.58,5,5,0,0,0-.35,1.86,5.1,5.1,0,0,0,.33,1.82,4.66,4.66,0,0,0,1,1.53,4.49,4.49,0,0,0,1.49,1,4.69,4.69,0,0,0,1.93.39,4.78,4.78,0,0,0,2-.39,4.88,4.88,0,0,0,1.5-1,4.76,4.76,0,0,0,1-1.54,5,5,0,0,0,.35-1.85,5.06,5.06,0,0,0-.33-1.82A4.66,4.66,0,0,0,218.22,116.82Zm-3.45,0a2.91,2.91,0,0,1,1.26.27,3,3,0,0,1,1,.71,3.28,3.28,0,0,1,.66,1.06,3.75,3.75,0,0,1,.23,1.33,3.49,3.49,0,0,1-.24,1.3,3.34,3.34,0,0,1-.66,1,3,3,0,0,1-1,.7,3.18,3.18,0,0,1-2.53,0,3.34,3.34,0,0,1-1-.71,3.39,3.39,0,0,1-.66-1.06,3.75,3.75,0,0,1-.23-1.33,3.46,3.46,0,0,1,.24-1.3,3.34,3.34,0,0,1,.66-1.05,3,3,0,0,1,1-.71A3.1,3.1,0,0,1,214.77,116.85Z"/><polygon class="cls-1" points="226.14 120.09 223.11 115.54 221.69 115.54 221.65 124.85 223.17 124.85 223.19 118.39 225.86 122.33 226 122.45 226.29 122.45 229.07 118.38 229.04 124.85 230.59 124.85 230.63 115.54 229.2 115.54 226.14 120.09"/><polygon class="cls-1" points="233.14 124.85 234.68 124.85 234.71 117 239.2 117 239.17 124.85 240.71 124.85 240.75 115.54 233.18 115.54 233.14 124.85"/><polygon class="cls-1" points="246.53 115.47 242.36 124.85 244.03 124.85 247.13 117.76 250.19 124.85 251.89 124.85 247.78 115.47 246.53 115.47"/><polygon class="cls-1" points="255.09 120.88 259.87 120.88 259.88 119.43 255.1 119.43 255.11 116.99 260.45 116.99 260.46 115.54 253.57 115.54 253.53 124.85 260.48 124.85 260.49 123.39 255.08 123.39 255.09 120.88"/><polygon class="cls-1" points="270.87 115.54 268.81 115.54 265.13 119.38 264.11 119.38 264.12 115.54 262.58 115.54 262.54 124.85 264.08 124.85 264.1 120.82 265.17 120.82 268.93 124.85 271 124.85 266.47 120.03 270.87 115.54"/><path class="cls-1" d="M278.51,122.35a5.3,5.3,0,0,1-1.21.88,3.12,3.12,0,0,1-1.43.3,3,3,0,0,1-1.23-.25,3.16,3.16,0,0,1-1-.71,3.28,3.28,0,0,1-.66-1.06,3.76,3.76,0,0,1-.23-1.34,3.72,3.72,0,0,1,.25-1.31,3.23,3.23,0,0,1,.66-1,2.88,2.88,0,0,1,1-.7,3,3,0,0,1,1.23-.26,3.1,3.1,0,0,1,1.42.31,5.21,5.21,0,0,1,1.14.82l.2.19,1.06-1.13-.2-.19a7.8,7.8,0,0,0-.7-.59,4.63,4.63,0,0,0-.81-.47,5,5,0,0,0-.95-.3,5.69,5.69,0,0,0-1.14-.1,4.53,4.53,0,0,0-1.89.38,4.66,4.66,0,0,0-1.5,1,5.12,5.12,0,0,0-1,1.54,5.24,5.24,0,0,0-.36,1.88,5,5,0,0,0,.35,1.86,4.54,4.54,0,0,0,2.44,2.55,4.75,4.75,0,0,0,1.86.37,5.08,5.08,0,0,0,1.15-.12,4.58,4.58,0,0,0,1.82-.84,6.59,6.59,0,0,0,.74-.66l.19-.2-1-1Z"/><polygon class="cls-1" points="287.54 119.43 283.04 119.43 283.05 115.54 281.51 115.54 281.47 124.85 283.01 124.85 283.03 120.91 287.53 120.91 287.51 124.85 289.06 124.85 289.1 115.54 287.55 115.54 287.54 119.43"/><polygon class="cls-1" points="299.85 124.85 301.39 124.85 301.43 115.54 299.89 115.54 299.85 124.85"/><path class="cls-1" d="M297.72,119.47a3.22,3.22,0,0,0-1.14-.57,4.87,4.87,0,0,0-1.42-.2h-2l0-3.16h-1.54l0,9.31H295a5.17,5.17,0,0,0,1.44-.2,3.44,3.44,0,0,0,1.18-.59,2.73,2.73,0,0,0,.81-1,3,3,0,0,0,.3-1.37,3,3,0,0,0-.26-1.28A2.61,2.61,0,0,0,297.72,119.47ZM295,123.38h-1.89l0-3.22h1.95a2.52,2.52,0,0,1,1.53.42,1.34,1.34,0,0,1,.52,1.19,1.53,1.53,0,0,1-.14.66,1.44,1.44,0,0,1-.42.5,2.21,2.21,0,0,1-.67.33A3.16,3.16,0,0,1,295,123.38Z"/><polygon class="cls-1" points="305.5 120.88 310.28 120.88 310.29 119.43 305.51 119.43 305.52 116.99 310.86 116.99 310.87 115.54 303.98 115.54 303.94 124.85 310.89 124.85 310.9 123.39 305.49 123.39 305.5 120.88"/><path class="cls-1" d="M323.48,116.34a3.48,3.48,0,0,0-1.13-.6,4.94,4.94,0,0,0-1.43-.2h-3.55l0,9.31h1.54l0-3.09h1.85a5.32,5.32,0,0,0,1.4-.19,3.59,3.59,0,0,0,1.19-.59,3.05,3.05,0,0,0,.83-1,3,3,0,0,0,.31-1.4,3.28,3.28,0,0,0-.25-1.28A2.79,2.79,0,0,0,323.48,116.34Zm-2.7,4h-1.89l0-3.3h1.93a2.52,2.52,0,0,1,1.54.43,1.4,1.4,0,0,1,.53,1.22,1.57,1.57,0,0,1-.14.67,1.48,1.48,0,0,1-.42.51,1.94,1.94,0,0,1-.67.35A3.16,3.16,0,0,1,320.78,120.3Z"/><polygon class="cls-1" points="327.87 120.88 332.65 120.88 332.66 119.43 327.88 119.43 327.89 116.99 333.23 116.99 333.24 115.54 326.35 115.54 326.31 124.85 333.26 124.85 333.27 123.39 327.86 123.39 327.87 120.88"/><polygon class="cls-1" points="345.63 123.38 342.03 123.38 342.06 115.54 340.51 115.54 340.47 123.38 336.87 123.38 336.9 115.54 335.36 115.54 335.32 124.85 347.18 124.85 347.21 115.54 345.66 115.54 345.63 123.38"/><polygon class="cls-1" points="351.27 120.88 356.05 120.88 356.06 119.43 351.28 119.43 351.29 116.99 356.63 116.99 356.64 115.54 349.75 115.54 349.71 124.85 356.66 124.85 356.67 123.39 351.26 123.39 351.27 120.88"/><polygon class="cls-1" points="364.79 119.43 360.29 119.43 360.3 115.54 358.76 115.54 358.72 124.85 360.26 124.85 360.28 120.91 364.78 120.91 364.76 124.85 366.31 124.85 366.35 115.54 364.8 115.54 364.79 119.43"/><polygon class="cls-1" points="370.41 122.06 370.44 115.54 368.9 115.54 368.86 124.85 370.08 124.85 375.3 118.16 375.28 124.85 376.82 124.85 376.86 115.54 375.5 115.54 370.41 122.06"/><path class="cls-1" d="M381.17,115.73a3.34,3.34,0,0,0-1.13.57,2.8,2.8,0,0,0-.75.93,2.86,2.86,0,0,0-.26,1.24,2.9,2.9,0,0,0,.2,1.09,2.57,2.57,0,0,0,.56.85,3.1,3.1,0,0,0,.85.6,3.43,3.43,0,0,0,.59.22l-2.83,3.62h1.92l2.64-3.4h2v3.4h1.54l0-9.31h-3.91A5,5,0,0,0,381.17,115.73ZM385,117v3h-2.3a3.49,3.49,0,0,1-.88-.1,2.22,2.22,0,0,1-.66-.3,1.26,1.26,0,0,1-.4-.46,1.38,1.38,0,0,1-.14-.67,1.29,1.29,0,0,1,.48-1.06,2.32,2.32,0,0,1,1.47-.41Z"/><path class="cls-1" d="M400.37,122.35a5.78,5.78,0,0,1-1.21.88,3.17,3.17,0,0,1-1.43.3,2.94,2.94,0,0,1-1.23-.25,3.2,3.2,0,0,1-1-.71,3.43,3.43,0,0,1-.65-1.06,3.76,3.76,0,0,1-.23-1.34,3.51,3.51,0,0,1,.24-1.31,3.23,3.23,0,0,1,.66-1,3,3,0,0,1,1-.7,3.23,3.23,0,0,1,2.65,0,5.27,5.27,0,0,1,1.15.82l.2.19,1.05-1.13-.19-.19c-.23-.21-.46-.41-.7-.59a4.72,4.72,0,0,0-.82-.47,4.59,4.59,0,0,0-.95-.3,5.62,5.62,0,0,0-1.14-.1,4.59,4.59,0,0,0-1.89.38,4.59,4.59,0,0,0-2.47,2.57,4.84,4.84,0,0,0-.36,1.88,5,5,0,0,0,.34,1.86,4.81,4.81,0,0,0,1,1.53,4.66,4.66,0,0,0,1.48,1,4.71,4.71,0,0,0,1.86.37,5.14,5.14,0,0,0,1.15-.12,5,5,0,0,0,1-.33,5.17,5.17,0,0,0,.85-.51,9,9,0,0,0,.74-.66l.19-.2-1-1Z"/><path class="cls-1" d="M410.34,120.57a2.94,2.94,0,0,0-.66-.48l-.2-.1h0a2.19,2.19,0,0,0,.5-.46,2.13,2.13,0,0,0,.37-.66,2.58,2.58,0,0,0,.14-.88,2.24,2.24,0,0,0-.64-1.6,2.89,2.89,0,0,0-1.05-.63,4.25,4.25,0,0,0-1.43-.22h-4l0,9.31h4.17a5.35,5.35,0,0,0,1.37-.17,3.3,3.3,0,0,0,1.1-.52,2.26,2.26,0,0,0,.73-.84,2.54,2.54,0,0,0,.26-1.16,2.21,2.21,0,0,0-.17-.91A2.24,2.24,0,0,0,410.34,120.57Zm-5.47.3h2.49a2.93,2.93,0,0,1,1.59.35,1,1,0,0,1,.46.87v0a1.09,1.09,0,0,1-.47.93,2.39,2.39,0,0,1-1.41.36h-2.67Zm4.07-2.71a1.1,1.1,0,0,1-.45,1,2.2,2.2,0,0,1-1.3.34h-2.31V117h2.39a2,2,0,0,1,1.27.33,1,1,0,0,1,.39.82h.27Z"/><path class="cls-1" d="M414.79,115.73a3.34,3.34,0,0,0-1.13.57,2.8,2.8,0,0,0-.75.93,2.86,2.86,0,0,0-.26,1.24,2.9,2.9,0,0,0,.2,1.09,2.57,2.57,0,0,0,.56.85,3.1,3.1,0,0,0,.85.6,3.25,3.25,0,0,0,.6.22L412,124.85h1.92l2.64-3.4h2v3.4h1.54l0-9.31h-3.91A5,5,0,0,0,414.79,115.73ZM418.6,117v3h-2.3a3.49,3.49,0,0,1-.88-.1,2.22,2.22,0,0,1-.66-.3,1.26,1.26,0,0,1-.4-.46,1.38,1.38,0,0,1-.14-.67,1.29,1.29,0,0,1,.48-1.06,2.32,2.32,0,0,1,1.47-.41Z"/><path class="cls-1" d="M428,120.09a2.66,2.66,0,0,0,.73-.59,2.34,2.34,0,0,0,.52-1.51,2.32,2.32,0,0,0-1-1.9,3.23,3.23,0,0,0-1.07-.52,5.64,5.64,0,0,0-2.52-.07,4.88,4.88,0,0,0-1,.31,5.08,5.08,0,0,0-.83.46,6.38,6.38,0,0,0-.68.52L422,117l1,1.08.2-.17a5,5,0,0,1,1.18-.76,3.42,3.42,0,0,1,1.47-.3,2.27,2.27,0,0,1,1.39.37,1.13,1.13,0,0,1,.31,1.47,1.23,1.23,0,0,1-.39.43,2,2,0,0,1-.63.26,3.67,3.67,0,0,1-.84.09h-1.79v1.42h1.78a3.32,3.32,0,0,1,1.69.36,1,1,0,0,1,.52,1,1,1,0,0,1-.14.52,1.42,1.42,0,0,1-.41.44,2.43,2.43,0,0,1-.69.3,3.18,3.18,0,0,1-.91.12,3.82,3.82,0,0,1-1.5-.28,5.23,5.23,0,0,1-1.21-.72l-.21-.18-.94,1.14.21.17a5.3,5.3,0,0,0,3.64,1.31,5.12,5.12,0,0,0,1.52-.21,3.87,3.87,0,0,0,1.17-.57,2.63,2.63,0,0,0,.78-.89,2.39,2.39,0,0,0,.27-1.13,2.12,2.12,0,0,0-.62-1.56A2.7,2.7,0,0,0,428,120.09Z"/><polygon class="cls-1" points="433.08 122.06 433.11 115.54 431.57 115.54 431.53 124.85 432.76 124.85 437.98 118.16 437.95 124.85 439.49 124.85 439.53 115.54 438.18 115.54 433.08 122.06"/><path class="cls-2" d="M195.12,50.6a33.47,33.47,0,0,1,2.21-12.18,29.76,29.76,0,0,1,6.31-10,29.42,29.42,0,0,1,9.93-6.73,33.35,33.35,0,0,1,13.12-2.47,27.76,27.76,0,0,1,10.51,1.9,31.59,31.59,0,0,1,7.89,4.52l.74-4.54h14.93V80H245.83l-.8-4.48A31.84,31.84,0,0,1,237.11,80a27.52,27.52,0,0,1-10.42,1.88,33.37,33.37,0,0,1-13.06-2.47,30,30,0,0,1-10-6.71,29.38,29.38,0,0,1-6.33-9.93A33.54,33.54,0,0,1,195.12,50.6Zm17.54-.06a17.35,17.35,0,0,0,1.25,6.7,15.74,15.74,0,0,0,3.38,5.14,14.85,14.85,0,0,0,5,3.29,16.51,16.51,0,0,0,12.21,0,14.85,14.85,0,0,0,5-3.29,15.51,15.51,0,0,0,3.35-5.14,17.73,17.73,0,0,0,1.22-6.7,17,17,0,0,0-1.25-6.61,15.86,15.86,0,0,0-3.38-5.12,15,15,0,0,0-5-3.29,16.78,16.78,0,0,0-12.26,0,14.58,14.58,0,0,0-5,3.29,15.75,15.75,0,0,0-3.33,5.12A17.33,17.33,0,0,0,212.66,50.54Z"/><path class="cls-2" d="M288.3,61.61a5.57,5.57,0,0,0,2.76,4.32,11.45,11.45,0,0,0,6.39,1.65q5,0,7.21-1.31a4.08,4.08,0,0,0,2.21-3.69,2.89,2.89,0,0,0-1-2.3,9.12,9.12,0,0,0-3-1.56A37.15,37.15,0,0,0,298,57.47c-1.93-.38-4.17-.85-6.7-1.42-1.14-.23-2.39-.5-3.75-.82a28.19,28.19,0,0,1-4.06-1.31,23.29,23.29,0,0,1-3.89-2,13.8,13.8,0,0,1-5.62-7.39,18.5,18.5,0,0,1-.86-5.93,19.51,19.51,0,0,1,1.62-8.09,15.43,15.43,0,0,1,4.91-6.08,24,24,0,0,1,8.29-3.8,45.91,45.91,0,0,1,11.76-1.34,32.44,32.44,0,0,1,9.91,1.42,21.76,21.76,0,0,1,7.47,4,17.57,17.57,0,0,1,4.68,6.22,19.14,19.14,0,0,1,1.62,7.92l-17.6-.05a5.3,5.3,0,0,0-2.05-3.72,8,8,0,0,0-5.28-1.57c-2.69,0-4.68.5-6,1.48a4.11,4.11,0,0,0-1.88,3.41,2.82,2.82,0,0,0,.66,1.9,5,5,0,0,0,2,1.31,19.73,19.73,0,0,0,3.55.93c1.44.27,3.16.54,5.17.8q4.65.8,8.86,1.9a27.63,27.63,0,0,1,7.41,3.07,14.7,14.7,0,0,1,5.08,5.11,15.4,15.4,0,0,1,1.87,8,19,19,0,0,1-2.1,9.17A18,18,0,0,1,317.23,77a26.45,26.45,0,0,1-9,3.78A50.58,50.58,0,0,1,296.76,82a33.42,33.42,0,0,1-11.67-1.82,23.59,23.59,0,0,1-8-4.74,18.21,18.21,0,0,1-4.6-6.59A19.26,19.26,0,0,1,271,61.56Z"/><path class="cls-2" d="M343.21,4.88l12.61-.11V21.13h17.09v15H355.82V56.84a13.2,13.2,0,0,0,.66,4.52,7.31,7.31,0,0,0,1.75,2.84,6,6,0,0,0,2.64,1.45,13.39,13.39,0,0,0,3.3.39H374l-.11,14.37H362.46a47.39,47.39,0,0,1-9.34-.88,18.36,18.36,0,0,1-7.69-3.41,16.81,16.81,0,0,1-5.2-7.1,31.85,31.85,0,0,1-1.9-12V36.17H329V22.77l8.92-3.41Z"/><path class="cls-2" d="M382,50.6a31.23,31.23,0,0,1,2.38-12.18,30.07,30.07,0,0,1,6.73-10,32.05,32.05,0,0,1,10.34-6.73,34.38,34.38,0,0,1,13.26-2.47,35,35,0,0,1,13.37,2.47,31.85,31.85,0,0,1,10.39,6.73,30.3,30.3,0,0,1,6.76,10,30.89,30.89,0,0,1,2.41,12.18,21.11,21.11,0,0,1-.14,2.84c-.09.68-.2,1.36-.31,2H400.11a16.28,16.28,0,0,0,2.13,5,15.84,15.84,0,0,0,3.41,3.77,15.05,15.05,0,0,0,4.29,2.42,14,14,0,0,0,4.88.85A14.26,14.26,0,0,0,422,65.76a12.29,12.29,0,0,0,4.66-4.49h19a29,29,0,0,1-4,7.58,29.75,29.75,0,0,1-6.59,6.62,33.46,33.46,0,0,1-9,4.66,37,37,0,0,1-24.56-.71,31.63,31.63,0,0,1-10.34-6.73A30.88,30.88,0,0,1,382,50.6ZM414.82,34a14.41,14.41,0,0,0-8.35,2.53,15.25,15.25,0,0,0-5.5,6.78h27.71a16,16,0,0,0-2.33-3.83,15.16,15.16,0,0,0-3.21-2.95,14.33,14.33,0,0,0-3.92-1.88A15.12,15.12,0,0,0,414.82,34Z"/><path class="cls-2" d="M458.94,0h17.55V80H458.94Z"/><polygon class="cls-2" points="178.71 125 104.06 0 82.26 36.49 135.12 125 178.71 125"/><polygon class="cls-1" points="73.11 72.98 61.48 72.98 28.61 72.98 26.49 76.52 58.37 76.52 55.9 80.64 99.48 80.64 104.05 72.98 73.11 72.98"/><polygon class="cls-1" points="52.98 87.77 19.77 87.77 17.66 91.3 49.53 91.3 47.07 95.43 90.65 95.43 95.22 87.77 63.33 87.77 52.98 87.77"/><polygon class="cls-1" points="34.99 117.34 2.11 117.34 0 120.88 31.87 120.88 29.4 125 72.98 125 77.56 117.34 45.86 117.34 34.99 117.34"/><polygon class="cls-1" points="43.82 102.56 10.94 102.56 8.83 106.09 40.7 106.09 38.24 110.21 81.81 110.21 86.39 102.56 54.75 102.56 43.82 102.56"/></g></g></svg>