<svg width="30" height="20" viewBox="0 0 30 20" fill="none" xmlns="http://www.w3.org/2000/svg">
<g clip-path="url(#clip0)">
<path d="M25.162 9.4516L15.9268 0.216393C15.6211 -0.0788816 15.1339 -0.070404 14.8386 0.235332C14.5506 0.533582 14.5506 1.00639 14.8386 1.3046L23.5297 9.9957L14.8386 18.6868C14.5382 18.9873 14.5382 19.4745 14.8386 19.775C15.1392 20.0755 15.6263 20.0755 15.9268 19.775L25.162 10.5398C25.4625 10.2393 25.4625 9.75211 25.162 9.4516Z" fill="white" fill-opacity="0.8"/>
</g>
<g clip-path="url(#clip1)">
<path d="M16.8873 10.0338L9.03741 2.18387C8.77754 1.93288 8.36342 1.94009 8.11244 2.19996C7.86759 2.45348 7.86759 2.85536 8.11244 3.10884L15.4999 10.4963L8.11244 17.8837C7.85705 18.1392 7.85705 18.5533 8.11244 18.8087C8.36791 19.0641 8.78199 19.0641 9.03741 18.8087L16.8873 10.9588C17.1427 10.7033 17.1427 10.2892 16.8873 10.0338Z" fill="white" fill-opacity="0.4"/>
</g>
<g clip-path="url(#clip2)">
<path d="M9.85474 10.1435L3.85185 4.14066C3.65312 3.94873 3.33645 3.95424 3.14452 4.15297C2.95728 4.34683 2.95728 4.65416 3.14452 4.84799L8.79374 10.4972L3.14452 16.1464C2.94922 16.3418 2.94922 16.6584 3.14452 16.8538C3.33988 17.0491 3.65652 17.0491 3.85185 16.8538L9.85474 10.8509C10.05 10.6555 10.05 10.3389 9.85474 10.1435Z" fill="white" fill-opacity="0.1"/>
</g>
<defs>
<clipPath id="clip0">
<rect width="20" height="20" fill="white" transform="translate(10)"/>
</clipPath>
<clipPath id="clip1">
<rect width="17" height="17" fill="white" transform="translate(4 2)"/>
</clipPath>
<clipPath id="clip2">
<rect width="13" height="13" fill="white" transform="translate(0 4)"/>
</clipPath>
</defs>
</svg>
