<svg width="39" height="40" viewBox="0 0 39 40" fill="none" xmlns="http://www.w3.org/2000/svg">
<path d="M9.27665 16.3281H6.79688C6.48548 16.3281 6.1868 16.4521 5.96688 16.6727C5.74696 16.8932 5.62399 17.1923 5.62501 17.5038L5.64227 26.4057C5.64227 27.0529 6.16696 27.5776 6.81415 27.5776C7.46133 27.5776 7.98602 27.0529 7.98602 26.4057V23.7028C8.46516 23.7004 8.97704 23.6983 9.27665 23.6983C11.3357 23.6983 13.0109 22.0452 13.0109 20.0132C13.0109 17.9813 11.3357 16.3281 9.27665 16.3281ZM9.27665 21.3545C8.97438 21.3545 8.46063 21.3566 7.97962 21.3591C7.97712 20.8602 7.97493 20.323 7.97493 20.0132C7.97493 19.7481 7.9736 19.1934 7.97219 18.6719H9.27657C10.0303 18.6719 10.6671 19.2861 10.6671 20.0132C10.6671 20.7403 10.0304 21.3545 9.27665 21.3545Z" fill="#00236A"/>
<path d="M19.2445 16.3281H16.7969C16.4857 16.3281 16.1873 16.4519 15.9674 16.6721C15.7476 16.8923 15.6244 17.191 15.625 17.5022C15.625 17.5023 15.6424 26.1152 15.6425 26.1464C15.6437 26.4573 15.7682 26.7549 15.9888 26.9739C16.2084 27.1919 16.5052 27.3141 16.8144 27.3141H16.8188C16.8928 27.3137 18.6387 27.3071 19.3366 27.2949C21.9846 27.2487 23.9065 24.9466 23.9065 21.8211C23.9064 18.5356 22.033 16.3281 19.2445 16.3281ZM19.2957 24.9516C18.9922 24.9569 18.47 24.9612 17.9823 24.9643C17.9791 23.9464 17.9727 19.7297 17.9709 18.6719H19.2445C21.3956 18.6719 21.5627 21.0823 21.5627 21.8212C21.5627 23.3596 20.8617 24.9242 19.2957 24.9516Z" fill="#00236A"/>
<path d="M31.6299 18.5818C32.2771 18.5818 32.8018 18.0571 32.8018 17.4099C32.8018 16.7627 32.2771 16.238 31.6299 16.238H28.0469C27.3997 16.238 26.875 16.7627 26.875 17.4099V26.2504C26.875 26.8975 27.3997 27.4222 28.0469 27.4222C28.6941 27.4222 29.2187 26.8975 29.2187 26.2504V22.9183H31.3453C31.9925 22.9183 32.5172 22.3936 32.5172 21.7465C32.5172 21.0993 31.9925 20.5746 31.3453 20.5746H29.2187V18.5818H31.6299Z" fill="#00236A"/>
<path d="M35.0781 11.3281H34.2188V10.9938C34.2188 9.48742 33.648 8.05578 32.6116 6.9625L27.744 1.82805C26.6426 0.666328 25.0927 0 23.4918 0H7.89062C5.95211 0 4.375 1.57711 4.375 3.51562V11.3281H3.51562C1.57711 11.3281 0 12.9052 0 14.8438V28.9062C0 30.8448 1.57711 32.4219 3.51562 32.4219H4.375V36.4844C4.375 38.4229 5.95211 40 7.89062 40H30.7031C32.6416 40 34.2188 38.4229 34.2188 36.4844V32.4219H35.0781C37.0166 32.4219 38.5938 30.8448 38.5938 28.9062V14.8438C38.5938 12.9052 37.0166 11.3281 35.0781 11.3281ZM6.71875 3.51562C6.71875 2.86945 7.24445 2.34375 7.89062 2.34375H23.4918C24.4523 2.34375 25.3823 2.74352 26.0431 3.44063L30.9107 8.57508C31.5326 9.23102 31.875 10.09 31.875 10.9938V11.3281H6.71875V3.51562ZM31.875 36.4844C31.875 37.1305 31.3493 37.6562 30.7031 37.6562H7.89062C7.24445 37.6562 6.71875 37.1305 6.71875 36.4844V32.4219H31.875V36.4844ZM36.25 28.9062C36.25 29.5524 35.7243 30.0781 35.0781 30.0781H3.51562C2.86945 30.0781 2.34375 29.5524 2.34375 28.9062V14.8438C2.34375 14.1976 2.86945 13.6719 3.51562 13.6719H35.0781C35.7243 13.6719 36.25 14.1976 36.25 14.8438V28.9062Z" fill="#00236A"/>
</svg>
