<svg width="8" height="8" viewBox="0 0 8 8" fill="none" xmlns="http://www.w3.org/2000/svg">
<path d="M6.22222 3.68784L2.66212 0.127804C2.57978 0.045398 2.46986 0 2.35266 0C2.23546 0 2.12554 0.045398 2.0432 0.127804L1.78102 0.389915C1.61042 0.560711 1.61042 0.838302 1.78102 1.00884L4.77053 3.99834L1.77771 6.99116C1.69537 7.07357 1.6499 7.18342 1.6499 7.30056C1.6499 7.41783 1.69537 7.52768 1.77771 7.61015L2.03988 7.8722C2.12229 7.9546 2.23214 8 2.34934 8C2.46655 8 2.57646 7.9546 2.65881 7.8722L6.22222 4.30891C6.30476 4.22624 6.35009 4.11587 6.34983 3.99854C6.35009 3.88075 6.30476 3.77044 6.22222 3.68784Z" fill="#082A6E"/>
</svg>
