<svg width="49" height="48" viewBox="0 0 49 48" fill="none" xmlns="http://www.w3.org/2000/svg">
<g clip-path="url(#clip0)">
<path d="M13.1562 14.9064C13.9317 14.9064 14.5625 15.5372 14.5625 16.3126H17.375C17.375 14.4793 16.1993 12.9162 14.5625 12.3357V9.18762H11.75V12.3357C10.1132 12.9162 8.9375 14.4793 8.9375 16.3126C8.9375 18.6388 10.83 20.5314 13.1562 20.5314C13.9317 20.5314 14.5625 21.1622 14.5625 21.9376C14.5625 22.713 13.9317 23.3439 13.1562 23.3439C12.3808 23.3439 11.75 22.713 11.75 21.9376H8.9375C8.9375 23.7709 10.1132 25.334 11.75 25.9145V28.9689H14.5625V25.9145C16.1993 25.334 17.375 23.7709 17.375 21.9376C17.375 19.6114 15.4825 17.7189 13.1562 17.7189C12.3808 17.7189 11.75 17.088 11.75 16.3126C11.75 15.5372 12.3808 14.9064 13.1562 14.9064Z" fill="#303030"/>
<path d="M42.755 9.40137C42.1487 6.13672 39.2814 3.56262 35.8438 3.56262H7.53125C3.65422 3.56262 0.5 6.81059 0.5 10.6876V38.8126H3.3125C3.3125 36.4864 5.20503 34.5939 7.53125 34.5939H9.07897C9.73222 37.7994 12.5732 40.2189 15.9688 40.2189H41.4688C43.795 40.2189 45.6875 42.1114 45.6875 44.4376H48.5V16.3126C48.5 12.875 46.0196 10.0077 42.755 9.40137ZM3.3125 33.1909V10.6876C3.3125 8.3614 5.20503 6.37512 7.53125 6.37512H35.8438C38.17 6.37512 40.0625 8.3614 40.0625 10.6876V27.5626C40.0625 29.8888 38.17 31.7814 35.8438 31.7814H7.53125C5.94978 31.7814 4.48841 32.3064 3.3125 33.1909ZM45.6875 38.816C44.5116 37.9314 43.0502 37.4064 41.4688 37.4064H15.9688C14.1355 37.4064 12.5724 36.2306 11.9919 34.5939H35.8438C39.7208 34.5939 42.875 31.4397 42.875 27.5626V12.3357C44.5118 12.9162 45.6875 14.4793 45.6875 16.3126V38.816Z" fill="#303030"/>
<path d="M21.5938 12.0939H27.4062V14.9064H21.5938V12.0939Z" fill="#303030"/>
<path d="M21.5938 17.7189H35.8438V20.5314H21.5938V17.7189Z" fill="#303030"/>
<path d="M21.5938 23.3439H35.8438V26.1564H21.5938V23.3439Z" fill="#303030"/>
</g>
<defs>
<clipPath id="clip0">
<rect width="48" height="48" fill="white" transform="translate(0.5 0.00012207)"/>
</clipPath>
</defs>
</svg>
