<svg width="62" height="74" viewBox="0 0 62 74" fill="none" xmlns="http://www.w3.org/2000/svg">
<g clip-path="url(#clip0)">
<path fill-rule="evenodd" clip-rule="evenodd" d="M59.0002 24.5301C59.0267 34.0334 56.4256 43.3591 51.4844 51.4769C46.5431 59.5947 39.454 66.1886 31.0002 70.5301C22.5472 66.1877 15.4587 59.5936 10.5176 51.476C5.57642 43.3585 2.97488 34.0332 3.00022 24.5301V14.2601L31.0002 3.06007L59.0002 14.2601V24.5301ZM39.8002 45.6901V35.3801C39.8002 34.9876 39.6443 34.6111 39.3667 34.3336C39.0892 34.056 38.7127 33.9001 38.3202 33.9001H23.5802C23.3863 33.9001 23.1944 33.9384 23.0154 34.0129C22.8364 34.0874 22.6739 34.1966 22.5372 34.3342C22.4006 34.4717 22.2925 34.635 22.2192 34.8145C22.146 34.994 22.1089 35.1862 22.1102 35.3801V45.6901C22.1089 45.884 22.146 46.0762 22.2192 46.2557C22.2925 46.4352 22.4006 46.5984 22.5372 46.736C22.6739 46.8736 22.8364 46.9827 23.0154 47.0572C23.1944 47.1317 23.3863 47.1701 23.5802 47.1701H38.3202C38.7127 47.1701 39.0892 47.0141 39.3667 46.7366C39.6443 46.459 39.8002 46.0826 39.8002 45.6901ZM31.0002 26.5301C30.4117 26.5247 29.8281 26.6367 29.2833 26.8595C28.7386 27.0822 28.2437 27.4113 27.8276 27.8274C27.4114 28.2436 27.0824 28.7384 26.8596 29.2832C26.6369 29.8279 26.5249 30.4116 26.5302 31.0001H35.3802C35.3883 29.8276 34.9322 28.6996 34.1116 27.8622C33.2911 27.0248 32.1726 26.5459 31.0002 26.5301ZM38.3202 31.0001C38.3202 29.0454 37.5437 27.1708 36.1616 25.7887C34.7795 24.4066 32.9049 23.6301 30.9502 23.6301C28.9956 23.6301 27.121 24.4066 25.7388 25.7887C24.3567 27.1708 23.5802 29.0454 23.5802 31.0001C22.4079 31.0053 21.2852 31.4741 20.4571 32.304C19.6291 33.134 19.1628 34.2577 19.1602 35.4301V45.6901C19.1628 46.8624 19.6291 47.9862 20.4571 48.8161C21.2852 49.6461 22.4079 50.1148 23.5802 50.1201H38.3202C39.4943 50.1174 40.6196 49.6499 41.4498 48.8196C42.28 47.9894 42.7476 46.8642 42.7502 45.6901V35.3801C42.7345 34.2147 42.2611 33.1022 41.4323 32.2827C40.6035 31.4633 39.4857 31.0026 38.3202 31.0001ZM51.6402 17.6901L31.0002 9.41007L10.2602 17.6901H51.6402ZM43.1902 53.0601C49.6319 44.9509 53.1138 34.8863 53.0602 24.5301V20.6401H8.84022V24.5301C8.79149 34.8855 12.2728 44.9485 18.7102 53.0601H43.1902ZM31.0002 63.8201C34.5521 61.6609 37.795 59.0303 40.6402 56.0001H21.2602C24.1403 59.033 27.4166 61.6634 31.0002 63.8201V63.8201ZM30.4102 6.45007L6.82022 15.8901C6.54658 15.999 6.31228 16.1881 6.14809 16.4326C5.9839 16.6771 5.8975 16.9656 5.90022 17.2601V24.5301C5.84495 33.099 8.06656 41.5288 12.3379 48.9574C16.6092 56.3861 22.7769 62.547 30.2102 66.8101C30.4359 66.938 30.6908 67.0053 30.9502 67.0053C31.2096 67.0053 31.4646 66.938 31.6902 66.8101C39.1243 62.5478 45.2926 56.387 49.564 48.9582C53.8354 41.5294 56.0565 33.0992 56.0002 24.5301V17.2601C56.0029 16.9656 55.9165 16.6771 55.7523 16.4326C55.5882 16.1881 55.3539 15.999 55.0802 15.8901L31.5002 6.45007C31.1503 6.31039 30.7601 6.31039 30.4102 6.45007V6.45007ZM61.0002 11.9001L31.5002 0.100071C31.1485 -0.0301017 30.7619 -0.0301017 30.4102 0.100071L0.93022 11.9001C0.655515 12.0086 0.419862 12.1973 0.253976 12.4417C0.0880894 12.686 -0.000337209 12.9747 0.000220451 13.2701V24.5301C-0.02873 34.7122 2.79426 44.699 8.14943 53.3591C13.5046 62.0193 21.1779 69.0068 30.3002 73.5301C30.5046 73.6284 30.7284 73.6795 30.9552 73.6795C31.182 73.6795 31.4059 73.6284 31.6102 73.5301C40.7325 69.0068 48.4058 62.0193 53.761 53.3591C59.1162 44.699 61.9392 34.7122 61.9102 24.5301V13.2701C61.9124 12.977 61.8269 12.69 61.6647 12.4459C61.5026 12.2018 61.2712 12.0117 61.0002 11.9001V11.9001Z" fill="white"/>
</g>
<defs>
<clipPath id="clip0">
<rect width="61.91" height="73.7" fill="white"/>
</clipPath>
</defs>
</svg>
