<svg width="44" height="44" viewBox="0 0 44 44" fill="none" xmlns="http://www.w3.org/2000/svg">
<g clip-path="url(#clip0)">
<path d="M22 0.00012207C9.88634 0.00012207 0 9.88715 0 22.0001C0 34.1138 9.88702 44.0001 22 44.0001C34.1137 44.0001 44 34.1131 44 22.0001C44 9.88646 34.113 0.00012207 22 0.00012207ZM15.4376 3.72036C13.9282 5.63943 12.8313 8.01208 12.0723 10.3126H6.49868C8.75566 7.32664 11.8538 5.01088 15.4376 3.72036ZM4.85134 12.8822H11.3429C10.7597 15.326 10.4155 17.9788 10.3328 20.7111H2.62195C2.80706 17.9003 3.59245 15.2426 4.85134 12.8822ZM4.85134 31.1095C3.59245 28.7491 2.80706 26.0999 2.62195 23.2892H10.3328C10.4155 26.0214 10.7597 28.6657 11.3429 31.1095H4.85134ZM6.49868 33.6876H12.0722C12.8311 35.9876 13.928 38.3606 15.4376 40.2799C11.8538 38.9894 8.75566 36.6736 6.49868 33.6876ZM20.7109 41.2032C17.8328 40.2357 15.8484 36.5407 14.8003 33.6876H20.7109V41.2032ZM20.7109 31.1095H13.9979C13.3714 28.7002 13.0002 26.0492 12.9119 23.2892H20.7109V31.1095ZM20.7109 20.7111H12.9119C13.0003 17.9511 13.3715 15.3 13.9979 12.8907H20.7109V20.7111ZM20.7109 10.3126H14.8003C15.8483 7.45958 17.8328 3.76453 20.7109 2.79704V10.3126ZM39.1487 12.8907C40.4076 15.2512 41.1929 17.9003 41.378 20.7111H33.6672C33.5845 17.9788 33.2403 15.3346 32.6571 12.8907H39.1487ZM37.5013 10.3126H31.9278C31.1689 8.01268 30.072 5.63968 28.5624 3.72036C32.1462 5.01088 35.2443 7.32664 37.5013 10.3126ZM23.2891 2.79704C26.1672 3.76453 28.1516 7.4595 29.1997 10.3126H23.2891V2.79704ZM23.2891 12.8907H30.0021C30.6286 15.3 30.9998 17.9511 31.0881 20.7111H23.2891V12.8907ZM23.2891 23.2806H31.0881C30.9997 26.0406 30.6285 28.7002 30.0021 31.1095H23.2891V23.2806ZM23.2891 41.2032V33.679H29.1997C28.1517 36.5321 26.1672 40.2357 23.2891 41.2032ZM28.5624 40.2799C30.0718 38.3608 31.1687 35.9795 31.9278 33.679H37.5013C35.2443 36.665 32.1462 38.9894 28.5624 40.2799ZM39.1487 31.1095H32.6571C33.2403 28.6657 33.5845 26.0128 33.6672 23.2806H41.378C41.1929 26.0913 40.4076 28.7491 39.1487 31.1095Z" fill="#303030"/>
</g>
<defs>
<clipPath id="clip0">
<rect width="44" height="44" fill="white" transform="translate(0 0.00012207)"/>
</clipPath>
</defs>
</svg>
