<svg width="49" height="48" viewBox="0 0 49 48" fill="none" xmlns="http://www.w3.org/2000/svg">
<g clip-path="url(#clip0)">
<path d="M44.9546 37.9573L32.3996 33.8418V29.5107C33.2962 28.1854 33.9007 26.6259 34.114 24.9376H36.38C38.3588 24.9376 39.9688 23.3277 39.9688 21.3488V17.505C39.9688 16.756 39.7378 16.0601 39.3437 15.4841V14.8438C39.3437 6.659 32.6848 0.00012207 24.5 0.00012207C16.3152 0.00012207 9.65628 6.659 9.65628 14.8438V15.4841C9.26225 16.0602 9.03125 16.7561 9.03125 17.505V21.3488C9.03125 23.3277 10.6412 24.9376 12.6201 24.9376H14.8861C15.1024 26.6493 15.7212 28.2284 16.6384 29.5656V33.8294L4.04534 37.9573C1.92481 38.6526 0.5 40.6191 0.5 42.8506V48.0001H48.5V42.8506C48.5 40.6191 47.0752 38.6526 44.9546 37.9573ZM19.4509 32.3135C20.9226 33.264 22.6517 33.8127 24.5 33.8127C26.3643 33.8127 28.1071 33.2543 29.5871 32.2886V34.2292C28.5193 35.1494 26.3649 36.6698 24.5 36.6698C22.6385 36.6698 20.5056 35.1521 19.4509 34.2337V32.3135ZM31.3872 16.4244C29.3491 16.0626 27.7962 14.2794 27.7962 12.1391H24.9837C24.9837 14.5396 23.0307 16.4926 20.6301 16.4926H17.6128V15.1372C17.6128 11.3397 20.7024 8.25012 24.5 8.25012C28.2976 8.25012 31.3872 11.3397 31.3872 15.1372V16.4244ZM17.6128 19.4031V19.3052H20.6301C22.9878 19.3052 25.0832 18.1607 26.3899 16.3981C27.5539 17.9682 29.3436 19.0478 31.3872 19.2649V23.5784C31.3872 24.1311 31.329 24.6691 31.2223 25.1877H26.1139V28.0002H30.0278C28.7713 29.8194 26.7614 31.0002 24.5001 31.0002C20.7026 31.0002 17.6129 27.6708 17.6129 23.5784V19.4031H17.6128ZM37.1562 21.3488C37.1562 21.7768 36.808 22.1251 36.3799 22.1251H34.1997V16.7287H36.3799C36.808 16.7287 37.1562 17.077 37.1562 17.505V21.3488ZM24.5 2.81262C30.823 2.81262 36.0223 7.71547 36.4961 13.9191C36.4574 13.9179 36.4189 13.9162 36.3799 13.9162H34.123C33.5207 9.14206 29.4349 5.43762 24.5 5.43762C19.5651 5.43762 15.4793 9.14206 14.8769 13.9162H12.62C12.5811 13.9162 12.5425 13.9179 12.5038 13.9191C12.9777 7.71547 18.177 2.81262 24.5 2.81262ZM11.8438 21.3488V17.505C11.8438 17.077 12.192 16.7287 12.6201 16.7287H14.8003V22.1251H12.6201C12.192 22.1251 11.8438 21.7768 11.8438 21.3488ZM45.6875 45.1876H38.8169V42.2814H36.0044V45.1876H12.9956V42.2814H10.1831V45.1876H3.3125V42.8506C3.3125 41.8378 3.95909 40.9454 4.92153 40.63L17.7065 36.4391C18.9196 37.4737 21.6421 39.4823 24.5001 39.4823C27.352 39.4823 30.0917 37.4804 31.3167 36.4467L44.0786 40.6301C45.0409 40.9454 45.6875 41.8379 45.6875 42.8506V45.1876Z" fill="#303030"/>
</g>
<defs>
<clipPath id="clip0">
<rect width="48" height="48" fill="white" transform="translate(0.5 0.00012207)"/>
</clipPath>
</defs>
</svg>
