<svg width="49" height="48" viewBox="0 0 49 48" fill="none" xmlns="http://www.w3.org/2000/svg">
<g clip-path="url(#clip0)">
<path d="M28.7188 11.4376H25.9062V0.00012207H23.0938V11.4376H20.2812V2.81262H0.5V5.62512H17.4688V11.4376H11.8438V48.0001H37.1562V11.4376H31.5312V5.62512H48.5V2.81262H28.7188V11.4376ZM34.3438 14.2501V45.1876H14.6562V14.2501H34.3438Z" fill="#303030"/>
<path d="M17.4688 33.9376V42.3751H31.5312V33.9376C29.4897 33.9376 19.2991 33.9376 17.4688 33.9376ZM20.2812 39.5626V36.7501H23.0938V39.5626H20.2812ZM28.7188 36.7501V39.5626H25.9062V36.7501H28.7188Z" fill="#303030"/>
<path d="M28.7188 17.0626H31.5312V19.8751H28.7188V17.0626Z" fill="#303030"/>
<path d="M23.0938 17.0626H25.9062V19.8751H23.0938V17.0626Z" fill="#303030"/>
<path d="M17.4688 17.0626H20.2812V19.8751H17.4688V17.0626Z" fill="#303030"/>
<path d="M17.4688 22.6876H20.2812V25.5001H17.4688V22.6876Z" fill="#303030"/>
<path d="M23.0938 22.6876H25.9062V25.5001H23.0938V22.6876Z" fill="#303030"/>
<path d="M28.7188 22.6876H31.5312V25.5001H28.7188V22.6876Z" fill="#303030"/>
<path d="M25.9062 28.3126H28.7188V31.1251H25.9062V28.3126Z" fill="#303030"/>
<path d="M20.2812 28.3126H23.0938V31.1251H20.2812V28.3126Z" fill="#303030"/>
</g>
<defs>
<clipPath id="clip0">
<rect width="48" height="48" fill="white" transform="translate(0.5 0.00012207)"/>
</clipPath>
</defs>
</svg>
