<svg width="66" height="65" viewBox="0 0 66 65" fill="none" xmlns="http://www.w3.org/2000/svg">
<g clip-path="url(#clip0)">
<path fill-rule="evenodd" clip-rule="evenodd" d="M16.57 54.8902C15.8145 54.8902 15.0759 55.1143 14.4477 55.534C13.8195 55.9538 13.3299 56.5504 13.0408 57.2484C12.7517 57.9464 12.676 58.7145 12.8234 59.4555C12.9708 60.1965 13.3346 60.8771 13.8689 61.4114C14.4031 61.9456 15.0837 62.3094 15.8248 62.4568C16.5658 62.6042 17.3338 62.5286 18.0319 62.2395C18.7299 61.9503 19.3265 61.4607 19.7462 60.8325C20.166 60.2043 20.39 59.4658 20.39 58.7102C20.39 57.6971 19.9875 56.7255 19.2711 56.0091C18.5548 55.2927 17.5831 54.8902 16.57 54.8902V54.8902ZM16.82 7.66023C16.8368 7.57362 16.8714 7.49141 16.9215 7.41879C16.9716 7.34616 17.0362 7.28469 17.1112 7.23822C17.1862 7.19175 17.27 7.16129 17.3574 7.14877C17.4447 7.13624 17.5337 7.14191 17.6188 7.16542C17.7038 7.18893 17.7831 7.22977 17.8516 7.28538C17.9201 7.34099 17.9764 7.41016 18.0169 7.48856C18.0574 7.56696 18.0812 7.65288 18.0869 7.74093C18.0926 7.82899 18.08 7.91727 18.05 8.00023C17.542 10.1325 17.7133 12.3702 18.54 14.4002C18.5838 14.4797 18.6101 14.5676 18.6173 14.6581C18.6245 14.7485 18.6124 14.8394 18.5818 14.9249C18.5511 15.0103 18.5027 15.0882 18.4397 15.1534C18.3766 15.2187 18.3004 15.2698 18.2161 15.3034C18.1318 15.337 18.0414 15.3522 17.9507 15.3482C17.8601 15.3441 17.7713 15.3209 17.6904 15.2799C17.6094 15.2389 17.5381 15.1812 17.4811 15.1106C17.4242 15.04 17.3829 14.958 17.36 14.8702C16.441 12.5766 16.2524 10.0551 16.82 7.65023V7.66023ZM36.82 3.06023C36.8202 3.32415 36.7682 3.58549 36.6669 3.8292C36.5657 4.07291 36.4172 4.29418 36.23 4.48023C36.0439 4.6674 35.8227 4.8159 35.579 4.91716C35.3353 5.01842 35.0739 5.07044 34.81 5.07023H34.56C34 5.91023 33.16 7.00023 32.31 8.00023L32.22 8.10023C34.243 10.246 35.8954 12.7129 37.11 15.4002C38.11 17.8502 38.17 19.9002 37.03 21.0402C35.89 22.1802 32.45 23.3802 28.57 23.6202C25.7837 23.8614 22.9808 23.4115 20.41 22.3102C20.1995 22.5393 19.9609 22.7409 19.7 22.9102L21.12 28.0002H41.34C43.3767 28.0017 45.3838 28.4876 47.1956 29.4178C49.0074 30.3481 50.5719 31.696 51.76 33.3502L57.11 40.8302L65.2 47.6702V54.8602C65.2 56.1678 64.6806 57.4217 63.756 58.3463C62.8315 59.2708 61.5775 59.7902 60.27 59.7902H57.27V58.0002H60.27C61.0948 58.0002 61.8859 57.6726 62.4691 57.0893C63.0523 56.5061 63.38 55.7151 63.38 54.8902V53.3402H58.8V47.4202H60.62V51.5202H63.38V48.5202L55.7 42.0002L50.28 34.4302C49.2616 33.01 47.9195 31.8528 46.3648 31.0546C44.8101 30.2564 43.0876 29.8401 41.34 29.8402H6.28C5.09887 29.8402 3.96596 30.3088 3.12983 31.143C2.29371 31.9773 1.82265 33.1091 1.82 34.2902V54.5802C1.82 54.9882 1.90051 55.3921 2.05693 55.7689C2.21334 56.1456 2.44258 56.4878 2.7315 56.7758C3.02042 57.0638 3.36335 57.2919 3.74061 57.4471C4.11787 57.6023 4.52206 57.6815 4.93 57.6802H9.19V59.5002H4.93C3.62421 59.5002 2.37176 58.9822 1.44749 58.0598C0.523227 57.1374 0.00264865 55.886 0 54.5802L0 34.2702C0.00264941 32.6064 0.66546 31.0116 1.8429 29.8361C3.02034 28.6605 4.61617 28.0002 6.28 28.0002H14.57L16.06 22.8402C15.9065 22.7288 15.7596 22.6086 15.62 22.4802C15.3084 22.1766 15.0596 21.8146 14.8881 21.4148C14.7165 21.015 14.6254 20.5853 14.62 20.1502C14.6308 19.6437 14.761 19.1469 15 18.7002C15.1709 18.3531 15.401 18.0384 15.68 17.7702C14.7501 15.8115 14.2457 13.678 14.2 11.5102C14 6.80023 15.53 2.13023 16.81 0.850234C18.09 -0.429766 20 -0.239766 22.48 0.780234C25.1554 1.99576 27.6117 3.64459 29.75 5.66023L29.85 5.58023C30.85 4.72023 31.97 3.89023 32.85 3.31023C32.845 3.22698 32.845 3.14349 32.85 3.06023C32.8498 2.79632 32.9018 2.53498 33.0031 2.29127C33.1043 2.04755 33.2528 1.82629 33.44 1.64023V1.64023C33.7237 1.36599 34.0821 1.18177 34.4703 1.11078C34.8584 1.03978 35.2588 1.08518 35.6212 1.24125C35.9836 1.39732 36.2917 1.6571 36.5068 1.98789C36.7219 2.31867 36.8344 2.70569 36.83 3.10023L36.82 3.06023ZM33.42 4.50023C32.63 5.06023 31.65 5.82023 30.69 6.60023C30.07 7.11023 29.44 7.60023 28.88 8.11023L28.83 8.17023C28.775 8.22011 28.7146 8.26372 28.65 8.30023C27.46 9.30023 26.56 10.1002 26.44 10.2202C26.32 10.3402 26.44 10.3202 26.44 10.4302C26.5219 10.6828 26.6624 10.9123 26.8502 11.1001C27.0379 11.2878 27.2675 11.4284 27.52 11.5102C27.63 11.5102 27.71 11.5102 27.73 11.5102C27.91 11.3302 29.68 9.31023 31.35 7.25023C32.14 6.25023 32.89 5.32023 33.45 4.53023L33.42 4.50023ZM35.34 3.58023C35.4695 3.44602 35.5419 3.26676 35.5419 3.08023C35.5419 2.8937 35.4695 2.71445 35.34 2.58023C35.273 2.50995 35.1923 2.45416 35.1028 2.41632C35.0134 2.37848 34.9171 2.35939 34.82 2.36023C34.6355 2.35901 34.4571 2.42677 34.32 2.55023V2.55023C34.1905 2.68445 34.1181 2.8637 34.1181 3.05023C34.1181 3.23676 34.1905 3.41602 34.32 3.55023C34.3863 3.6215 34.4668 3.67794 34.5565 3.71586C34.6461 3.75377 34.7427 3.7723 34.84 3.77023C34.9371 3.77108 35.0334 3.75199 35.1228 3.71415C35.2123 3.67631 35.293 3.62052 35.36 3.55023L35.34 3.58023ZM31.4 9.12023L31.05 9.55023C32.684 11.2872 34.0888 13.2263 35.23 15.3202C36.23 17.2502 36.4 18.8202 35.59 19.6302C34.71 20.4902 32.93 20.1802 30.77 18.9802C28.3352 17.5382 26.1023 15.7795 24.13 13.7502C22.1007 11.7779 20.3421 9.54508 18.9 7.11023C17.69 4.93023 17.38 3.11023 18.26 2.28023C19.14 1.45023 20.68 1.67023 22.65 2.68023C24.71 3.82058 26.6211 5.21112 28.34 6.82023L28.77 6.47023C26.7676 4.62687 24.4817 3.1176 22 2.00023C20 1.18023 18.45 1.05023 17.71 1.80023C16.6 2.91023 15.3 7.14023 15.47 11.5102C15.59 14.5102 16.4 17.4602 18.47 19.5102C21 22.0002 24.91 22.6002 28.49 22.3802C32.07 22.1602 35.21 21.0902 36.13 20.1702C36.87 19.4302 36.75 17.8702 35.94 15.9102C34.8091 13.4133 33.2753 11.1194 31.4 9.12023V9.12023ZM30.22 10.5302C29.36 11.5302 28.7 12.2702 28.6 12.3802C28.4145 12.5505 28.1879 12.6696 27.9424 12.7257C27.6969 12.7818 27.4411 12.7731 27.2 12.7002C26.7219 12.5688 26.2861 12.3154 25.9355 11.9648C25.5848 11.6141 25.3314 11.1784 25.2 10.7002C25.1272 10.4592 25.1184 10.2033 25.1745 9.95784C25.2306 9.71235 25.3497 9.48572 25.52 9.30023C25.63 9.20023 26.37 8.54023 27.37 7.68023C25.7695 6.18972 23.993 4.90018 22.08 3.84023C20.62 3.09023 19.55 2.84023 19.17 3.21023C18.79 3.58023 19.08 4.85023 20 6.50023C21.3775 8.83245 23.0588 10.9712 25 12.8602C26.8891 14.8014 29.0278 16.4828 31.36 17.8602C33.01 18.7802 34.25 19.1402 34.67 18.7102C35.09 18.2802 34.79 17.2902 34.07 15.8702C33.0153 13.9249 31.7146 12.1235 30.2 10.5102L30.22 10.5302ZM19.22 21.7002C18.6037 21.3165 18.0333 20.8636 17.52 20.3502C17.08 19.9104 16.6848 19.4281 16.34 18.9102C16.2517 19.0168 16.1778 19.1345 16.12 19.2602C15.9822 19.5367 15.9103 19.8413 15.91 20.1502C15.91 20.6807 16.1207 21.1894 16.4958 21.5644C16.8709 21.9395 17.3796 22.1502 17.91 22.1502C18.2265 22.1499 18.5383 22.0745 18.82 21.9302C18.9575 21.8646 19.0853 21.7805 19.2 21.6802L19.22 21.7002ZM18.48 23.3902C18.2984 23.4222 18.1144 23.4389 17.93 23.4402C17.6878 23.4394 17.4464 23.4126 17.21 23.3602L15.89 28.0002H19.8L18.5 23.3902H18.48ZM14.74 58.6102C14.738 58.2455 14.8445 57.8884 15.0459 57.5842C15.2473 57.2801 15.5346 57.0427 15.8712 56.9022C16.2079 56.7617 16.5786 56.7245 16.9365 56.7951C17.2943 56.8658 17.6231 57.0413 17.8811 57.2992C18.139 57.5571 18.3144 57.8859 18.3851 58.2437C18.4558 58.6016 18.4185 58.9724 18.278 59.309C18.1375 59.6456 17.9001 59.9329 17.596 60.1343C17.2919 60.3357 16.9348 60.4422 16.57 60.4402C16.0847 60.4402 15.6192 60.2474 15.276 59.9042C14.9328 59.561 14.74 59.0956 14.74 58.6102V58.6102ZM49.92 54.8902C49.1641 54.8883 48.4245 55.1106 47.795 55.5292C47.1655 55.9477 46.6743 56.5436 46.3837 57.2414C46.093 57.9393 46.0159 58.7077 46.1622 59.4493C46.3084 60.191 46.6715 60.8726 47.2053 61.4078C47.7392 61.9431 48.4198 62.3079 49.1611 62.4561C49.9023 62.6043 50.6709 62.5292 51.3695 62.2404C52.0681 61.9516 52.6653 61.462 53.0855 60.8335C53.5057 60.2051 53.73 59.4662 53.73 58.7102C53.73 57.6988 53.3289 56.7287 52.6147 56.0126C51.9005 55.2965 50.9314 54.8929 49.92 54.8902ZM48.08 58.6102C48.078 58.9746 48.1842 59.3313 48.3852 59.6352C48.5862 59.9391 48.8729 60.1765 49.2089 60.3173C49.5449 60.4581 49.9152 60.496 50.2728 60.4261C50.6304 60.3562 50.9592 60.1818 51.2175 59.9249C51.4758 59.6679 51.6521 59.3401 51.7239 58.9829C51.7957 58.6257 51.7598 58.2552 51.6209 57.9184C51.4819 57.5816 51.2461 57.2937 50.9433 57.091C50.6405 56.8884 50.2843 56.7802 49.92 56.7802C49.6788 56.7789 49.4398 56.8253 49.2166 56.9167C48.9934 57.008 48.7905 57.1426 48.6195 57.3127C48.4485 57.4827 48.3128 57.6849 48.2202 57.9076C48.1277 58.1303 48.08 58.3691 48.08 58.6102V58.6102ZM36.83 47.4602H43.18V45.6402H36.83V47.4602ZM26.74 47.4602H33.1V45.6402H26.74V47.4602ZM24 59.7902H41.92V58.0002H24V59.8202V59.7902ZM7 40.5402H18.7V33.5902H8.8C8.56505 33.5863 8.33165 33.6291 8.11343 33.7163C7.89521 33.8034 7.69653 33.9332 7.52898 34.0979C7.36143 34.2627 7.22837 34.4592 7.13754 34.6759C7.04672 34.8926 6.99997 35.1252 7 35.3602V40.5402ZM20.49 40.5402H32.19V33.5902H20.52V40.5402H20.49ZM37.71 40.5402H50.17L47.17 36.4302C46.5265 35.5514 45.6851 34.8363 44.714 34.343C43.7429 33.8496 42.6693 33.5917 41.58 33.5902H37.74V40.5402H37.71ZM53.71 42.3602L48.59 35.3602C47.7768 34.2506 46.7141 33.3475 45.4878 32.7239C44.2615 32.1003 42.9058 31.7737 41.53 31.7702H35.92V42.3602H53.71ZM34 42.3602V31.7702H8.8C7.84787 31.7702 6.93474 32.1485 6.26149 32.8217C5.58823 33.495 5.21 34.4081 5.21 35.3602V42.3602H34ZM49.91 64.3602C51.0231 64.3583 52.1106 64.0264 53.0351 63.4065C53.9597 62.7867 54.6797 61.9067 55.1043 60.8778C55.5289 59.8489 55.639 58.7172 55.4206 57.6258C55.2022 56.5343 54.6652 55.5321 53.8775 54.7457C53.0897 53.9593 52.0865 53.4241 50.9947 53.2077C49.9028 52.9913 48.7714 53.1033 47.7432 53.5298C46.715 53.9562 45.8363 54.6778 45.2181 55.6034C44.5999 56.529 44.27 57.6171 44.27 58.7302C44.2726 60.2243 44.868 61.6563 45.9254 62.7119C46.9829 63.7674 48.4159 64.3602 49.91 64.3602V64.3602ZM16.56 64.3602C15.4469 64.3583 14.3594 64.0264 13.4349 63.4065C12.5103 62.7867 11.7903 61.9067 11.3657 60.8778C10.9411 59.8489 10.831 58.7172 11.0494 57.6258C11.2678 56.5343 11.8048 55.5321 12.5925 54.7457C13.3803 53.9593 14.3835 53.4241 15.4753 53.2077C16.5672 52.9913 17.6986 53.1033 18.7268 53.5298C19.755 53.9562 20.6337 54.6778 21.2519 55.6034C21.8701 56.529 22.2 57.6171 22.2 58.7302C22.1921 60.2191 21.5957 61.6445 20.5411 62.6954C19.4864 63.7464 18.0589 64.3376 16.57 64.3402L16.56 64.3602Z" fill="white"/>
</g>
<defs>
<clipPath id="clip0">
<rect width="65.2" height="64.34" fill="white"/>
</clipPath>
</defs>
</svg>
