<svg width="66" height="66" viewBox="0 0 66 66" fill="none" xmlns="http://www.w3.org/2000/svg">
<g clip-path="url(#clip0)">
<path fill-rule="evenodd" clip-rule="evenodd" d="M36.63 65.2H28.57C27.6744 65.1974 26.8162 64.8404 26.1829 64.2071C25.5496 63.5738 25.1926 62.7156 25.19 61.82V60.41C25.1907 60.2803 25.1531 60.1532 25.0819 60.0447C25.0108 59.9362 24.9092 59.8511 24.79 59.8L18.89 57.35C18.7682 57.3033 18.6356 57.2927 18.508 57.3193C18.3803 57.3459 18.263 57.4086 18.17 57.5L17.17 58.5C16.5365 59.1308 15.679 59.485 14.785 59.485C13.891 59.485 13.0335 59.1308 12.4 58.5L6.7 52.8C6.38193 52.4865 6.12935 52.1128 5.95695 51.7008C5.78456 51.2888 5.69578 50.8466 5.69578 50.4C5.69578 49.9534 5.78456 49.5112 5.95695 49.0992C6.12935 48.6872 6.38193 48.3135 6.7 48L7.7 47C7.79193 46.9073 7.85431 46.7894 7.87923 46.6612C7.90415 46.5331 7.8905 46.4004 7.84 46.28L5.4 40.41C5.35157 40.2881 5.26739 40.1837 5.15851 40.1105C5.04964 40.0373 4.92117 39.9988 4.79 40H3.37C2.47622 40 1.61905 39.6449 0.98705 39.013C0.355053 38.381 0 37.5238 0 36.63L0 28.57C-3.91573e-06 27.6753 0.354729 26.8171 0.986441 26.1835C1.61815 25.5499 2.4753 25.1926 3.37 25.19H4.79C4.91974 25.1907 5.04679 25.1531 5.15528 25.0819C5.26377 25.0108 5.34889 24.9092 5.4 24.79L7.84 18.89C7.8905 18.7696 7.90415 18.6369 7.87923 18.5088C7.85431 18.3806 7.79193 18.2627 7.7 18.17L6.7 17.17C6.38645 16.857 6.1377 16.4852 5.96798 16.076C5.79826 15.6667 5.7109 15.228 5.7109 14.785C5.7109 14.342 5.79826 13.9033 5.96798 13.494C6.1377 13.0848 6.38645 12.713 6.7 12.4L12.4 6.7C12.7098 6.38284 13.0801 6.13095 13.4888 5.9592C13.8976 5.78745 14.3366 5.69932 14.78 5.7V5.7C15.2249 5.6991 15.6655 5.7871 16.0759 5.95883C16.4863 6.13055 16.8583 6.38254 17.17 6.7L18.17 7.7C18.2627 7.79193 18.3806 7.85431 18.5088 7.87923C18.6369 7.90415 18.7696 7.8905 18.89 7.84L24.79 5.4C24.9092 5.34889 25.0108 5.26377 25.0819 5.15528C25.1531 5.04679 25.1907 4.91974 25.19 4.79V3.37C25.1926 2.4753 25.5499 1.61815 26.1835 0.986441C26.8171 0.354729 27.6753 -3.91573e-06 28.57 0L36.63 0C37.5238 0 38.381 0.355053 39.013 0.98705C39.6449 1.61905 40 2.47622 40 3.37V4.79C39.9988 4.92117 40.0373 5.04964 40.1105 5.15851C40.1837 5.26739 40.2881 5.35157 40.41 5.4L46.31 7.84C46.4261 7.88668 46.5533 7.89829 46.676 7.87341C46.7986 7.84852 46.9113 7.78824 47 7.7L48 6.7C48.6409 6.08341 49.4957 5.73899 50.385 5.73899C51.2743 5.73899 52.1291 6.08341 52.77 6.7L58.47 12.4C58.7835 12.713 59.0323 13.0848 59.202 13.494C59.3717 13.9033 59.4591 14.342 59.4591 14.785C59.4591 15.228 59.3717 15.6667 59.202 16.076C59.0323 16.4852 58.7835 16.857 58.47 17.17L57.47 18.17C57.3764 18.2616 57.3121 18.379 57.2854 18.5072C57.2587 18.6354 57.2707 18.7686 57.32 18.89L59.77 24.79C59.8211 24.9092 59.9062 25.0108 60.0147 25.0819C60.1232 25.1531 60.2503 25.1907 60.38 25.19H61.79C62.6856 25.1926 63.5438 25.5496 64.1771 26.1829C64.8104 26.8162 65.1674 27.6744 65.17 28.57V36.63C65.1674 37.5195 64.8143 38.3722 64.1871 39.003C63.56 39.6339 62.7095 39.9921 61.82 40H60.41C60.2788 39.9988 60.1504 40.0373 60.0415 40.1105C59.9326 40.1837 59.8484 40.2881 59.8 40.41C59.6417 40.7036 59.3809 40.9287 59.0675 41.0426C58.754 41.1565 58.4095 41.1512 58.0997 41.0278C57.7898 40.9043 57.5361 40.6713 57.3868 40.373C57.2376 40.0748 57.2031 39.732 57.29 39.41C57.5433 38.7917 57.9757 38.2632 58.5317 37.8926C59.0877 37.5219 59.7418 37.326 60.41 37.33H61.82C61.995 37.33 62.1629 37.2605 62.2867 37.1367C62.4105 37.0129 62.48 36.845 62.48 36.67V28.57C62.4813 28.483 62.4652 28.3965 62.4325 28.3158C62.3998 28.2352 62.3513 28.1619 62.2897 28.1003C62.2281 28.0387 62.1548 27.9902 62.0742 27.9575C61.9935 27.9248 61.907 27.9087 61.82 27.91H60.41C59.7424 27.9113 59.0895 27.7143 58.534 27.344C57.9785 26.9737 57.5455 26.4467 57.29 25.83L54.84 19.93C54.5858 19.3121 54.5205 18.6328 54.6522 17.9778C54.7839 17.3229 55.1068 16.7216 55.58 16.25L56.58 15.25C56.6415 15.1884 56.6901 15.115 56.7227 15.0343C56.7553 14.9535 56.7714 14.8671 56.77 14.78C56.7707 14.6945 56.7542 14.6098 56.7215 14.5308C56.6889 14.4518 56.6408 14.3801 56.58 14.32L50.88 8.62C50.8184 8.55846 50.745 8.50993 50.6643 8.47729C50.5835 8.44465 50.4971 8.42857 50.41 8.43C50.3245 8.42935 50.2398 8.44582 50.1608 8.47845C50.0818 8.51109 50.0101 8.55922 49.95 8.62L48.95 9.62C48.4818 10.0953 47.8816 10.4191 47.2272 10.5492C46.5729 10.6794 45.8945 10.61 45.28 10.35L39.38 7.91C38.7625 7.65557 38.2348 7.22287 37.8643 6.66714C37.4938 6.11142 37.2973 5.45789 37.3 4.79V3.37C37.2974 3.1967 37.2267 3.03138 37.1032 2.90976C36.9797 2.78814 36.8133 2.71998 36.64 2.72H28.57C28.3967 2.71998 28.2303 2.78814 28.1068 2.90976C27.9833 3.03138 27.9126 3.1967 27.91 3.37V4.79C27.91 5.4573 27.7125 6.10966 27.3423 6.66489C26.9722 7.22011 26.446 7.65335 25.83 7.91L19.93 10.35C19.3138 10.6094 18.634 10.6786 17.9782 10.5485C17.3224 10.4184 16.7205 10.095 16.25 9.62L15.25 8.62C15.1264 8.49726 14.9592 8.42838 14.785 8.42838C14.6108 8.42838 14.4436 8.49726 14.32 8.62L8.62 14.32C8.55922 14.3801 8.51109 14.4518 8.47845 14.5308C8.44582 14.6098 8.42935 14.6945 8.43 14.78C8.42857 14.8671 8.44465 14.9535 8.47729 15.0343C8.50993 15.115 8.55846 15.1884 8.62 15.25L9.62 16.25C10.095 16.7205 10.4184 17.3224 10.5485 17.9782C10.6786 18.634 10.6094 19.3138 10.35 19.93L7.91 25.83C7.65335 26.446 7.22011 26.9722 6.66489 27.3423C6.10966 27.7125 5.4573 27.91 4.79 27.91H3.37C3.28379 27.91 3.19844 27.9271 3.11892 27.9604C3.0394 27.9937 2.9673 28.0425 2.90681 28.1039C2.84632 28.1653 2.79865 28.2382 2.76658 28.3182C2.73451 28.3982 2.71867 28.4838 2.72 28.57V36.63C2.71998 36.8033 2.78814 36.9697 2.90976 37.0932C3.03138 37.2167 3.1967 37.2874 3.37 37.29H4.79C5.45789 37.2873 6.11142 37.4838 6.66714 37.8543C7.22287 38.2248 7.65557 38.7525 7.91 39.37L10.35 45.27C10.6205 45.8925 10.6955 46.5825 10.5652 47.2485C10.4348 47.9146 10.1052 48.5254 9.62 49L8.62 50C8.55922 50.0601 8.51109 50.1318 8.47845 50.2108C8.44582 50.2898 8.42935 50.3745 8.43 50.46C8.42857 50.5471 8.44465 50.6335 8.47729 50.7143C8.50993 50.795 8.55846 50.8684 8.62 50.93L14.32 56.63C14.4449 56.7504 14.6116 56.8176 14.785 56.8176C14.9584 56.8176 15.1251 56.7504 15.25 56.63L16.25 55.63C16.7205 55.155 17.3224 54.8316 17.9782 54.7015C18.634 54.5714 19.3138 54.6406 19.93 54.9L25.83 57.34C26.446 57.5967 26.9722 58.0299 27.3423 58.5851C27.7125 59.1403 27.91 59.7927 27.91 60.46V61.87C27.91 62.045 27.9795 62.2129 28.1033 62.3367C28.2271 62.4605 28.395 62.53 28.57 62.53H36.63C36.805 62.53 36.9729 62.4605 37.0967 62.3367C37.2205 62.2129 37.29 62.045 37.29 61.87V60.41C37.2873 59.7421 37.4838 59.0886 37.8543 58.5329C38.2248 57.9771 38.7525 57.5444 39.37 57.29C39.5341 57.2212 39.7102 57.1855 39.8881 57.185C40.066 57.1844 40.2423 57.2191 40.4068 57.2869C40.5713 57.3548 40.7207 57.4545 40.8466 57.5803C40.9724 57.7061 41.0721 57.8555 41.14 58.02C41.209 58.1848 41.2448 58.3616 41.2455 58.5402C41.2461 58.7189 41.2116 58.8959 41.1438 59.0612C41.076 59.2266 40.9763 59.3769 40.8504 59.5036C40.7245 59.6304 40.5748 59.7311 40.41 59.8C40.2881 59.8484 40.1837 59.9326 40.1105 60.0415C40.0373 60.1504 39.9988 60.2788 40 60.41V61.82C40 62.7147 39.6453 63.5729 39.0136 64.2065C38.3818 64.8401 37.5247 65.1973 36.63 65.2V65.2Z" fill="white"/>
<path fill-rule="evenodd" clip-rule="evenodd" d="M32.6198 51.0698C29.7373 51.0536 26.8983 50.3647 24.3289 49.058C21.7594 47.7513 19.5305 45.8628 17.8195 43.5429C16.1085 41.2231 14.9626 38.5358 14.4731 35.6951C13.9836 32.8543 14.1639 29.9385 14.9998 27.1798C15.0706 26.9509 15.2002 26.7445 15.3757 26.5813C15.5512 26.4181 15.7664 26.3038 15.9998 26.2498C16.2284 26.1936 16.4678 26.1982 16.694 26.2631C16.9203 26.328 17.1257 26.451 17.2898 26.6198L25.8298 35.2798H29.9998L35.2698 29.9998V25.7898L26.6998 17.1198C26.5369 16.9532 26.4195 16.7476 26.3589 16.5226C26.2983 16.2976 26.2966 16.0608 26.3538 15.8349C26.411 15.6091 26.5253 15.4017 26.6857 15.2327C26.8461 15.0637 27.0472 14.9387 27.2698 14.8698C30.7703 13.7962 34.5108 13.7861 38.0171 14.8408C41.5234 15.8954 44.6376 17.9673 46.965 20.7938C49.2924 23.6204 50.7283 27.0743 51.0905 30.7178C51.4528 34.3613 50.7251 38.0303 48.9998 41.2598C48.8327 41.582 48.5445 41.8247 48.1985 41.9344C47.8525 42.0441 47.4771 42.0119 47.1548 41.8448C46.8326 41.6777 46.5899 41.3895 46.4802 41.0435C46.3705 40.6974 46.4027 40.322 46.5698 39.9998C47.9338 37.424 48.5578 34.5208 48.3725 31.612C48.1873 28.7032 47.2 25.9026 45.5202 23.5207C43.8405 21.1387 41.5338 19.2686 38.856 18.1175C36.1783 16.9665 33.234 16.5797 30.3498 16.9998L37.5898 24.3198C37.7215 24.4501 37.825 24.6061 37.8939 24.7782C37.9627 24.9502 37.9953 25.1346 37.9898 25.3198V30.6698C37.9942 30.8549 37.961 31.0389 37.8922 31.2107C37.8235 31.3826 37.7206 31.5388 37.5898 31.6698L31.5398 37.7198C31.2885 37.9735 30.9469 38.1174 30.5898 38.1198H25.1998C25.0138 38.1246 24.8288 38.0907 24.6566 38.0201C24.4845 37.9495 24.3289 37.8438 24.1998 37.7098L16.9998 30.2898C16.5861 33.1717 16.9778 36.1118 18.1315 38.7849C19.2852 41.458 21.1559 43.7598 23.5366 45.4357C25.9174 47.1115 28.7153 48.096 31.6209 48.2803C34.5265 48.4646 37.4264 47.8414 39.9998 46.4798C40.1577 46.3781 40.335 46.3102 40.5204 46.2804C40.7058 46.2506 40.8954 46.2595 41.0773 46.3066C41.2591 46.3537 41.4292 46.4379 41.5768 46.554C41.7245 46.6701 41.8465 46.8155 41.9352 46.981C42.0238 47.1466 42.0773 47.3288 42.0921 47.516C42.1069 47.7032 42.0827 47.8915 42.0211 48.0689C41.9596 48.2464 41.8619 48.4091 41.7343 48.547C41.6067 48.6848 41.452 48.7947 41.2798 48.8698C38.616 50.2989 35.6428 51.0542 32.6198 51.0698V51.0698Z" fill="white"/>
<path fill-rule="evenodd" clip-rule="evenodd" d="M55.6197 65.0002C54.3917 65.0038 53.175 64.7654 52.0391 64.2987C50.9033 63.832 49.8704 63.1461 48.9997 62.2802L36.9997 50.3402C36.7693 50.0809 36.6466 49.7434 36.6568 49.3968C36.667 49.0501 36.8093 48.7204 37.0546 48.4751C37.2998 48.2298 37.6295 48.0876 37.9762 48.0774C38.3229 48.0672 38.6604 48.1898 38.9197 48.4202L50.8797 60.3602C52.1368 61.6173 53.8418 62.3236 55.6197 62.3236C57.3975 62.3236 59.1026 61.6173 60.3597 60.3602C61.6168 59.1031 62.3231 57.398 62.3231 55.6202C62.3231 53.8424 61.6168 52.1373 60.3597 50.8802L48.4197 38.9402C48.2923 38.8141 48.191 38.6642 48.1216 38.499C48.0521 38.3338 48.0159 38.1565 48.015 37.9773C48.014 37.7981 48.0484 37.6204 48.1161 37.4545C48.1839 37.2885 48.2836 37.1376 48.4097 37.0102C48.5358 36.8828 48.6857 36.7815 48.8509 36.7121C49.0161 36.6426 49.1934 36.6064 49.3726 36.6055C49.5518 36.6046 49.7295 36.6389 49.8954 36.7067C50.0613 36.7744 50.2123 36.8741 50.3397 37.0002L62.2797 49.0002C63.5696 50.3215 64.4427 51.9929 64.7905 53.8064C65.1383 55.62 64.9454 57.4957 64.2358 59.2005C63.5261 60.9053 62.3311 62.364 60.7992 63.3951C59.2674 64.4262 57.4662 64.9844 55.6197 65.0002Z" fill="white"/>
<path fill-rule="evenodd" clip-rule="evenodd" d="M55.2705 60.1599C54.4656 60.1608 53.673 59.963 52.9629 59.5841C52.2528 59.2052 51.6472 58.6569 51.1999 57.9878C50.7525 57.3187 50.4773 56.5495 50.3985 55.7485C50.3197 54.9475 50.4399 54.1395 50.7483 53.396C51.0567 52.6526 51.5439 51.9968 52.1665 51.4868C52.7892 50.9768 53.5281 50.6284 54.3177 50.4725C55.1073 50.3166 55.9232 50.358 56.693 50.593C57.4628 50.8281 58.1626 51.2495 58.7305 51.8199V51.8199C59.4118 52.5043 59.8753 53.3751 60.0624 54.3226C60.2495 55.2701 60.1518 56.2517 59.7817 57.1437C59.4117 58.0358 58.7857 58.7982 57.9829 59.335C57.18 59.8718 56.2362 60.1588 55.2705 60.1599V60.1599ZM55.2705 53.0999C54.7661 53.0992 54.2771 53.2734 53.8867 53.5929C53.4964 53.9124 53.229 54.3573 53.1299 54.8519C53.0309 55.3464 53.1064 55.8601 53.3437 56.3052C53.5809 56.7503 53.9651 57.0994 54.4309 57.293C54.8967 57.4865 55.4151 57.5126 55.898 57.3667C56.3808 57.2208 56.7981 56.912 57.0788 56.493C57.3595 56.0739 57.4861 55.5704 57.4372 55.0684C57.3883 54.5664 57.1668 54.0969 56.8105 53.7399C56.401 53.3327 55.8479 53.1028 55.2705 53.0999V53.0999Z" fill="white"/>
</g>
<defs>
<clipPath id="clip0">
<rect width="65.2" height="65.2" fill="white"/>
</clipPath>
</defs>
</svg>
