<svg width="49" height="48" viewBox="0 0 49 48" fill="none" xmlns="http://www.w3.org/2000/svg">
<g clip-path="url(#clip0)">
<path d="M32.8212 10.0404L35.2817 5.436L36.4313 9.28131L39.1315 8.47405L36.5983 0.00012207L28.1242 2.53341L28.9316 5.23364L32.8148 4.07278L30.3355 8.71201C26.1605 16.5242 18.0643 21.3772 9.20656 21.3772H2.85745V24.1955H9.20656C19.1064 24.1955 28.155 18.7715 32.8212 10.0404Z" fill="#303030"/>
<path d="M42.7858 45.1818V18.2339H32.4741V45.1818H29.6558V27.2501H19.3441V45.1818H16.5257V32.8116H6.21407V45.1819H2.85745V48.0002H46.1425V45.1819H42.7858V45.1818ZM13.7074 45.1818H9.03239V35.6299H13.7075V45.1818H13.7074ZM26.8375 45.1818H22.1625V30.0684H26.8375V45.1818ZM39.9675 45.1818H35.2924V21.0522H39.9675V45.1818Z" fill="#303030"/>
</g>
<defs>
<clipPath id="clip0">
<rect width="48" height="48" fill="white" transform="translate(0.5 0.00012207)"/>
</clipPath>
</defs>
</svg>
