<svg width="49" height="48" viewBox="0 0 49 48" fill="none" xmlns="http://www.w3.org/2000/svg">
<g clip-path="url(#clip0)">
<path d="M38.0139 12.3043L46.2345 12.9032L46.8334 4.68264L44.0162 4.47743L43.7806 7.7117C39.2677 2.82912 32.913 0.00012207 26.167 0.00012207C12.9333 0.00012207 2.16705 10.7665 2.16705 24.0001C2.16705 37.2336 12.9335 48 26.1671 48C34.1693 48 41.6213 44.0195 46.101 37.352L43.7563 35.7767C39.8024 41.6619 33.2269 45.1754 26.1671 45.1754C14.4909 45.1754 4.99174 35.6762 4.99174 24.0001C4.99174 12.324 14.4908 2.8248 26.167 2.8248C32.1717 2.8248 37.8249 5.36786 41.8139 9.74889L38.2191 9.48704L38.0139 12.3043Z" fill="#303030"/>
<path d="M14.3785 26.6526C14.3785 25.7446 15.2867 25.1553 16.5769 24.502C18.0584 23.7533 19.0938 22.8931 19.0938 21.0451C19.0938 18.8626 17.6919 17.5086 15.175 17.5086C13.0085 17.5086 11.3995 18.544 10.6986 19.3405L12.2757 21.0292C12.8491 20.4398 13.8051 19.7707 14.8246 19.7707C15.6529 19.7707 16.1945 20.2168 16.1945 21.0771C16.1945 22.4151 14.8723 22.9886 13.5183 23.594C11.2243 24.6294 10.6667 25.9995 10.6667 28.9466H19.1099V26.6526H14.3785Z" fill="#303030"/>
<path d="M27.2661 24.279V17.62H25.5138L20.2567 24.279V26.557H24.7172V28.9307H27.2661V26.557H28.668V24.279H27.2661ZM25.004 24.2789H22.7896L25.004 21.4432V24.2789Z" fill="#303030"/>
<path d="M35.5657 20.4237C34.3391 20.4237 33.2717 20.9972 32.6663 21.9849V17.3173H30.1174V28.9466H32.6663V24.1516C32.9851 23.2595 33.8294 22.67 34.4346 22.67C35.1675 22.67 35.6453 23.1639 35.6453 24.2472V28.9467H38.1943V23.594C38.1942 22.1443 37.8118 20.4237 35.5657 20.4237Z" fill="#303030"/>
</g>
<defs>
<clipPath id="clip0">
<rect width="48" height="48" fill="white" transform="translate(0.5 0.00012207)"/>
</clipPath>
</defs>
</svg>
