<svg width="69" height="47" viewBox="0 0 69 47" fill="none" xmlns="http://www.w3.org/2000/svg">
<g clip-path="url(#clip0)">
<path fill-rule="evenodd" clip-rule="evenodd" d="M29.9296 5.44C27.7202 5.49155 25.5538 6.06137 23.605 7.10354C21.6561 8.14571 19.9793 9.63109 18.7096 11.44C18.6026 11.5831 18.5248 11.746 18.4807 11.9192C18.4366 12.0924 18.4271 12.2726 18.4526 12.4495C18.4781 12.6263 18.5383 12.7965 18.6296 12.9501C18.7208 13.1038 18.8415 13.238 18.9846 13.345C19.1278 13.452 19.2906 13.5298 19.4638 13.5739C19.637 13.618 19.8172 13.6276 19.9941 13.602C20.3514 13.5505 20.6735 13.3591 20.8896 13.07C21.905 11.6092 23.2473 10.4056 24.8097 9.55489C26.3722 8.70422 28.1116 8.23001 29.8896 8.17C30.2503 8.17 30.5963 8.02671 30.8513 7.77167C31.1064 7.51662 31.2496 7.17069 31.2496 6.81C31.2496 6.44931 31.1064 6.10338 30.8513 5.84833C30.5963 5.59329 30.2503 5.45 29.8896 5.45L29.9296 5.44ZM55.7896 43.54H12.2496C9.75549 43.6535 7.31656 42.7827 5.45836 41.1152C3.60015 39.4476 2.47141 37.1168 2.31535 34.6249C2.15928 32.1331 2.98837 29.6797 4.62399 27.7933C6.2596 25.9069 8.57082 24.7386 11.0596 24.54C11.3959 24.4787 11.6997 24.3006 11.9174 24.0372C12.1352 23.7737 12.2528 23.4418 12.2496 23.1C12.2496 11.85 20.1796 2.69 29.9296 2.69C32.6814 2.74421 35.3779 3.47164 37.7836 4.80869C40.1892 6.14575 42.2307 8.05172 43.7296 10.36C44.3296 11.22 45.0896 10.86 46.2596 10.86C47.8207 10.8461 49.3661 11.1718 50.7888 11.8144C52.2115 12.4571 53.4775 13.4013 54.4991 14.5817C55.5206 15.7622 56.2734 17.1506 56.7052 18.6508C57.1369 20.151 57.2374 21.7271 56.9996 23.27C56.954 23.6003 57.0304 23.9358 57.2145 24.2138C57.3986 24.4918 57.6778 24.6931 57.9996 24.78C60.2536 25.339 62.2255 26.7026 63.5441 28.6141C64.8628 30.5256 65.4374 32.8531 65.1596 35.1587C64.8819 37.4642 63.771 39.5888 62.0361 41.1324C60.3012 42.676 58.0619 43.5323 55.7396 43.54H55.7896ZM59.8396 22.47C62.5666 23.4266 64.8671 25.3171 66.334 27.8069C67.8008 30.2968 68.3395 33.2253 67.8545 36.0742C67.3695 38.923 65.8922 41.5084 63.6841 43.3726C61.476 45.2368 58.6795 46.2596 55.7896 46.26H12.2496C9.23743 46.2616 6.33039 45.1525 4.08482 43.1448C1.83924 41.1371 0.412833 38.3719 0.0785598 35.3783C-0.255714 32.3847 0.525621 29.373 2.27304 26.9194C4.02047 24.4659 6.61126 22.7428 9.54964 22.08C10.0696 9.76 18.9996 0 29.9296 0C32.9868 0.0409081 35.991 0.804194 38.6969 2.22755C41.4029 3.6509 43.7339 5.69398 45.4996 8.19C45.7496 8.19 46.0096 8.19 46.2596 8.19C49.8624 8.19526 53.3166 9.62674 55.867 12.1715C58.4173 14.7162 59.8564 18.1672 59.8696 21.77C59.8696 22 59.8596 22.23 59.8396 22.47V22.47Z" fill="white"/>
</g>
<defs>
<clipPath id="clip0">
<rect width="68.03" height="46.26" fill="white"/>
</clipPath>
</defs>
</svg>
