<svg width="15" height="14" viewBox="0 0 15 14" fill="none" xmlns="http://www.w3.org/2000/svg">
<path d="M15 1.56686C14.4422 1.83258 13.8478 2.00871 13.2281 2.09423C13.8656 1.68088 14.3522 1.03133 14.5809 0.248416C13.9866 0.633258 13.3303 0.905091 12.6309 1.05679C12.0666 0.404186 11.2622 0 10.3847 0C8.68219 0 7.31156 1.50068 7.31156 3.34038C7.31156 3.60509 7.33219 3.85962 7.38281 4.10192C4.82625 3.96652 2.56406 2.63586 1.04437 0.608824C0.779062 1.10871 0.623438 1.68088 0.623438 2.29683C0.623438 3.45339 1.17188 4.47862 1.98937 5.07217C1.49531 5.06199 1.01063 4.90622 0.6 4.66086C0.6 4.67104 0.6 4.68428 0.6 4.69751C0.6 6.32036 1.66594 7.66833 3.06375 7.97885C2.81344 8.05317 2.54063 8.0888 2.2575 8.0888C2.06063 8.0888 1.86187 8.07658 1.67531 8.03179C2.07375 9.3543 3.20438 10.3266 4.54875 10.3581C3.5025 11.2469 2.17406 11.7825 0.735938 11.7825C0.48375 11.7825 0.241875 11.7702 0 11.7367C1.36219 12.6906 2.97656 13.2353 4.7175 13.2353C10.3763 13.2353 13.47 8.1448 13.47 3.73235C13.47 3.58473 13.4653 3.44219 13.4587 3.30068C14.0691 2.83032 14.5819 2.24287 15 1.56686Z" fill="black" fill-opacity="0.2"/>
</svg>
